<svg width="24" height="24" viewBox="0 0 24 24" fill="none" xmlns="http://www.w3.org/2000/svg">
<path fill-rule="evenodd" clip-rule="evenodd" d="M3.50781 10.3178C3.50781 5.71789 7.35169 2 12.0013 2C16.6639 2 20.5078 5.71789 20.5078 10.3178C20.5078 12.6357 19.6648 14.7876 18.2773 16.6116C16.7466 18.6235 14.86 20.3765 12.7364 21.7524C12.2503 22.0704 11.8117 22.0944 11.2783 21.7524C9.14255 20.3765 7.2559 18.6235 5.73831 16.6116C4.3498 14.7876 3.50781 12.6357 3.50781 10.3178ZM9.20312 10.5773C9.20312 12.1182 10.4606 13.3302 12.0023 13.3302C13.5451 13.3302 14.8147 12.1182 14.8147 10.5773C14.8147 9.04831 13.5451 7.77734 12.0023 7.77734C10.4606 7.77734 9.20312 9.04831 9.20312 10.5773Z" fill="white"/>
</svg>
