<svg width="24" height="24" viewBox="0 0 24 24" fill="none" xmlns="http://www.w3.org/2000/svg">
<path d="M14.4261 5.48976C13.95 5.40182 13.5128 5.70561 13.4222 6.17029C13.3316 6.63497 13.6363 7.08866 14.0994 7.1796C15.4937 7.45141 16.5703 8.53067 16.8431 9.92971V9.93071C16.9208 10.3334 17.2754 10.6262 17.6837 10.6262C17.7384 10.6262 17.7932 10.6212 17.849 10.6112C18.3121 10.5183 18.6168 10.0656 18.5262 9.59994C18.1189 7.51037 16.5105 5.89648 14.4261 5.48976Z" fill="white"/>
<path d="M14.3638 2.00793C14.1408 1.97595 13.9167 2.04191 13.7384 2.18381C13.5552 2.32771 13.4406 2.53557 13.4157 2.76841C13.363 3.23908 13.7026 3.66479 14.1726 3.71776C17.4143 4.07951 19.9339 6.60477 20.2984 9.85654C20.3472 10.2922 20.7127 10.621 21.1489 10.621C21.1818 10.621 21.2137 10.619 21.2465 10.615C21.4746 10.59 21.6777 10.4771 21.8212 10.2972C21.9636 10.1174 22.0283 9.89351 22.0024 9.66467C21.5483 5.60746 18.4082 2.45862 14.3638 2.00793Z" fill="white"/>
<path fill-rule="evenodd" clip-rule="evenodd" d="M11.0396 12.9724C15.0286 16.9604 15.9336 12.3467 18.4735 14.8848C20.9221 17.3328 22.3294 17.8232 19.2271 20.9247C18.8384 21.237 16.3694 24.9943 7.69242 16.3197C-0.985666 7.644 2.7694 5.17244 3.08178 4.78395C6.19168 1.67385 6.67368 3.08938 9.1223 5.53733C11.6622 8.0765 7.05047 8.98441 11.0396 12.9724Z" fill="white"/>
</svg>
