<svg width="24" height="24" viewBox="0 0 24 24" fill="none" xmlns="http://www.w3.org/2000/svg">
<path fill-rule="evenodd" clip-rule="evenodd" d="M16.9468 3C18.2878 3 19.5778 3.53 20.5268 4.481C21.4768 5.43 22.0078 6.71 22.0078 8.05V15.95C22.0078 18.74 19.7378 21 16.9468 21H7.06781C4.27681 21 2.00781 18.74 2.00781 15.95V8.05C2.00781 5.26 4.26681 3 7.06781 3H16.9468ZM18.5397 9.54033L18.6197 9.46033C18.8587 9.17033 18.8587 8.75033 18.6087 8.46033C18.4697 8.31133 18.2787 8.22033 18.0797 8.20033C17.8697 8.18933 17.6697 8.26033 17.5187 8.40033L13.0097 12.0003C12.4297 12.4813 11.5987 12.4813 11.0097 12.0003L6.5097 8.40033C6.1987 8.17033 5.7687 8.20033 5.5097 8.47033C5.2397 8.74033 5.2097 9.17033 5.4387 9.47033L5.5697 9.60033L10.1197 13.1503C10.6797 13.5903 11.3587 13.8303 12.0697 13.8303C12.7787 13.8303 13.4697 13.5903 14.0287 13.1503L18.5397 9.54033Z" fill="white"/>
</svg>
