<svg width="317" height="50" viewBox="0 0 317 50" fill="none" xmlns="http://www.w3.org/2000/svg">
<g clip-path="url(#clip0_2004_129)">
<path d="M17.625 1.1875H18.875C19.625 1.1875 20.0625 1.375 20.125 1.8125C20.1875 1.9375 20.1875 2.6875 20.25 3.9375V5.25C20.25 6.125 20.0625 7.875 19.75 10.5C19.6875 11.4375 18.9375 11.9375 17.625 11.9375C17.1875 11.9375 16.5 11.9375 15.5625 11.875C14.625 11.8125 13.9375 11.8125 13.5 11.8125C12.4375 11.8125 11.8125 12.1875 11.6875 13C11.625 13.25 11.625 13.8125 11.625 14.8125V16.75V17.5625C11.625 18.125 11.625 18.8125 11.6875 19.625C11.6875 20.4375 11.75 21.0625 11.75 21.375C11.75 22.0625 11.8125 22.5 12 22.625C12.1875 22.8125 12.5 22.875 13 22.875H13.9375H16.125C17.125 22.875 17.75 22.9375 18.0625 23.0625C18.375 23.1875 18.5 23.4375 18.5 23.8125C18.5 24.625 18.5 26 18.4375 27.875C18.4375 29.75 18.375 31.125 18.375 32C18.375 32.6875 17.9375 33.0625 17.125 33.0625C16.5625 33.0625 15.8125 33.125 14.75 33.1875C13.75 33.25 12.9375 33.3125 12.4375 33.3125C12.3125 33.3125 12.1875 33.3125 12.0625 33.375C11.9375 33.4375 11.875 33.5 11.8125 33.5625C11.75 33.625 11.6875 33.75 11.6875 33.875C11.6875 34 11.625 34.125 11.625 34.1875C11.625 34.25 11.625 34.4375 11.5625 34.625C11.5625 34.8125 11.5 35 11.5 35.0625C11.375 37.5 11.3125 41.5 11.3125 46.9375C11.3125 47.25 11.25 47.625 11.1875 48.0625C11 48.9375 10 49.3125 8.1875 49.3125C7.5 49.3125 6.375 49.3125 4.8125 49.25C3.25 49.1875 2 49.1875 1.0625 49.1875C0.5 49.1875 0.25 49 0.25 48.5625C0.0625 41.5625 0 33.5625 0 24.625C0 23.9375 0 22.8125 0 21.3125C0 19.8125 0 18.6875 0 17.9375C0 15.75 1.49012e-08 13.6875 -0.0625 11.75C-0.0625 9.8125 -0.125 7.75 -0.125 5.6875C-0.125 5.25 -0.125 4.6875 -0.1875 4C0 3.25 0 2.75 0 2.4375C0 1.375 0.6875 0.8125 2.0625 0.8125C3.8125 0.8125 6.4375 0.875 9.9375 1C13.4375 1.125 16 1.1875 17.625 1.1875Z" fill="#FFC0CB"/>
<path d="M52.125 0.625C53.25 0.625 53.8125 0.875 53.875 1.4375C54.0625 2.8125 54.125 5.0625 54.125 8.1875C54.1875 10 54.25 13.9375 54.375 20C54.5 26.0625 54.5625 30.625 54.5625 33.8125C54.5625 39.5 53.3125 43.625 50.875 46.125C48.5 48.75 44.3125 50 38.3125 50C35.5625 50 33 49.3125 30.6875 47.9375C28.3125 46.5625 26.6875 44.8125 25.875 42.6875C24.4375 39.1875 23.75 33.625 23.75 25.875C23.75 24.0625 23.8125 21.4375 23.875 17.9375C23.9375 14.4375 24 12 24 10.625C24 9.75 24.0625 8.4375 24.125 6.6875C24.1875 4.9375 24.25 3.5625 24.25 2.6875C24.25 1.6875 24.6875 1.1875 25.5 1.125C29.0625 0.8125 31.5625 0.625 33.125 0.625C33.6875 0.625 34 0.75 34.25 1.0625C34.375 1.375 34.5 1.875 34.5 2.625V8.625C34.5 10.6875 34.4375 14.1875 34.375 19.125C34.3125 24.0625 34.25 27.4375 34.25 29.3125C34.25 31.75 34.5625 33.6875 35.125 35.0625C35.6875 36.4375 36.875 37.125 38.625 37.125C39.6875 37.125 40.5 36.875 41.0625 36.375C41.625 35.875 42 35.25 42.125 34.625C42.25 33.9375 42.375 32.9375 42.375 31.5625C42.5 28.375 42.5625 25.25 42.5625 22.125C42.5625 19.6875 42.5 16.375 42.375 12.125C42.25 7.875 42.1875 5.25 42.1875 4.1875C42.1875 3.9375 42.1875 3.625 42.125 3.25C42.125 2.875 42.0625 2.6875 42.0625 2.5625C42.0625 2.0625 42.1875 1.75 42.4375 1.5C42.6875 1.3125 43.1875 1.1875 43.9375 1.125C47.6875 0.75 50.375 0.625 52.125 0.625Z" fill="#FFC0CB"/>
<path d="M60 2.1875C62.3125 2.1875 66.25 2.0625 71.875 1.875C77.4375 1.625 81.6875 1.5625 84.625 1.5625C85.0625 1.5625 85.3125 1.875 85.3125 2.5625C85.375 3.125 85.375 4.5 85.375 6.75C85.375 9.375 85.25 11 85.0625 11.625C84.625 12.9375 83.75 14.5625 82.4375 16.625C81.125 18.6875 80.3125 20 80 20.625C79.4375 21.8125 78.4375 23.5625 77 26C75.5625 28.4375 74.375 30.5 73.4375 32.25C72.5 34 72 35.1875 72 35.75C72 36.4375 72.75 36.8125 74.1875 36.875C74.75 36.9375 76.25 36.9375 78.75 36.9375C81.25 36.9375 83 37 84 37.125C84.4375 37.1875 84.75 37.3125 85 37.5C85.1875 37.75 85.3125 37.9375 85.375 38.1875C85.4375 38.4375 85.4375 38.8125 85.4375 39.375C85.4375 39.4375 85.4375 39.5 85.4375 39.5625V39.75C85.4375 40.3125 85.4375 41.125 85.375 42.1875C85.3125 43.1875 85.3125 44.0625 85.3125 44.8125C85.3125 45.0625 85.3125 45.375 85.375 45.875C85.375 46.375 85.4375 46.6875 85.4375 46.875C85.4375 48.0625 84.6875 48.6875 83.125 48.8125C78 49.125 74.3125 49.3125 72 49.3125C70.9375 49.3125 69.5625 49.25 67.8125 49.1875C63.1875 48.8125 60.5 48.625 59.875 48.5C59.25 48.375 58.875 47.9375 58.8125 47.3125C58.625 45.9375 58.5625 44.3125 58.5625 42.5C58.5625 41.5 58.6875 39.0625 58.875 35.125C58.9375 33.9375 59.375 32.9375 60 32.1875C60.625 31.5 61.25 30.8125 61.8125 30.0625C62.375 29.3125 63 28.5 63.5625 27.625C64.1875 26.75 64.6875 26 65.0625 25.375C65.4375 24.75 66 23.875 66.6875 22.75C67.375 21.625 67.8125 20.8125 68.125 20.375C68.375 19.9375 68.875 19.0625 69.625 17.6875C70.375 16.3125 70.8125 15.5 71 15.1875C71.25 14.8125 71.3125 14.4375 71.3125 14.0625C71.3125 13.5 70.8125 13.25 69.75 13.25C68.8125 13.25 67.375 13.3125 65.375 13.375C63.375 13.4375 62 13.5 61.125 13.5C60.375 13.5 59.8125 13.4375 59.4375 13.25C59.0625 13.0625 58.875 12.6875 58.8125 12.0625C58.5 8.6875 58.3125 6.4375 58.3125 5.1875C58.3125 4.5 58.3125 3.9375 58.375 3.625C58.4375 3.3125 58.5625 2.9375 58.875 2.625C59.0625 2.375 59.5 2.1875 60 2.1875Z" fill="#FFC0CB"/>
<path d="M100.125 34.875V36.8125C100.125 37.6875 100.188 38.1875 100.375 38.375C100.563 38.5625 101 38.625 101.75 38.625C102.563 38.625 103.437 38.625 104.5 38.5625C105.5 38.5 106.437 38.5 107.312 38.5C107.812 38.5 108.625 38.5 109.75 38.5625C110.875 38.5625 111.688 38.625 112.188 38.625C112.75 38.625 113.125 39.25 113.25 40.4375C113.625 42.75 113.813 45.25 113.813 47.9375C113.813 48.625 113.375 49.125 112.5 49.25C111.875 49.3125 111.375 49.375 111.062 49.375H104.5C98.625 49.375 94.0625 49.1875 90.8125 48.75C89.6875 48.625 89.125 47.875 89.125 46.625C89.0625 45 89.0625 42.25 89.0625 38.4375C89.0625 36.3125 89.125 33.4375 89.25 29.6875C89.375 26 89.4375 23.0625 89.4375 21C89.4375 20.125 89.4375 18.625 89.375 16.5C89.375 14.375 89.3125 12.6875 89.3125 11.5625C89.3125 8.625 89.5 5.75 89.8125 2.8125C89.875 2.0625 90 1.5625 90.1875 1.3125C90.375 1.0625 90.625 1 90.9375 1C92.125 1 93.9375 1 96.4375 1.0625C98.9375 1.0625 100.813 1.125 102.063 1.125C103.188 1.125 104.875 1.125 107.125 1.0625C109.375 1.0625 111 1 112 1C112.875 1 113.375 1.25 113.438 1.8125C113.625 4.4375 113.687 6.25 113.687 7.375V10.5C113.687 11.1875 113.625 11.6875 113.562 11.9375C113.5 12.1875 113.25 12.3125 112.812 12.3125C112.25 12.3125 111.375 12.375 110.25 12.4375C109.125 12.5 108.25 12.5625 107.75 12.5625C107.062 12.5625 105.937 12.5625 104.5 12.625C103.062 12.6875 101.938 12.6875 101.125 12.6875C100.5 12.6875 100.188 12.9375 100.188 13.4375C100.188 14.4375 100.187 15.25 100.25 16C100.25 16.6875 100.312 17.5 100.312 18.4375C100.312 19.1875 100.437 19.6875 100.75 19.875C101.062 20.0625 101.625 20.1875 102.437 20.1875C103.25 20.1875 104.5 20.125 106.125 20.0625C107.75 20 109.063 19.9375 109.875 19.9375C110.313 19.9375 110.625 20 110.688 20.125C110.813 20.25 110.875 20.625 110.875 21.125V27.625V28.1875V29.4375C110.875 30 110.75 30.375 110.5 30.5625C110.25 30.75 109.625 30.8125 108.625 30.875C108.063 30.875 106.875 30.875 105.063 30.9375C103.25 31 102.062 31 101.5 31C101 31.0625 100.687 31.125 100.562 31.25C100.437 31.375 100.375 31.6875 100.375 32.3125V34.875H100.125Z" fill="#FFC0CB"/>
<path d="M152.188 12.4375C153.25 12.4375 154.375 12.75 155.625 13.375C156.813 14 157.75 14.75 158.375 15.625C158.5 15.8125 158.625 16.125 158.813 16.5C159 16.875 159.125 17.25 159.312 17.5C159.5 17.75 159.688 17.875 159.938 17.875C160 17.875 161.625 17.8125 164.813 17.6875C165.438 17.625 166.312 17.5625 167.375 17.5C168.437 17.4375 169.25 17.375 169.813 17.375C170.375 17.3125 170.688 16.875 170.688 16.0625C170.688 15.75 170.625 15.25 170.562 14.5C169.812 10.625 167.562 7.375 163.937 4.5625C160.25 1.8125 156.188 0.4375 151.688 0.4375C147.188 0.4375 143.125 1.6875 139.5 4.125C135.875 6.5625 133.188 9.5625 131.313 13.1875C129.563 16.5 128.688 20.375 128.688 24.875C128.688 29.625 129.187 33.25 130.25 35.6875C132.062 40 134.813 43.375 138.563 45.9375C142.313 48.4375 146.875 49.75 152.375 49.75C157.188 49.75 160.938 48.6875 163.688 46.5625C166.438 44.4375 168.563 41.375 170.125 37.3125C170.5 36.1875 170.75 34.6875 170.75 32.8125C170.75 32.1875 170.438 31.875 169.75 31.875H168.813C167.563 32 165 32.1875 161.063 32.375C160.688 32.375 160.438 32.4375 160.25 32.5C160.062 32.5625 159.875 32.625 159.75 32.625C159.625 32.625 159.563 32.8125 159.5 33C159.438 33.25 159.375 33.375 159.375 33.5C159.375 33.625 159.375 33.8125 159.312 34.1875C159.25 35.3125 158.438 36.3125 157 37.125C155.563 38 154.188 38.375 152.875 38.375C149.188 38.375 146.313 37.125 144.25 34.5625C142.25 32.0625 141.25 28.8125 141.25 24.875C141.25 21.5 142.313 18.625 144.438 16.1875C146.563 13.625 149.125 12.4375 152.188 12.4375Z" fill="#FFC0CB"/>
<path d="M198.563 0.9375C198.438 1.5625 198.25 2.125 198.063 2.75C197.125 5.3125 195.563 7.375 194.125 9.625C193 11.375 191.938 13.25 191.875 15.3125C191.813 17.125 192.438 19 193.188 20.6875C195 24.6875 197.313 28.5 197.188 33.0625C197.063 37.25 195.313 41.125 193.813 45C193.25 46.4375 192.688 47.9375 192.25 49.4375C198.188 49.3125 202.875 46.9375 206.375 42.25C209.938 37.4375 211.75 30.8125 211.75 22.5C211.75 18.6875 210.938 15.0625 209.25 11.625C206.5 6 202.938 2.5 198.563 0.9375Z" fill="#FFC0CB"/>
<path d="M192.562 37.6875C193.188 35.75 193.5 34.125 193.437 32.1875C193.25 28.25 190.625 24.5 189.188 20.75C188.438 18.8125 187.938 16.625 188.188 14.5625C188.438 12.125 189.5 9.9375 190.812 7.9375C192.187 5.8125 194.5 3 195 0.1875C194.375 0.125 193.75 0.0625 193.062 0.0625C187.75 0.0625 183.187 2.375 179.312 7.0625C175.437 11.75 173.5 17.1875 173.5 23.4375C173.5 31.5 175.062 37.8125 178.188 42.5C180.688 46.1875 184.125 48.4375 188.437 49.1875C188.937 47.25 189.625 45.375 190.375 43.5C191.188 41.5 191.938 39.625 192.562 37.6875Z" fill="#FFC0CB"/>
<path d="M240.562 2.6875C240.562 1.375 239.563 0.75 237.625 0.75C235.5 0.75 232.687 0.75 229.312 0.8125C225.937 0.8125 223.125 0.875 221 0.875H219.062C218.25 0.875 217.813 1.0625 217.625 1.375C217.25 2.25 217.062 3.5 217.062 5.125C217.062 5.8125 217.125 6.8125 217.187 8.1875C217.25 9.5625 217.313 10.625 217.313 11.25V15.8125C217.313 23 217.188 30.625 217 38.6875C216.938 40 216.938 41.8125 216.938 44.0625V46.25C216.938 48.0625 217.312 49 218.062 49H220.75H222.375C222.562 49 223 49 223.625 49.0625C224.312 49.125 224.812 49.125 225.25 49.125C226.625 49.125 227.375 48.875 227.375 48.4375C227.625 45.3125 227.75 40.5 227.75 34.0625V33C227.75 32.3125 227.875 31.8125 228.125 31.5C228.375 31.25 228.937 31.125 229.875 31.125C230.437 31.125 231.5 31.0625 233.062 31C234.625 30.9375 235.75 30.875 236.5 30.875C237.187 30.875 237.625 30.75 237.812 30.5C238 30.25 238.125 29.6875 238.125 28.8125C238.125 28.3125 238.125 27.5 238.062 26.4375C238 25.3125 238 24.5 238 24C238 22.875 237.875 22.1875 237.625 21.9375C237.375 21.6875 236.812 21.5625 235.875 21.5625C235.625 21.5625 235 21.5625 234.125 21.625C233.25 21.625 232.625 21.6875 232.25 21.6875H228.875C228.375 21.6875 228.125 21.375 228.125 20.6875V12.8125C228.125 12.5625 228.125 12.3125 228.125 12.1875C228.125 12.0625 228.125 11.9375 228.125 11.75C228.125 11.625 228.188 11.5 228.25 11.4375C228.313 11.375 228.375 11.3125 228.375 11.25C228.375 11.1875 228.5 11.125 228.625 11.125C228.75 11.125 228.875 11.125 228.937 11.0625C229 11.0625 229.188 11 229.438 11C229.688 11 229.875 11 230.062 11C230.625 11 231.875 10.9375 233.937 10.875C236 10.8125 237.625 10.75 238.812 10.75C240 10.75 240.562 10.1875 240.562 9C240.562 8.25 240.562 7.125 240.5 5.75C240.562 4.4375 240.562 3.375 240.562 2.6875Z" fill="#FFC0CB"/>
<path d="M263.125 0.8125H261.875C260.187 0.8125 257.625 0.75 254.125 0.625C250.625 0.5 248 0.4375 246.25 0.4375C244.875 0.4375 244.188 1 244.188 2.0625C244.188 2.375 244.187 2.875 244.25 3.5625C244.25 4.25 244.312 4.8125 244.312 5.25C244.312 7.375 244.312 9.375 244.375 11.3125C244.375 13.25 244.437 15.3125 244.437 17.5C244.437 18.25 244.437 19.375 244.437 20.875C244.437 22.375 244.437 23.5 244.437 24.1875C244.437 33.125 244.5 41.125 244.687 48.1875C244.687 48.5625 244.937 48.8125 245.5 48.8125C246.375 48.8125 247.625 48.8125 249.25 48.875C250.812 48.9375 252 48.9375 252.625 48.9375C254.438 48.9375 255.437 48.5 255.625 47.6875C255.687 47.25 255.75 46.875 255.75 46.5625C255.75 41.125 255.812 37.125 255.937 34.6875C255.937 34.625 255.937 34.4375 256 34.25C256 34.0625 256.062 33.875 256.062 33.8125C256.062 33.75 256.062 33.625 256.125 33.5C256.125 33.375 256.187 33.25 256.25 33.1875C256.312 33.125 256.375 33.0625 256.5 33C256.625 32.9375 256.75 32.9375 256.875 32.9375C257.375 32.9375 258.125 32.875 259.188 32.8125C260.188 32.75 261 32.6875 261.562 32.6875C262.437 32.6875 262.812 32.3125 262.812 31.625C262.812 30.75 262.812 29.375 262.875 27.5C262.875 25.625 262.938 24.25 262.938 23.4375C262.938 23.0625 262.812 22.75 262.5 22.6875C262.187 22.5625 261.562 22.5 260.562 22.5H258.375H257.437C256.937 22.5 256.625 22.4375 256.437 22.25C256.25 22.0625 256.187 21.625 256.187 21C256.187 20.625 256.187 20.0625 256.125 19.25C256.125 18.4375 256.062 17.75 256.062 17.1875V16.375V14.4375C256.062 13.4375 256.062 12.875 256.125 12.625C256.25 11.8125 256.875 11.4375 257.938 11.4375C258.375 11.4375 259.062 11.4375 260 11.5C260.937 11.5625 261.625 11.5625 262.062 11.5625C263.375 11.5625 264.125 11.0625 264.188 10.125C264.5 7.5 264.687 5.8125 264.687 4.875V3.5625C264.625 2.25 264.625 1.5625 264.562 1.4375C264.312 1 263.875 0.8125 263.125 0.8125Z" fill="#FFC0CB"/>
<path d="M280.438 14.4375C280.438 13.0625 280.625 12.375 281.063 12.375C281.438 12.375 282.125 12.4375 283.063 12.5C284 12.5625 284.688 12.625 285.125 12.625C286.125 12.625 287 12.5 287.75 12.25C288.125 12 288.375 11.3125 288.375 10.1875C288.375 9.1875 288.313 7.875 288.25 6.25C288.188 4.625 288.125 3.5625 288.125 3.0625C288.063 2.0625 287.938 1.4375 287.75 1.1875C287.5 1 286.75 0.875 285.375 0.8125C281.688 0.625 278.75 0.625 276.625 0.625C275.938 0.625 274.813 0.625 273.375 0.6875C271.938 0.75 270.875 0.75 270.125 0.75C269.25 0.75 268.75 1 268.563 1.5C268.375 2 268.25 3 268.25 4.5V6.25C268.25 10.5625 268.188 16.6875 268.125 24.5C268.063 32.3125 268 38.25 268 42.3125C268 44.3125 268 45.875 268.063 46.875V46.9375V47C268.063 48.3125 268.625 49 269.75 49H278.813C279.063 49 279.188 49 279.313 48.9375C279.75 49 280.438 49 281.25 49C283.813 49 285.75 48.875 287 48.6875C287.5 48.625 287.812 48.5 288 48.3125C288.188 48.0625 288.25 47.75 288.25 47.25C288.313 45.1875 288.312 42.25 288.312 38.4375C288.312 37.5625 288 37.1875 287.438 37.1875H286.313C285.625 37.1875 284.875 37.1875 284.125 37.125C283.375 37.125 282.688 37.0625 282.188 37.0625H280.875C280.5 37.0625 280.25 36.8125 280.25 36.3125V30.0625C280.25 29.5625 280.75 29.3125 281.75 29.3125H282H282.625C283.375 29.3125 284.813 29.25 287 29.1875C287.875 29.125 288.25 28.6875 288.25 27.9375C288.25 27 288.188 25.875 288.125 24.625C288.063 23.375 288 22.5625 288 22.1875C287.938 20.8125 287.25 20.125 286.063 20.125C285.5 20.125 284.625 20.1875 283.563 20.25C282.5 20.3125 281.688 20.375 281.125 20.375C280.562 20.375 280.313 20.1875 280.313 19.8125C280.313 19.25 280.313 18.375 280.375 17.1875C280.438 16 280.438 15.0625 280.438 14.4375Z" fill="#FFC0CB"/>
<path d="M316.375 40C316.25 38.8125 315.875 38.1875 315.312 38.1875C314.812 38.1875 314 38.1875 312.875 38.125C311.75 38.125 310.938 38.0625 310.438 38.0625C309.563 38.0625 308.688 38.0625 307.625 38.125C306.625 38.1875 305.687 38.1875 304.875 38.1875C304.125 38.1875 303.625 38.125 303.5 37.9375C303.312 37.75 303.25 37.25 303.25 36.375V34.4375V31.875C303.25 31.3125 303.312 30.9375 303.437 30.8125C303.562 30.6875 303.875 30.625 304.375 30.5625C304.937 30.5625 306.125 30.5625 307.938 30.5C309.75 30.4375 310.937 30.4375 311.5 30.4375C312.5 30.375 313.125 30.3125 313.375 30.125C313.625 29.9375 313.75 29.625 313.75 29V27.75V27.1875V20.75C313.75 20.1875 313.688 19.875 313.563 19.75C313.438 19.625 313.187 19.5625 312.75 19.5625C311.875 19.5625 310.625 19.625 309 19.6875C307.312 19.75 306.125 19.8125 305.312 19.8125C304.437 19.8125 303.875 19.6875 303.625 19.5C303.312 19.3125 303.188 18.8125 303.188 18.0625C303.188 17.1875 303.187 16.375 303.125 15.625C303.125 14.9375 303.062 14.0625 303.062 13.0625C303.062 12.5625 303.375 12.3125 304 12.3125C304.812 12.3125 305.937 12.3125 307.375 12.25C308.812 12.1875 309.937 12.1875 310.625 12.1875C311.187 12.1875 312 12.125 313.125 12.0625C314.25 12 315.125 11.9375 315.688 11.9375C316.062 11.9375 316.312 11.8125 316.437 11.5625C316.5 11.3125 316.562 10.8125 316.562 10.125V6.9375C316.562 5.8125 316.5 3.9375 316.312 1.375C316.25 0.8125 315.812 0.5625 314.875 0.5625C313.875 0.5625 312.187 0.5625 310 0.625C307.75 0.625 306.062 0.6875 304.937 0.6875C303.687 0.6875 301.812 0.6875 299.312 0.625C296.812 0.625 295 0.5625 293.812 0.5625C293.438 0.5625 293.187 0.6875 293.062 0.875C292.875 1.125 292.812 1.5625 292.687 2.375C292.375 5.3125 292.187 8.1875 292.187 11.125C292.187 12.3125 292.188 13.9375 292.25 16.125C292.25 18.25 292.313 19.75 292.313 20.625C292.313 22.6875 292.25 25.5625 292.125 29.3125C292 33 291.938 35.9375 291.938 38.0625C291.938 41.875 291.938 44.625 292 46.25C292 47.5625 292.562 48.25 293.687 48.375C296.937 48.75 301.5 49 307.375 49H313.937C314.25 49 314.75 48.9375 315.375 48.875C316.25 48.6875 316.688 48.25 316.688 47.5625C316.938 44.875 316.75 42.375 316.375 40Z" fill="#FFC0CB"/>
</g>
<defs>
<clipPath id="clip0_2004_129">
<rect width="316.938" height="50" fill="white"/>
</clipPath>
</defs>
</svg>
