<svg width="16" height="15" viewBox="0 0 16 15" fill="none" xmlns="http://www.w3.org/2000/svg">
<path d="M7.5245 0.463526C7.67418 0.0028708 8.32588 0.00286996 8.47556 0.463525L9.9084 4.87336C9.97534 5.07937 10.1673 5.21885 10.3839 5.21885H15.0207C15.5051 5.21885 15.7064 5.83865 15.3146 6.12336L11.5634 8.84878C11.3881 8.9761 11.3148 9.20179 11.3817 9.4078L12.8146 13.8176C12.9642 14.2783 12.437 14.6613 12.0451 14.3766L8.29392 11.6512C8.11868 11.5239 7.88138 11.5239 7.70614 11.6512L3.95491 14.3766C3.56306 14.6613 3.03582 14.2783 3.18549 13.8176L4.61833 9.4078C4.68527 9.20179 4.61194 8.9761 4.4367 8.84878L0.685472 6.12336C0.293615 5.83866 0.495002 5.21885 0.979364 5.21885H5.61613C5.83275 5.21885 6.02472 5.07937 6.09166 4.87336L7.5245 0.463526Z" fill="#FFC0CB"/>
</svg>
