<svg width="54" height="54" viewBox="0 0 54 54" fill="none" xmlns="http://www.w3.org/2000/svg">
<circle cx="27" cy="27" r="27" fill="white" fill-opacity="0.2"/>
<path d="M29.4261 20.4898C28.95 20.4018 28.5128 20.7056 28.4222 21.1703C28.3316 21.635 28.6363 22.0887 29.0994 22.1796C30.4937 22.4514 31.5703 23.5307 31.8431 24.9297V24.9307C31.9208 25.3334 32.2754 25.6262 32.6837 25.6262C32.7384 25.6262 32.7932 25.6212 32.849 25.6112C33.3121 25.5183 33.6168 25.0656 33.5262 24.5999C33.1189 22.5104 31.5105 20.8965 29.4261 20.4898Z" fill="white"/>
<path d="M29.3638 17.0079C29.1408 16.976 28.9167 17.0419 28.7384 17.1838C28.5552 17.3277 28.4406 17.5356 28.4157 17.7684C28.363 18.2391 28.7026 18.6648 29.1726 18.7178C32.4143 19.0795 34.9339 21.6048 35.2984 24.8565C35.3472 25.2922 35.7127 25.621 36.1489 25.621C36.1818 25.621 36.2137 25.619 36.2465 25.615C36.4746 25.59 36.6777 25.4771 36.8212 25.2972C36.9636 25.1174 37.0283 24.8935 37.0024 24.6647C36.5483 20.6075 33.4082 17.4586 29.3638 17.0079Z" fill="white"/>
<path fill-rule="evenodd" clip-rule="evenodd" d="M26.0396 27.9724C30.0286 31.9604 30.9336 27.3467 33.4735 29.8848C35.9221 32.3328 37.3294 32.8232 34.2271 35.9247C33.8384 36.237 31.3694 39.9943 22.6924 31.3197C14.0143 22.644 17.7694 20.1724 18.0818 19.7839C21.1917 16.6738 21.6737 18.0894 24.1223 20.5373C26.6622 23.0765 22.0505 23.9844 26.0396 27.9724Z" fill="white"/>
</svg>
