<svg width="20" height="20" viewBox="0 0 20 20" fill="none" xmlns="http://www.w3.org/2000/svg">
<g clip-path="url(#clip0_153_148)">
<path fill-rule="evenodd" clip-rule="evenodd" d="M10 0C7.28464 0 6.94323 0.0119095 5.87535 0.0595474C4.81144 0.107185 4.08496 0.277888 3.44978 0.524017C2.79079 0.778087 2.23501 1.12346 1.67924 1.67924C1.12346 2.23501 0.782057 2.79476 0.524018 3.44978C0.277888 4.08495 0.107185 4.81143 0.0595475 5.87932C0.0119095 6.94323 0 7.28464 0 10C0 12.7154 0.0119095 13.0568 0.0595475 14.1247C0.107185 15.1886 0.277888 15.915 0.524018 16.5542C0.778087 17.2132 1.12346 17.769 1.67924 18.3247C2.23501 18.8805 2.79476 19.2219 3.44978 19.48C4.08496 19.7261 4.81144 19.8968 5.87932 19.9444C6.94721 19.9921 7.28464 20.004 10.004 20.004C12.7233 20.004 13.0607 19.9921 14.1286 19.9444C15.1925 19.8968 15.919 19.7261 16.5582 19.48C17.2172 19.2259 17.7729 18.8805 18.3287 18.3247C18.8845 17.769 19.2259 17.2092 19.4839 16.5542C19.7301 15.919 19.9008 15.1925 19.9484 14.1247C19.996 13.0568 20.0079 12.7193 20.0079 10C20.0079 7.28067 19.996 6.94323 19.9484 5.87535C19.9008 4.81143 19.7301 4.08495 19.4839 3.44581C19.2299 2.78682 18.8845 2.23104 18.3287 1.67527C17.7729 1.11949 17.2132 0.778087 16.5582 0.520048C15.923 0.273918 15.1965 0.103216 14.1286 0.0555776C13.0568 0.0119095 12.7154 0 10 0ZM10.0002 4.86523C7.16578 4.86523 4.86328 7.16376 4.86328 10.0022C4.86328 12.8406 7.16181 15.1391 10.0002 15.1391C12.8387 15.1391 15.1372 12.8406 15.1372 10.0022C15.1372 7.16376 12.8387 4.86523 10.0002 4.86523ZM10.0002 13.3329C8.15824 13.3329 6.66558 11.8402 6.66558 9.99822C6.66558 8.15622 8.15824 6.66357 10.0002 6.66357C11.8422 6.66357 13.3349 8.15622 13.3349 9.99822C13.3349 11.8402 11.8422 13.3329 10.0002 13.3329ZM16.5385 4.65983C16.5385 5.32195 16.0018 5.85871 15.3396 5.85871C14.6775 5.85871 14.1407 5.32195 14.1407 4.65983C14.1407 3.9977 14.6775 3.46094 15.3396 3.46094C16.0018 3.46094 16.5385 3.9977 16.5385 4.65983Z" fill="white"/>
</g>
<defs>
<clipPath id="clip0_153_148">
<rect width="20" height="20" fill="white"/>
</clipPath>
</defs>
</svg>
