<svg width="70" height="70" viewBox="0 0 70 70" fill="none" xmlns="http://www.w3.org/2000/svg">
<g clip-path="url(#clip0_2004_1076)">
<path d="M70 43.8125C69.6901 44.3776 69.198 44.5417 68.5782 44.5235C67.375 44.487 66.1719 44.5417 64.9506 44.5052C64.4766 44.487 64.2943 44.6693 64.1302 45.0886C60.5756 54.7136 53.9401 61.2396 44.1693 64.3933C28.5105 69.4427 11.3204 60.7839 5.90629 45.2162C5.724 44.6693 5.48702 44.4688 4.90369 44.487C3.71879 44.5417 2.5339 44.4688 1.349 44.5052C0.729207 44.5235 0.291707 44.323 -0.0181885 43.7943C-0.0181885 43.5573 -0.0181885 43.3386 -0.0181885 43.1016C0.328166 42.573 0.802124 42.4271 1.44014 42.4271C23.8073 42.4454 46.1745 42.4454 68.5417 42.4271C69.1615 42.4271 69.6537 42.573 69.9818 43.1016C70 43.3568 70 43.5938 70 43.8125ZM7.9115 44.5052C10.8282 53.6927 20.6901 63.737 35.0365 63.7188C49.6928 63.7006 59.336 53.2917 62.0886 44.5052C61.4323 44.5052 60.8125 44.5235 60.1745 44.487C59.7553 44.4688 59.5912 44.6329 59.4271 44.9974C58.4245 47.4401 57.112 49.7006 55.3985 51.7058C54.5235 52.7266 53.5756 53.6745 52.6094 54.6224C52.1537 55.0782 51.5339 55.0235 51.1511 54.6042C50.75 54.1667 50.7865 53.6198 51.224 53.1459C51.3151 53.0547 51.4245 52.9636 51.5157 52.8724C53.375 51.1589 54.9245 49.2084 56.1823 47.0026C56.6198 46.2188 57.0026 45.4167 57.4219 44.5599C42.4193 44.5599 27.5443 44.5599 12.5964 44.5599C12.7422 44.9063 12.8516 45.198 12.9974 45.4714C18.5391 56.9922 32.0105 62.2969 43.9141 57.6302C45.1537 57.1381 46.3204 56.4636 47.5417 55.8802C48.0886 55.6068 48.6355 55.7526 48.9271 56.2266C49.237 56.7188 49.0912 57.2839 48.5808 57.6485C48.4532 57.7396 48.3073 57.8125 48.1797 57.9037C39.0651 63.1537 27.4896 62.4245 19.1042 56.0443C15.2943 53.1459 12.4688 49.5 10.6094 45.1068C10.5183 44.8881 10.2995 44.5782 10.1355 44.5782C9.36983 44.4688 8.6589 44.5052 7.9115 44.5052Z" fill="white"/>
<path d="M0 26.0391C0.309896 25.5104 0.747396 25.3099 1.36719 25.3281C2.625 25.3646 3.86458 25.3281 5.1224 25.3464C5.54167 25.3646 5.70573 25.2005 5.85156 24.8177C9.13281 15.8125 15.1849 9.39585 24.1719 6.04168C33.5599 2.57814 42.638 3.56252 51.2604 8.68491C51.9896 9.12241 52.1901 9.70574 51.8255 10.2526C51.4609 10.7995 50.8958 10.8724 50.1484 10.3985C44.6432 7.00783 38.6458 5.56772 32.2474 6.2422C22.8776 7.22658 15.6224 11.7839 10.5365 19.7318C9.4974 21.3542 8.80469 23.1771 7.96615 24.9089C7.91146 25 7.91146 25.1276 7.875 25.3281C8.64062 25.3281 9.36979 25.3646 10.0807 25.3099C10.263 25.2917 10.4818 25 10.5729 24.7813C12.013 21.3542 14.0729 18.3646 16.7708 15.7943C30.0599 3.0521 52.2266 7.64585 59.3359 24.6354C59.5729 25.1823 59.8281 25.4193 60.4297 25.3464C60.9766 25.2917 61.5234 25.3281 62.1615 25.3281C62.0521 24.9818 61.9609 24.7083 61.8516 24.4531C60.2292 20.3151 57.7682 16.7422 54.5052 13.7162C53.6849 12.9505 53.5573 12.4037 54.0677 11.875C54.5599 11.3646 55.0885 11.4557 55.8906 12.2031C59.6641 15.6849 62.4167 19.8412 64.112 24.6901C64.276 25.1823 64.4948 25.3646 65.0234 25.3464C66.2083 25.3099 67.3932 25.3646 68.5781 25.3281C69.2161 25.3099 69.6901 25.474 70 26.0391C70 26.2761 70 26.4948 70 26.7318C69.6536 27.2604 69.1797 27.4063 68.5417 27.4063C52.8464 27.388 37.151 27.388 21.4557 27.388C21.237 27.388 21 27.388 20.7812 27.3333C20.2526 27.1693 19.9974 26.8047 20.0521 26.2578C20.1068 25.7474 20.4167 25.4375 20.9271 25.3646C21.1823 25.3281 21.4193 25.3464 21.6745 25.3464C33.2682 25.3464 44.862 25.3464 56.4557 25.3464C56.7292 25.3464 57.0026 25.3464 57.4036 25.3464C56.0911 22.2656 54.2865 19.6406 51.9349 17.3985C47.6875 13.3516 42.638 11.0182 36.7865 10.6172C23.9714 9.72397 15.2578 18.3646 12.651 25.3464C13.7813 25.3464 14.8932 25.3464 16.0052 25.3464C16.8073 25.3464 17.263 25.7292 17.263 26.3672C17.263 27.0052 16.8073 27.388 16.0052 27.388C11.1016 27.388 6.21615 27.388 1.3125 27.4063C0.729167 27.4063 0.328125 27.1693 0 26.7318C0 26.4948 0 26.2761 0 26.0391Z" fill="white"/>
<path d="M27.6355 34.5521C27.2162 36.0469 26.7969 37.5234 26.3594 39.0182C26.2865 39.2552 26.2683 39.5833 26.1042 39.7109C25.7579 39.9844 25.3386 40.2943 24.9193 40.3307C24.3907 40.3854 24.0079 39.9661 23.862 39.4375C23.4245 37.9792 22.987 36.5208 22.5678 35.0625C22.5131 34.8984 22.4584 34.7344 22.3308 34.3698C22.0209 36.138 21.7292 37.7057 21.4375 39.2734C21.2917 40.0755 20.6902 40.4766 20.0339 40.2396C19.5235 40.0391 19.3047 39.5469 19.4323 38.7995C19.7605 37.013 20.0704 35.2083 20.3985 33.4219C20.5625 32.5104 20.7266 31.5807 20.9089 30.6693C21.0547 29.9401 21.4922 29.4844 22.112 29.4844C22.8047 29.5026 23.1875 29.8854 23.3698 30.5234C23.8438 32.1641 24.336 33.8047 24.8282 35.4271C24.8829 35.5911 24.9375 35.7552 25.0651 36.0833C25.5756 34.2969 26.0495 32.6745 26.5053 31.0521C26.5599 30.8516 26.6146 30.651 26.6693 30.4687C26.8516 29.849 27.2527 29.5026 27.9089 29.4844C28.5105 29.4844 28.9662 29.9219 29.0938 30.5964C29.6407 33.3854 30.1693 36.1745 30.698 38.9818C30.8256 39.638 30.4792 40.1667 29.8959 40.276C29.2943 40.3854 28.8386 40.0573 28.6928 39.3646C28.4193 37.9792 28.1459 36.5937 27.8907 35.2083C27.8542 34.9896 27.7995 34.7708 27.7448 34.5521C27.7084 34.5521 27.6719 34.5521 27.6355 34.5521Z" fill="white"/>
<path d="M53.8672 34.8984C53.8672 33.513 53.8672 32.1276 53.8672 30.7239C53.8672 29.8489 54.25 29.4843 55.125 29.4661C55.7995 29.4479 56.4922 29.4661 57.1667 29.4661C59.4818 29.4843 61.0677 30.651 61.6875 32.875C62.1433 34.4974 62.1068 36.1198 61.3959 37.6692C60.612 39.3645 59.2631 40.2942 57.3672 40.3489C56.6198 40.3672 55.8724 40.3672 55.1068 40.3672C54.2318 40.3672 53.849 39.9843 53.849 39.1276C53.8672 37.7239 53.8672 36.302 53.8672 34.8984ZM55.9636 38.289C57.3855 38.3619 58.7709 38.4531 59.4818 36.9583C60.1927 35.4453 60.1928 33.8958 59.2631 32.4557C58.4792 31.2343 57.1849 31.4895 55.9636 31.526C55.9636 33.8229 55.9636 36.0286 55.9636 38.289Z" fill="white"/>
<path d="M48.1068 31.5261C48.1068 32.3464 48.1068 33.0756 48.1068 33.9141C48.836 33.9141 49.5287 33.9141 50.2214 33.9141C51.0235 33.9323 51.4974 34.2969 51.4974 34.9167C51.4974 35.5365 51.0235 35.9375 50.2396 35.9558C49.5469 35.974 48.836 35.9558 48.1068 35.9558C48.1068 36.7761 48.1068 37.5052 48.1068 38.3256C48.9454 38.3256 49.7292 38.3256 50.5313 38.3256C51.3334 38.3256 51.8073 38.7266 51.7891 39.3464C51.7891 39.9662 51.2969 40.3672 50.5131 40.3672C49.4375 40.3672 48.3802 40.3672 47.3047 40.3672C46.4115 40.3672 46.0287 40.0209 46.0287 39.1459C46.0105 36.3204 46.0105 33.4948 46.0287 30.6875C46.0287 29.849 46.4115 29.4844 47.2318 29.4662C48.3438 29.448 49.4558 29.448 50.5677 29.4662C51.2969 29.4662 51.7709 29.8855 51.7709 30.487C51.7709 31.0886 51.3151 31.5079 50.586 31.5079C49.7839 31.5261 48.9636 31.5261 48.1068 31.5261Z" fill="white"/>
<path d="M41.4531 31.526C41.4531 34.0417 41.4531 36.4297 41.4531 38.8177C41.4531 39.875 41.1432 40.3672 40.4505 40.3854C39.7396 40.4036 39.3933 39.875 39.3933 38.7812C39.3933 36.6484 39.3933 34.4974 39.3933 32.3646C39.3933 32.1094 39.3933 31.8724 39.3933 31.526C38.9375 31.526 38.5365 31.5443 38.1354 31.526C37.4245 31.5078 37.0052 31.1432 36.987 30.5234C36.9688 29.9219 37.4063 29.4844 38.0807 29.4844C39.6485 29.4661 41.2162 29.4661 42.7839 29.4844C43.4766 29.4844 43.8959 29.9219 43.8776 30.5417C43.8594 31.125 43.4584 31.5078 42.8021 31.526C42.4011 31.5443 41.9636 31.526 41.4531 31.526Z" fill="white"/>
<path d="M10.0442 38.3255C10.7734 38.3255 11.3932 38.3073 11.9948 38.3255C12.7057 38.3437 13.125 38.7266 13.125 39.3281C13.125 39.9297 12.7057 40.349 12.013 40.3672C11.0286 40.3854 10.0625 40.3854 9.07808 40.3672C8.4036 40.349 8.02079 39.9661 8.00256 39.2917C7.98433 36.375 7.98433 33.4766 8.00256 30.5599C8.00256 29.9219 8.44006 29.4844 9.00517 29.4844C9.60673 29.4844 10.026 29.9401 10.0442 30.6693C10.0625 32.9297 10.0442 35.1719 10.0442 37.4323C10.0442 37.6875 10.0442 37.9609 10.0442 38.3255Z" fill="white"/>
<path d="M34.8907 34.9532C34.8907 36.3386 34.8907 37.724 34.8907 39.1094C34.8907 39.8933 34.4896 40.3672 33.8698 40.3672C33.25 40.349 32.849 39.875 32.849 39.0912C32.849 36.3204 32.849 33.5495 32.849 30.7605C32.849 29.9584 33.2318 29.4844 33.8516 29.4662C34.4896 29.448 34.8907 29.9401 34.8907 30.7787C34.8907 32.1823 34.8907 33.5678 34.8907 34.9532Z" fill="white"/>
<path d="M15.2396 34.9349C15.2396 33.5677 15.2396 32.2005 15.2396 30.8516C15.2396 29.9948 15.6042 29.5026 16.2422 29.4844C16.8802 29.4661 17.2813 29.9583 17.2813 30.7969C17.2813 33.5859 17.2813 36.3932 17.2813 39.1823C17.2813 39.9115 16.8438 40.3854 16.2605 40.3672C15.6589 40.3672 15.2761 39.8932 15.2396 39.1458C15.2396 38.9818 15.2396 38.8359 15.2396 38.6719C15.2396 37.4323 15.2396 36.1745 15.2396 34.9349Z" fill="white"/>
<path d="M35.9844 14.5911C35.9844 14.9739 36.0209 15.375 35.9662 15.7578C35.8933 16.3046 35.5287 16.5963 34.9818 16.5963C34.4349 16.5963 34.0521 16.2864 33.9974 15.7395C33.9427 14.9921 33.9427 14.2448 33.9974 13.4974C34.0339 12.9505 34.4349 12.6588 34.9818 12.6588C35.5287 12.6588 35.8933 12.9687 35.9662 13.5156C36.0391 13.8619 36.0026 14.2265 35.9844 14.5911Z" fill="white"/>
<path d="M45.4453 15.5026C46.3932 15.5026 46.8854 16.25 46.539 16.9427C46.2291 17.5807 45.8828 18.1823 45.4817 18.7656C45.1536 19.2578 44.552 19.3489 44.1145 19.039C43.6406 18.7109 43.4948 18.2552 43.7682 17.7265C44.0781 17.125 44.4062 16.5234 44.789 15.9765C44.9713 15.7213 45.3177 15.5755 45.4453 15.5026Z" fill="white"/>
<path d="M24.5912 15.5026C24.7188 15.5937 25.0651 15.7578 25.2474 16.013C25.612 16.5234 25.9219 17.0885 26.2136 17.6536C26.5052 18.2187 26.3412 18.7838 25.8308 19.0573C25.3568 19.3307 24.8099 19.2213 24.4636 18.6927C24.099 18.1276 23.7344 17.5442 23.4428 16.9244C23.1329 16.2317 23.6068 15.5026 24.5912 15.5026Z" fill="white"/>
<path d="M30.7709 15.1381C30.7526 15.8125 30.4792 16.1771 29.9505 16.3047C29.4584 16.4141 29.0391 16.2136 28.8386 15.7396C28.6745 15.3386 28.5469 14.9193 28.4922 14.5C28.4193 13.9714 28.6927 13.5703 29.2214 13.4063C29.7318 13.2605 30.1511 13.4427 30.3698 13.8985C30.5703 14.3177 30.6615 14.7917 30.7709 15.1381Z" fill="white"/>
<path d="M41.5443 14.4817C41.4349 14.8645 41.3438 15.302 41.1615 15.7213C40.9427 16.2317 40.5052 16.4323 39.9766 16.2864C39.4662 16.1406 39.1745 15.7578 39.2474 15.2109C39.3021 14.7916 39.4115 14.3541 39.5938 13.9713C39.7943 13.4974 40.1953 13.2786 40.7057 13.4062C41.2344 13.4974 41.4896 13.8802 41.5443 14.4817Z" fill="white"/>
<path d="M19.724 18.875C20.599 18.8568 21.711 19.9323 21.6198 20.5703C21.5834 20.8802 21.3464 21.2995 21.0912 21.4271C20.7995 21.5547 20.3255 21.5 20.0339 21.3359C19.6875 21.1536 19.3594 20.8255 19.1771 20.4792C19.013 20.1693 18.9766 19.7135 19.086 19.4036C19.1953 19.1484 19.5964 18.9844 19.724 18.875Z" fill="white"/>
<path d="M49.1276 21.573C49 21.4636 48.6172 21.3178 48.4896 21.0443C48.362 20.7709 48.3803 20.2969 48.5261 20.0417C48.7448 19.6589 49.0912 19.3126 49.474 19.0938C49.7474 18.9297 50.2214 18.8933 50.4766 19.0391C50.7318 19.1667 50.9688 19.5678 51.0053 19.8959C51.1146 20.4974 50.0026 21.573 49.1276 21.573Z" fill="white"/>
<path d="M36.0026 55.2605C36.0026 55.6068 36.0391 55.9532 36.0026 56.2813C35.9479 56.8646 35.6016 57.1927 35.0182 57.211C34.4349 57.211 34.0521 56.8828 34.0156 56.2995C33.9609 55.5886 33.9609 54.8776 34.0156 54.1849C34.0521 53.6016 34.4167 53.2735 35 53.2552C35.5833 53.2552 35.9479 53.5834 36.0026 54.1667C36.0391 54.5313 36.0026 54.8959 36.0026 55.2605Z" fill="white"/>
<path d="M24.5547 54.3489C23.6068 54.3307 23.1329 53.6015 23.461 52.9088C23.7526 52.289 24.099 51.7057 24.4818 51.1406C24.8099 50.6302 25.3568 50.5208 25.849 50.7942C26.323 51.0677 26.5235 51.6145 26.25 52.1432C25.9401 52.7447 25.612 53.3463 25.2292 53.8932C25.0287 54.1484 24.6823 54.276 24.5547 54.3489Z" fill="white"/>
<path d="M46.849 53.3281C46.5209 53.7109 46.3203 54.1666 46.0104 54.2578C45.6641 54.3489 45.0807 54.2395 44.8802 53.9843C44.4063 53.401 44.0052 52.7083 43.75 51.9974C43.6406 51.7057 43.8412 51.1224 44.0964 50.9036C44.3333 50.7031 45.0261 50.6849 45.1719 50.8671C45.7917 51.5781 46.2656 52.4166 46.849 53.3281Z" fill="white"/>
<path d="M30.789 54.6588C30.6796 55.0234 30.5703 55.5338 30.3698 55.9713C30.151 56.4271 29.7135 56.5911 29.2213 56.4453C28.7291 56.2995 28.4375 55.9167 28.4921 55.4245C28.5468 54.987 28.6744 54.5312 28.8567 54.112C29.0572 53.638 29.4765 53.4375 29.9869 53.5651C30.4609 53.6562 30.7161 54.0208 30.789 54.6588Z" fill="white"/>
<path d="M40.6875 56.5182C39.5755 56.4088 39.5208 55.6614 39.3203 55.0234C39.1563 54.4583 39.211 53.9114 39.7761 53.6927C40.086 53.5651 40.5781 53.638 40.9063 53.802C41.3438 54.039 41.6901 55.4609 41.4349 55.8619C41.2162 56.1536 40.8698 56.3724 40.6875 56.5182Z" fill="white"/>
<path d="M21.6562 49.0807C21.6562 49.9193 20.6172 51.013 19.9974 50.9583C19.6875 50.9219 19.25 50.7214 19.1224 50.4662C18.9765 50.1745 19.013 49.7005 19.1588 49.4089C19.3411 49.0443 19.6875 48.6979 20.0521 48.5156C20.3437 48.3516 20.8177 48.3333 21.1276 48.4427C21.401 48.5339 21.5469 48.9349 21.6562 49.0807Z" fill="white"/>
<path d="M51.0417 50.0287C51.0053 50.7943 50.1303 51.2682 49.4922 50.8125C49.1094 50.5391 48.7631 50.1927 48.4896 49.8099C48.0521 49.1537 48.5261 48.3151 49.3099 48.2787C50.0026 48.2604 51.0782 49.3542 51.0417 50.0287Z" fill="white"/>
</g>
<defs>
<clipPath id="clip0_2004_1076">
<rect width="70" height="61.8151" fill="white" transform="translate(0 4)"/>
</clipPath>
</defs>
</svg>
