<svg width="70" height="70" viewBox="0 0 70 70" fill="none" xmlns="http://www.w3.org/2000/svg">
<g clip-path="url(#clip0_2004_1065)">
<path d="M7.94331 70C7.19007 69.7773 6.40259 69.6403 5.68359 69.3149C2.1913 67.8248 0.308195 65.1529 0.0342892 61.3848C-0.0513063 60.1688 0.496505 59.6207 1.72908 59.6207C4.46814 59.6207 7.19007 59.6207 9.92913 59.6207C10.1517 59.6207 10.3742 59.6207 10.7166 59.6207C9.79218 58.7301 8.9191 57.9765 8.13162 57.1544C2.75623 51.5537 0.0856465 44.8397 0.0171701 37.0981C-0.0170681 33.3129 0.0171701 29.5277 0.0171701 25.7426C0.0171701 24.4751 0.513624 23.9613 1.79756 23.9613C5.03307 23.9613 8.26858 23.9613 11.5041 23.9613C11.778 23.9613 12.0519 23.9956 12.3087 24.0641C12.8907 24.2182 13.3016 24.8177 13.2674 25.4C13.2331 25.9995 12.7709 26.5476 12.1889 26.6503C11.9149 26.7017 11.641 26.7017 11.3671 26.7017C8.76503 26.7017 6.18005 26.7017 3.57794 26.7017C3.33828 26.7017 3.08149 26.7017 2.80758 26.7017C2.79046 26.9586 2.77335 27.1641 2.77335 27.3525C2.77335 30.6068 2.70487 33.8781 2.79046 37.1323C3.01301 46.7066 7.13872 54.1228 15.1847 59.3295C15.4757 59.5179 15.8523 59.6207 16.1947 59.6207C24.5488 59.6378 32.9201 59.6378 41.2742 59.6207C41.6337 59.6207 42.0446 59.5179 42.3527 59.3124C49.3715 54.8421 53.4116 48.4707 54.5415 40.2495C54.6956 39.1705 54.7127 38.0743 54.7298 36.9782C54.7469 33.8096 54.7298 30.641 54.7298 27.4724C54.7298 27.2498 54.7298 27.0271 54.7298 26.7188C54.3874 26.7188 54.0964 26.7188 53.8054 26.7188C44.9377 26.7188 36.0871 26.7188 27.2194 26.7188C26.9284 26.7188 26.6203 26.7188 26.3292 26.6846C25.6958 26.5989 25.2165 26.0337 25.1994 25.4171C25.1822 24.8177 25.5931 24.2353 26.1752 24.0983C26.4833 24.0298 26.8086 23.9956 27.1167 23.9956C36.5664 23.9956 46.0162 23.9956 55.4659 23.9956C56.9895 23.9956 57.4346 24.4237 57.4346 25.931C57.4346 26.6846 57.4346 27.4211 57.4346 28.2603C57.7599 28.2603 58.0167 28.2603 58.2906 28.2603C61.5775 28.2603 64.8472 28.2774 68.1341 28.2603C68.99 28.2603 69.6577 28.4658 70.0172 29.288C70.0172 33.1245 70.0172 36.9439 70.0172 40.7805C69.9658 40.9689 69.8973 41.1573 69.8631 41.3628C69.0071 47.0834 64.4706 51.6564 58.7699 52.3929C57.058 52.6156 55.329 52.5471 53.6 52.5642C53.1549 52.5642 52.8981 52.7012 52.6584 53.0609C51.1348 55.3902 49.3031 57.4284 47.1803 59.1925C47.0433 59.2953 46.8893 59.3638 46.7352 59.4494C46.7866 59.5179 46.8379 59.5693 46.8893 59.6378C47.1289 59.6378 47.3857 59.6378 47.6254 59.6378C51.4258 59.6378 55.2263 59.6378 59.0267 59.6378C60.2593 59.6378 60.8071 60.1859 60.7215 61.4191C60.4305 65.1871 58.5474 67.859 55.0722 69.3662C54.3532 69.6745 53.5657 69.8287 52.8125 70.0342C37.8333 70 22.8883 70 7.94331 70ZM57.7428 62.3782C39.4938 62.3782 21.2449 62.3782 2.96166 62.3782C2.99589 62.5324 3.01301 62.6694 3.04725 62.7893C3.81761 65.5126 6.317 67.2596 9.43268 67.2596C23.3847 67.2596 37.3539 67.2596 51.306 67.2596C51.7853 67.2596 52.2647 67.2253 52.7269 67.1568C55.192 66.78 57.349 64.7247 57.7428 62.3782ZM54.4901 49.9094C56.1165 49.7724 57.6743 49.8409 59.1294 49.4984C64.0084 48.3851 67.2096 44.2916 67.261 39.2904C67.2781 36.7213 67.261 34.1522 67.261 31.5659C67.261 31.3775 67.2268 31.172 67.2268 30.9836C63.9399 30.9836 60.7215 30.9836 57.486 30.9836C57.486 31.8913 57.486 32.7648 57.486 33.6212C57.5887 33.6383 57.6401 33.6555 57.6743 33.6555C59.4033 33.6555 61.1324 33.6555 62.8614 33.6726C64.0255 33.6897 64.5219 34.1864 64.5219 35.3511C64.5219 36.7384 64.5562 38.1257 64.5048 39.5131C64.4535 41.7225 63.5975 43.5723 61.9541 45.0624C60.362 46.5182 58.4447 47.1005 56.3048 47.0491C56.048 47.0491 55.6542 47.1348 55.5687 47.3061C55.2092 48.111 54.9181 48.916 54.4901 49.9094ZM57.5887 36.4644C57.2977 39.0849 56.9895 41.6711 56.6985 44.2745C57.7428 44.5314 59.5403 43.7435 60.499 42.6988C62.1595 40.8661 61.7486 38.6396 61.7658 36.4644C60.2935 36.4644 58.9069 36.4644 57.5887 36.4644Z" fill="white"/>
<path d="M36.0015 21.2895C34.8717 21.3066 34.1698 20.2618 34.5806 19.4055C34.7518 19.0458 35.0257 18.7204 35.2825 18.3949C36.8917 16.3396 36.9088 14.1302 35.2654 12.092C34.3581 10.9787 33.6391 9.79694 33.4508 8.3411C33.2282 6.62835 33.6733 5.08688 34.6834 3.71668C35.1627 3.06584 35.933 2.91169 36.5493 3.30562C37.1827 3.69955 37.371 4.50454 36.926 5.2239C36.2754 6.21729 35.8646 7.2792 36.2754 8.44386C36.5151 9.11184 36.926 9.74555 37.3539 10.3108C38.2612 11.5097 38.946 12.7942 39.1343 14.3015C39.4767 16.8877 38.4838 18.9773 36.8232 20.827C36.5836 21.0839 36.1727 21.1867 36.0015 21.2895Z" fill="white"/>
<path d="M28.88 12.229C28.9142 10.9102 28.4006 9.8483 27.596 8.88916C26.3635 7.4162 25.6616 5.77196 25.8328 3.81943C25.9526 2.60338 26.3977 1.52435 27.1167 0.565209C27.596 -0.0685073 28.3664 -0.1884 28.9998 0.239787C29.5818 0.633719 29.7188 1.3702 29.3764 2.07243C29.0854 2.65476 28.743 3.2371 28.6061 3.87081C28.3664 4.9841 28.7944 5.94324 29.4449 6.86812C30.1468 7.86151 30.8829 8.90629 31.2595 10.0367C32.0984 12.4859 31.5334 14.7981 29.9756 16.8534C29.7359 17.1789 29.4791 17.5043 29.1881 17.7955C28.7088 18.275 27.9555 18.3435 27.442 17.9667C26.877 17.5557 26.7058 16.8363 27.0482 16.2026C27.2536 15.8429 27.5104 15.5346 27.7672 15.2092C28.4691 14.3186 28.8971 13.3423 28.88 12.229Z" fill="white"/>
<path d="M20.6114 2.98022C21.6899 3.13437 22.2891 4.12777 21.844 5.05265C21.6043 5.51509 21.2962 5.96041 21.125 6.43997C20.697 7.77592 21.0565 8.95771 21.9296 10.0025C23.0937 11.3727 23.8983 12.897 24.0181 14.7297C24.1893 17.196 23.1793 19.1999 21.5359 20.9298C21.1079 21.3923 20.3375 21.3923 19.8411 21.0155C19.2933 20.6215 19.1221 19.9193 19.4473 19.3198C19.6014 19.0287 19.824 18.7546 20.0294 18.4806C21.7242 16.3054 21.7413 14.1645 20.0123 12.0064C19.0536 10.8075 18.3175 9.52292 18.2148 7.96432C18.112 6.35434 18.5571 4.8985 19.5501 3.63107C19.824 3.3399 20.2691 3.20288 20.6114 2.98022Z" fill="white"/>
<path d="M50.8095 38.3827C50.4329 43.8635 48.3615 48.5907 44.5953 52.5814C43.9448 53.2665 43.1573 53.3693 42.541 52.8212C41.9418 52.2902 41.959 51.4853 42.5581 50.7488C42.7464 50.5261 42.9519 50.3035 43.1573 50.0808C45.5368 47.4089 47.0776 44.2917 47.7452 40.7806C47.9506 39.6673 48.0191 38.5198 48.1047 37.3893C48.1903 36.396 48.721 35.7794 49.5256 35.7965C50.3473 35.8307 50.8609 36.4816 50.8438 37.475C50.8438 37.8004 50.8266 38.0916 50.8095 38.3827Z" fill="white"/>
<path d="M40.3326 55.2361C40.3497 55.9897 39.7335 56.6234 38.9631 56.6234C38.2099 56.6234 37.6278 56.0582 37.6107 55.3046C37.5936 54.5681 38.2441 53.9001 38.9802 53.9001C39.6992 53.9001 40.3155 54.5167 40.3326 55.2361Z" fill="white"/>
<path d="M19.5843 23.9785C20.3204 23.9785 20.9367 24.5951 20.9367 25.3145C20.9367 26.0509 20.3376 26.6675 19.6014 26.6675C18.8653 26.6675 18.2319 26.0509 18.2319 25.3316C18.2148 24.6122 18.8482 23.9956 19.5843 23.9785Z" fill="white"/>
</g>
<defs>
<clipPath id="clip0_2004_1065">
<rect width="70" height="70" fill="white"/>
</clipPath>
</defs>
</svg>
