<svg width="70" height="70" viewBox="0 0 70 70" fill="none" xmlns="http://www.w3.org/2000/svg">
<g clip-path="url(#clip0_2004_1029)">
<path d="M17.6575 70C16.3699 69.6302 15.274 68.9726 14.9178 67.6165C14.7397 66.9178 14.7123 66.1233 14.8356 65.411C15.6438 61.0274 16.5206 56.6576 17.3425 52.274C17.5754 51.0685 18.1096 50.0959 19.2192 49.4521C18.8767 48.685 18.5206 47.9589 18.2192 47.2055C17.3562 45.0411 17 42.7808 17 40.4658C17 34.7398 17 29.0274 17.0137 23.3014C17.0137 22.7535 16.8493 22.3699 16.4795 21.9726C14.5754 19.9178 12.6849 17.8356 10.7945 15.7672C10.0685 14.9863 9.78083 14.0959 10.2192 13.0685C10.6575 12.0685 11.4932 11.6713 12.5206 11.6576C13.8219 11.6302 15.1233 11.6576 16.4247 11.6439C16.6438 11.6439 16.863 11.6165 17.1918 11.6028C16.9452 11.3425 16.7945 11.1644 16.6301 10.9863C14.6438 9.00003 12.6575 7.02743 10.6849 5.04112C9.76713 4.12332 9.79453 3.56167 10.7671 2.71236C15.3973 -1.35614 22.1918 -0.794492 26.0137 4.02743C27.5343 5.94523 28.274 8.16441 28.2055 10.6302C28.1918 10.9452 28.2055 11.2603 28.2055 11.6439C30.0274 11.6439 31.7945 11.6576 33.5616 11.6302C33.7534 11.6302 33.9589 11.3699 34.1096 11.1918C36.274 8.43839 39.1233 6.98633 42.6164 7.04112C43.8219 7.05482 45.0411 7.39729 46.2192 7.71236C47.2192 7.98633 47.4384 8.64386 47.0411 9.63017C46.7808 10.274 46.5069 10.9178 46.2192 11.6439C46.9452 11.6439 47.589 11.6302 48.2192 11.6439C50.3973 11.685 51.726 12.8767 52.0137 15.0959C52.726 15.1507 53.4521 15.1644 54.1644 15.274C56.6712 15.6302 58.8767 17.9041 58.9178 20.4384C59 25.0411 59 29.6439 58.9315 34.2466C58.9041 35.8904 58.0685 37.274 56.7397 38.2466C55.3836 39.2466 53.9589 40.1507 52.548 41.0685C52.1507 41.3288 51.9452 41.5891 51.9041 42.0822C51.7397 44.6576 50.9863 47.0822 49.7123 49.3973C51.1644 50.137 51.5206 51.4795 51.7945 52.9041C52.589 57.1507 53.4247 61.3973 54.2329 65.6439C54.6027 67.5617 53.6438 69.1781 51.7808 69.822C51.6575 69.863 51.5343 69.9315 51.411 69.9726C40.1781 70 28.9178 70 17.6575 70ZM19.3562 25.6987C19.3425 25.8904 19.3288 26.0137 19.3288 26.1233C19.3288 31.0411 19.3151 35.9726 19.3425 40.8904C19.3562 43.5343 20.0411 46.0137 21.3288 48.3288C21.6164 48.8356 21.9178 49.0137 22.5069 49C30.1918 48.9726 37.863 48.9863 45.548 48.9863C47.3699 48.9863 47.3836 48.9863 48.1781 47.3562C49.3699 44.9315 49.8082 42.3699 49.6438 39.6439C49.1781 39.6028 48.7397 39.6028 48.3288 39.5069C46.5069 39.1233 44.6438 38.863 42.8904 38.274C39.6301 37.2055 36.9726 35.0959 34.3973 32.9041C31.8767 30.7672 29.411 28.548 26.3288 27.2329C24.1096 26.3151 21.8082 25.8082 19.3562 25.6987ZM19.2877 23.3288C19.5617 23.3562 19.726 23.3836 19.8767 23.3836C24.0959 23.6302 27.9589 24.9452 31.3425 27.4932C33.5753 29.1781 35.6986 31.0137 37.8767 32.7672C40.589 34.9452 43.6027 36.4521 47.0548 37.0137C47.8904 37.1507 48.7534 37.2055 49.6164 37.3151C49.6438 37.1233 49.6575 37.0274 49.6575 36.9452C49.6575 29.7535 49.6575 22.548 49.6575 15.3562C49.6575 14.4521 49.2329 14.0274 48.3151 14C47.6164 13.9726 46.9041 14.0411 46.1918 13.9726C45.4658 13.9041 45.1233 14.1781 44.8493 14.8493C43.3014 18.6576 41.6986 22.4521 40.1096 26.2466C39.7123 27.2055 39.1507 27.4521 38.3014 27.0959C34.2055 25.4247 31.4932 20.7672 32.0822 16.3973C32.1918 15.6028 32.3699 14.8219 32.5343 13.9726C30.9726 13.9726 29.4658 13.9589 27.9726 14C27.7945 14 27.5753 14.2877 27.4521 14.4932C26.7808 15.5206 26.1918 16.5891 25.4658 17.5754C24.7808 18.4795 24.0959 18.4658 23.2877 17.6713C22.2055 16.6028 21.1507 15.4932 20.0411 14.4521C19.7808 14.2055 19.3425 14.0137 18.9863 14.0137C17.5069 13.9589 16.0274 13.9863 14.548 13.9863C13.8767 13.9863 13.1918 13.9863 12.3699 13.9863C12.6164 14.274 12.7534 14.4521 12.8904 14.6028C14.5617 16.4384 16.2192 18.2877 17.9178 20.0959C18.7808 21 19.5343 21.9041 19.2877 23.3288ZM34.4658 67.6713C39.726 67.6713 44.9863 67.6713 50.2603 67.6713C51.7397 67.6713 52.1507 67.1644 51.8767 65.7398C51.0548 61.4521 50.2192 57.1644 49.3973 52.8767C49.1507 51.5617 48.8767 51.3288 47.5206 51.3288C38.8356 51.3288 30.1644 51.3288 21.4795 51.3288C20.137 51.3288 19.8356 51.5617 19.589 52.863C18.7671 57.1507 17.9452 61.4384 17.1233 65.7261C16.8493 67.1644 17.274 67.6713 18.7397 67.6713C23.9863 67.6713 29.2192 67.6713 34.4658 67.6713ZM52.0274 38.6302C53.0548 37.9589 53.9726 37.3425 54.8904 36.7398C56.0822 35.9452 56.6712 34.863 56.6712 33.411C56.6575 29.3425 56.6849 25.2603 56.6575 21.1918C56.6438 18.6302 54.5753 17.0411 52.0274 17.6028C52.0274 24.548 52.0274 31.5069 52.0274 38.6302ZM25.7534 11.6028C26.4521 8.64386 24.6849 5.01373 21.7945 3.39729C18.9452 1.80825 14.9041 2.06852 12.9589 4.00003C13.4932 4.52058 14.0137 5.04112 14.5754 5.58907C16.726 4.34249 18.9041 4.274 21 5.67126C23.0959 7.06852 23.7945 9.15071 23.5069 11.6165C24.3288 11.6028 25.0548 11.6028 25.7534 11.6028ZM37.6575 13.9863C37.0274 13.9863 36.3699 14.0137 35.7123 13.9726C35.2329 13.9452 35.0274 14.137 34.8767 14.5754C33.8904 17.4658 34.274 20.1507 36.1233 22.5617C36.6986 23.3151 37.4932 23.8904 38.2603 24.6165C38.5616 23.9041 38.7397 23.3973 38.9863 22.9178C39.2192 22.4658 39.0959 22.2192 38.726 21.9041C37.1233 20.5343 36.3973 18.7672 36.7671 16.6713C36.9315 15.7809 37.3425 14.9315 37.6575 13.9863ZM44.5343 9.63017C41.6575 8.72606 37.9726 10.1507 37.0274 11.6439C39.1507 11.6439 41.2329 11.6439 43.3288 11.6302C43.4932 11.6302 43.726 11.4932 43.7945 11.3562C44.0548 10.8082 44.274 10.2329 44.5343 9.63017ZM40.1918 20.0137C41.0137 18.0411 41.8356 16.0822 42.6575 14.0959C41.2466 13.9315 39.9041 14.7398 39.3151 16.0548C38.6986 17.4521 39.0274 19.0411 40.1918 20.0137ZM16.1781 7.38359C16.8356 7.98633 17.3699 8.47948 17.8904 8.97263C18.6986 9.76715 19.4932 10.5754 20.3014 11.3699C20.7397 11.7945 21.0685 11.7398 21.1644 11.1918C21.3973 9.83564 21.0411 8.65756 19.9589 7.78085C18.8904 6.93154 17.6849 6.78085 16.1781 7.38359ZM23.1644 14.0274C23.5617 14.4384 23.9589 14.8493 24.3836 15.2877C24.6027 14.9041 24.8356 14.5069 25.1233 14.0274C24.3836 14.0274 23.7671 14.0274 23.1644 14.0274Z" fill="white"/>
<path d="M24 39.6712C24 40.7671 24.0137 41.8493 24 42.9452C23.9863 43.8082 23.5754 44.274 22.8904 44.3014C22.1644 44.3288 21.6849 43.8356 21.6849 42.9589C21.6575 40.7808 21.6712 38.589 21.6849 36.411C21.6849 35.5342 22.1507 35.0137 22.8493 35C23.548 35 24 35.5069 24.0137 36.3973C24.0137 37.4932 24 38.5753 24 39.6712Z" fill="white"/>
<path d="M24 30.9179C24 32.0822 23.6164 32.6576 22.8219 32.6439C22.0411 32.6302 21.6575 32.0548 21.6575 30.8905C21.6575 29.7398 22.0548 29.1644 22.8493 29.1644C23.6301 29.1781 24 29.7398 24 30.9179Z" fill="white"/>
<path d="M34.5069 64.1507C31.6301 64.1507 29.2877 61.8356 29.274 58.9589C29.2603 56.0548 31.6028 53.6986 34.5069 53.6849C37.3973 53.6849 39.7945 56.0959 39.7534 58.9452C39.7123 61.8356 37.3836 64.137 34.5069 64.1507ZM34.4795 56.0137C32.863 56.0274 31.5891 57.3288 31.6028 58.9452C31.6165 60.5479 32.9178 61.8219 34.5343 61.8082C36.137 61.7945 37.4384 60.4795 37.411 58.8767C37.3836 57.2603 36.0959 56 34.4795 56.0137Z" fill="white"/>
<path d="M20.5206 61.8493C20.5069 59.9178 22.0411 58.3699 23.9726 58.3425C25.9315 58.3288 27.5069 59.8904 27.5069 61.8356C27.4932 63.7398 25.9178 65.3288 24.0137 65.3288C22.1096 65.3425 20.5206 63.7535 20.5206 61.8493ZM25.1644 61.863C25.1781 61.2603 24.6713 60.7261 24.0685 60.6987C23.4247 60.6713 22.8767 61.1644 22.863 61.8083C22.8493 62.4384 23.3973 63 24.0274 63C24.6028 62.9863 25.1507 62.4521 25.1644 61.863Z" fill="white"/>
<path d="M41.5206 61.8356C41.5206 59.9178 43.0685 58.3562 45 58.3562C46.9452 58.3425 48.548 59.9452 48.5206 61.8767C48.4932 63.7945 46.9041 65.3562 45 65.3425C43.0822 65.3151 41.5206 63.7397 41.5206 61.8356ZM46.1507 61.863C46.1644 61.2329 45.6987 60.726 45.0685 60.6849C44.411 60.6575 43.8767 61.137 43.863 61.7945C43.8493 62.4384 44.3699 62.9863 45 62.9863C45.6165 62.9863 46.137 62.4795 46.1507 61.863Z" fill="white"/>
<path d="M24.6164 53.685C25.1918 53.685 25.7534 53.6576 26.3288 53.6987C27.0274 53.7398 27.4795 54.1918 27.4932 54.7946C27.5206 55.3973 27.0822 55.9452 26.411 55.9726C25.2055 56.0274 24 56.0274 22.7945 55.9726C22.0959 55.9452 21.6849 55.4384 21.6986 54.8083C21.7123 54.1918 22.1507 53.7535 22.8493 53.685C22.9178 53.6713 22.9863 53.6713 23.0548 53.6713C23.5616 53.6713 24.0822 53.6713 24.6164 53.685C24.6164 53.6713 24.6164 53.6713 24.6164 53.685Z" fill="white"/>
<path d="M44.4658 53.685C45.0411 53.685 45.6027 53.6576 46.1781 53.6987C46.8767 53.7398 47.3151 54.1918 47.3425 54.8082C47.3562 55.4247 46.9315 55.9452 46.2466 55.9726C45.0411 56.0274 43.8356 56.0274 42.6301 55.9726C41.9315 55.9452 41.5343 55.4384 41.548 54.8082C41.5616 54.1781 41.9863 53.7398 42.6986 53.6987C43.274 53.6439 43.863 53.685 44.4658 53.685Z" fill="white"/>
<path d="M34.4795 56.0138C36.0959 56.0001 37.3973 57.2604 37.411 58.8768C37.4384 60.4795 36.137 61.7946 34.5342 61.8083C32.9178 61.822 31.6164 60.548 31.6027 58.9453C31.589 57.3289 32.863 56.0275 34.4795 56.0138Z" fill="#FFC0CB"/>
<path d="M25.1644 61.863C25.1507 62.452 24.6027 63 24.0137 63C23.3836 63 22.8356 62.4383 22.8493 61.8082C22.863 61.1644 23.411 60.6575 24.0548 60.6986C24.6712 60.7123 25.1781 61.2603 25.1644 61.863Z" fill="#FFC0CB"/>
<path d="M46.1507 61.863C46.137 62.4658 45.6165 62.9863 45.0137 62.9863C44.3836 62.9863 43.863 62.4521 43.8767 61.7945C43.8904 61.137 44.4247 60.6576 45.0822 60.685C45.6986 60.7261 46.1644 61.2329 46.1507 61.863Z" fill="#FFC0CB"/>
</g>
<defs>
<clipPath id="clip0_2004_1029">
<rect width="49" height="70" fill="white" transform="translate(10)"/>
</clipPath>
</defs>
</svg>
