<svg width="70" height="70" viewBox="0 0 70 70" fill="none" xmlns="http://www.w3.org/2000/svg">
<g clip-path="url(#clip0_2004_1103)">
<path d="M19.2172 27.5701C19.2172 25.9672 19.2549 24.3643 19.1983 22.7614C19.1795 21.9693 19.4812 21.5167 20.1601 21.1396C22.7624 19.6687 25.3271 18.1601 27.9295 16.6892C28.3443 16.4629 28.4763 16.1989 28.4763 15.7463C28.4575 12.7667 28.4763 9.76836 28.4575 6.76997C28.4575 5.99681 28.7215 5.52536 29.4004 5.12935C32.229 3.5453 35.0388 1.90467 37.8298 0.264048C38.4332 -0.0942494 38.9235 -0.0942494 39.527 0.24519C42.3368 1.90467 45.1655 3.5453 48.013 5.14821C48.6353 5.5065 48.9182 5.94023 48.8993 6.67569C48.8616 9.69293 48.8993 12.7102 48.8804 15.7086C48.8804 16.1611 49.0124 16.4251 49.4273 16.6514C52.0485 18.1412 54.6321 19.6687 57.2533 21.1396C57.9133 21.5167 58.1773 21.9882 58.1585 22.7236C58.1396 25.9483 58.1396 29.173 58.1585 32.3977C58.1585 33.1331 57.9322 33.6234 57.2533 34.0006C54.4246 35.6035 51.6148 37.2253 48.8239 38.8659C48.1827 39.243 47.6547 39.2619 46.9947 38.8659C44.4111 37.3384 41.7899 35.8486 39.1875 34.34C38.8104 34.1137 38.5464 34.1137 38.1692 34.34C35.5857 35.8486 33.0022 37.3195 30.4187 38.8282C29.7398 39.243 29.1741 39.2619 28.4763 38.847C25.6854 37.1875 22.8756 35.5846 20.0469 33.9817C19.4435 33.6423 19.1795 33.2085 19.1983 32.5108C19.236 30.8702 19.2172 29.2107 19.2172 27.5701ZM21.1973 23.9682C21.1973 26.7403 21.1784 29.3804 21.2161 32.0205C21.2161 32.2279 21.4801 32.492 21.6876 32.6051C23.743 33.8309 25.8363 35.0189 27.9106 36.2069C28.0615 36.3012 28.2312 36.3389 28.4763 36.4521C28.4763 36.1315 28.4763 35.9052 28.4763 35.6601C28.4763 33.5857 28.4198 31.5114 28.4952 29.4559C28.5329 28.4941 28.3066 27.8529 27.3826 27.4946C26.8923 27.3061 26.4397 26.9666 25.9683 26.7026C24.4031 25.8163 22.8567 24.93 21.1973 23.9682ZM48.8804 36.5464C51.3131 35.132 53.6137 33.812 55.8955 32.4542C56.0652 32.36 56.1407 31.9828 56.1407 31.7376C56.1595 29.3804 56.1595 27.0232 56.1407 24.6848C56.1407 24.4963 56.103 24.2888 56.0841 24.006C53.708 25.3826 51.4262 26.6838 49.1633 28.0227C49.0124 28.117 48.8804 28.3432 48.8804 28.513C48.8616 31.1342 48.8804 33.7554 48.8804 36.5464ZM31.4182 6.26082C33.8319 7.65629 36.1137 8.99519 38.4144 10.2775C38.5841 10.3718 38.9424 10.2587 39.1687 10.1455C41.2242 8.97633 43.2797 7.78829 45.3352 6.60025C45.5049 6.50597 45.6746 6.37396 45.8821 6.24196C43.5248 4.8842 41.2619 3.56416 38.9801 2.26297C38.8293 2.16868 38.5087 2.16868 38.3578 2.26297C36.076 3.56416 33.7942 4.8842 31.4182 6.26082ZM40.6585 22.2522C43.0534 23.6288 45.2975 24.9489 47.5604 26.2123C47.7678 26.3255 48.145 26.2689 48.3713 26.1557C50.125 25.1751 51.8788 24.1568 53.6137 23.1385C54.0852 22.8556 54.5566 22.5728 55.1412 22.2522C52.7463 20.8567 50.4645 19.5367 48.1638 18.2355C47.9941 18.1412 47.6735 18.2355 47.4661 18.3298C46.6741 18.7446 45.9198 19.2161 45.1466 19.6498C43.6946 20.4984 42.2236 21.347 40.6585 22.2522ZM22.1967 22.2522C24.6105 23.6477 26.8734 24.9677 29.1552 26.25C29.3438 26.3632 29.7398 26.25 29.9661 26.1369C31.6822 25.1751 33.3794 24.1757 35.0954 23.1951C35.5857 22.9122 36.0949 22.6105 36.6606 22.271C36.3966 22.1013 36.2269 21.9882 36.0572 21.875C34.4543 20.951 32.7759 20.1213 31.2673 19.0652C29.9661 18.1601 28.9666 18.1601 27.6466 19.0652C25.9494 20.2344 24.1013 21.1584 22.1967 22.2522ZM37.6789 20.555C37.6789 17.7829 37.6978 15.1428 37.6601 12.5216C37.6601 12.2953 37.3772 12.0124 37.1509 11.8804C35.1143 10.6735 33.0588 9.50435 31.0033 8.31631C30.8524 8.22202 30.6827 8.16545 30.4376 8.0523C30.4376 10.8055 30.4376 13.4456 30.4564 16.1046C30.4564 16.2554 30.6073 16.444 30.7393 16.5194C33.0022 17.8395 35.2651 19.1595 37.6789 20.555ZM39.659 20.5173C39.923 20.3853 40.055 20.3098 40.2059 20.2344C42.2614 19.0464 44.298 17.8583 46.3724 16.6892C46.7684 16.4629 46.9192 16.2177 46.9192 15.7463C46.9004 13.3702 46.9004 10.9941 46.9004 8.63689C46.9004 8.46717 46.8627 8.29745 46.8438 8.01459C44.4677 9.3912 42.1859 10.7112 39.9041 12.0501C39.7721 12.1256 39.6779 12.3519 39.6779 12.5027C39.659 15.124 39.659 17.764 39.659 20.5173ZM30.4376 36.4332C30.6073 36.3955 30.7016 36.3767 30.777 36.3389C32.9833 35.0755 35.1708 33.812 37.3583 32.5297C37.5469 32.4165 37.6789 32.0394 37.6789 31.7942C37.6978 29.3993 37.6978 27.0043 37.6978 24.6094C37.6978 24.4397 37.6601 24.27 37.6412 24.0248C35.284 25.3826 33.0022 26.6838 30.7581 28.0415C30.5884 28.1547 30.4753 28.4941 30.4753 28.7393C30.4564 30.229 30.4564 31.6999 30.4564 33.1897C30.4376 34.2269 30.4376 35.3206 30.4376 36.4332ZM39.7344 24.006C39.6967 24.1757 39.659 24.2511 39.659 24.3077C39.659 26.8535 39.6401 29.3993 39.6779 31.9262C39.6779 32.1525 39.923 32.4542 40.1304 32.5862C42.1859 33.812 44.2791 35 46.3535 36.1881C46.5044 36.2635 46.6741 36.3201 46.9004 36.4144C46.9004 33.7177 46.9004 31.0965 46.8815 28.4941C46.8815 28.3244 46.7684 28.0604 46.6175 27.985C44.3734 26.6838 42.0916 25.3826 39.7344 24.006Z" fill="white"/>
<path d="M49.5781 47.8044C50.8793 47.1633 52.1805 46.5221 53.4817 45.8809C55.2543 45.0135 57.0269 44.1271 58.7807 43.2597C60.4779 42.43 62.2505 42.2225 64.0609 42.7505C65.9278 43.2974 67.0592 44.5609 67.361 46.4844C67.6627 48.3324 67.1347 50.0296 65.494 50.9537C61.5716 53.16 57.6869 55.555 53.5194 57.1956C49.1067 58.9305 44.4111 59.9488 39.8098 61.1369C38.5086 61.4763 37.0943 61.4009 35.7365 61.4197C32.4364 61.4574 29.1551 61.4386 25.855 61.4386C25.5156 61.4386 25.1573 61.4763 24.7424 61.514C25.6665 63.1169 25.1762 64.3427 23.9693 65.4741C22.7058 66.6433 21.5366 67.9068 20.3109 69.1137C19.0851 70.3206 17.6142 70.3206 16.3884 69.1137C11.9003 64.6255 7.41215 60.1374 2.92401 55.6304C1.69825 54.4046 1.69825 52.9337 2.90515 51.708C4.14976 50.4445 5.39437 49.2187 6.63898 47.9553C8.12875 46.4655 9.12821 46.3712 10.882 47.5593C11.6174 46.8804 12.334 46.1826 13.1072 45.5226C15.5776 43.3917 18.2931 41.7134 21.5366 41.0345C25.0253 40.299 28.3066 40.9402 31.4369 42.5242C31.8518 42.7317 32.361 42.8637 32.8324 42.8637C36.1514 42.9014 39.4703 42.8825 42.7893 42.8825C46.146 42.8825 48.3146 44.4289 49.4461 47.597C49.465 47.6536 49.5027 47.6913 49.5781 47.8044ZM12.2586 49.0302C15.8604 52.632 19.4057 56.1961 22.9887 59.7414C23.1018 59.8545 23.3847 59.8545 23.5921 59.8357C24.3841 59.7225 25.1573 59.4962 25.9493 59.4774C28.4951 59.4396 31.0221 59.4019 33.5679 59.4774C37.3394 59.5905 41.0167 59.1568 44.6185 58.0065C48.2769 56.8373 52.0862 56.1207 55.5183 54.2349C58.3658 52.6697 61.2133 51.1422 64.0609 49.577C65.1546 48.9736 65.6449 48.0118 65.4752 46.8992C65.2866 45.6358 64.5134 44.8437 63.2688 44.5609C62.0054 44.278 60.7985 44.4666 59.6481 45.0512C56.4423 46.6352 53.2554 48.2193 50.0495 49.8033C49.8421 49.8976 49.6158 50.0485 49.5215 50.2371C48.8992 51.5571 47.8243 52.0097 46.4289 51.9908C42.3556 51.9531 38.2823 51.972 34.2279 51.972C34.0204 51.972 33.813 51.972 33.5867 51.9531C33.021 51.8965 32.6627 51.5948 32.6438 51.0102C32.625 50.4256 32.9644 50.1051 33.5301 50.0296C33.7942 49.9919 34.0393 50.0108 34.3033 50.0108C38.3955 50.0108 42.4876 50.0108 46.5797 50.0108C47.5415 50.0108 47.862 49.6148 47.6923 48.6719C47.2963 46.4278 45.5048 44.8815 43.2042 44.8626C39.5835 44.8437 35.9628 44.8626 32.3421 44.8437C31.8707 44.8437 31.3615 44.7117 30.9466 44.4854C28.4197 43.1465 25.7607 42.4111 22.8755 42.826C18.4817 43.4483 15.257 45.9941 12.2586 49.0302ZM23.347 63.0603C23.1772 62.834 23.0641 62.6266 22.9132 62.4757C18.4439 58.0065 13.9747 53.5372 9.50536 49.049C9.07163 48.6153 8.71334 48.653 8.29847 49.0679C6.97842 50.4068 5.63952 51.7268 4.31948 53.0657C3.92347 53.4617 3.90461 53.8012 4.31948 54.2161C8.80763 58.7042 13.2958 63.1923 17.7839 67.6805C18.1799 68.0765 18.5194 68.1142 18.9154 67.7182C20.2731 66.3416 21.6498 64.9838 22.9887 63.6261C23.1207 63.4752 23.215 63.2678 23.347 63.0603Z" fill="white"/>
<path d="M21.1972 23.9683C22.8756 24.93 24.4219 25.8163 25.9494 26.7026C26.4208 26.9666 26.8546 27.3061 27.3637 27.4947C28.3066 27.853 28.5329 28.4941 28.4763 29.4559C28.4009 31.5302 28.4575 33.5857 28.4575 35.6601C28.4575 35.8864 28.4575 36.1127 28.4575 36.4521C28.2123 36.339 28.0426 36.2824 27.8917 36.2069C25.8174 35.0189 23.743 33.812 21.6687 32.6051C21.4612 32.492 21.2161 32.2091 21.1972 32.0205C21.1784 29.3804 21.1972 26.7404 21.1972 23.9683Z" fill="#FFC0CB"/>
<path d="M48.8804 36.5463C48.8804 33.7554 48.8804 31.1342 48.8992 28.4941C48.8992 28.3243 49.0501 28.0792 49.1821 28.0038C51.445 26.6649 53.7268 25.3637 56.1029 23.9871C56.1217 24.2699 56.1595 24.4774 56.1595 24.6659C56.1595 27.0232 56.1783 29.3804 56.1595 31.7187C56.1595 31.9639 56.084 32.341 55.9143 32.4353C53.6137 33.8308 51.313 35.1509 48.8804 36.5463Z" fill="#FFC0CB"/>
<path d="M31.4181 6.26082C33.7942 4.88421 36.076 3.56416 38.3577 2.26298C38.5275 2.16869 38.8292 2.16869 38.9801 2.26298C41.2618 3.56416 43.5248 4.88421 45.882 6.24196C45.6746 6.39283 45.5048 6.50597 45.3351 6.60026C43.2796 7.7883 41.243 8.97634 39.1686 10.1455C38.9612 10.2587 38.6029 10.3718 38.4143 10.2775C36.1137 8.9952 33.8319 7.6563 31.4181 6.26082Z" fill="#FFC0CB"/>
<path d="M40.6584 22.2522C42.2425 21.3281 43.6945 20.4984 45.1466 19.6498C45.9198 19.1972 46.6741 18.7446 47.4661 18.3297C47.6735 18.2166 47.9941 18.1412 48.1638 18.2355C50.4645 19.5366 52.7463 20.8567 55.1412 22.2522C54.5755 22.5916 54.0852 22.8745 53.6137 23.1385C51.86 24.1568 50.125 25.1751 48.3713 26.1557C48.145 26.2877 47.7678 26.3254 47.5604 26.2123C45.2975 24.9488 43.0345 23.6476 40.6584 22.2522Z" fill="#FFC0CB"/>
<path d="M22.1967 22.2522C24.1013 21.1584 25.9493 20.2344 27.6465 19.0652C28.9477 18.1601 29.9661 18.1601 31.2672 19.0652C32.7759 20.1213 34.4542 20.951 36.0571 21.875C36.2268 21.9693 36.3965 22.1013 36.6606 22.2711C36.0948 22.6105 35.6045 22.8934 35.0954 23.1951C33.3982 24.1757 31.6821 25.1751 29.9661 26.1369C29.7398 26.2689 29.3437 26.3632 29.1552 26.25C26.8734 24.9677 24.5916 23.6477 22.1967 22.2522Z" fill="#FFC0CB"/>
<path d="M37.6789 20.5549C35.2651 19.1595 33.0022 17.8583 30.7204 16.5194C30.5884 16.4439 30.4376 16.2365 30.4376 16.1045C30.4187 13.4456 30.4187 10.8055 30.4187 8.05225C30.6639 8.16539 30.8336 8.22197 30.9844 8.31625C33.0399 9.50429 35.0954 10.6735 37.1321 11.8804C37.3584 12.0124 37.6412 12.2952 37.6412 12.5215C37.6978 15.1428 37.6789 17.764 37.6789 20.5549Z" fill="#FFC0CB"/>
<path d="M39.6589 20.5172C39.6589 17.764 39.6589 15.1428 39.6778 12.5027C39.6778 12.3518 39.7721 12.1255 39.9041 12.0501C42.1859 10.7112 44.4865 9.39114 46.8437 8.01453C46.8626 8.27853 46.9003 8.44825 46.9003 8.63683C46.9003 11.0129 46.8815 13.389 46.9192 15.7462C46.9192 16.2177 46.7683 16.4628 46.3723 16.6891C44.3168 17.8583 42.2613 19.0463 40.2058 20.2344C40.0738 20.3098 39.9229 20.3852 39.6589 20.5172Z" fill="#FFC0CB"/>
<path d="M30.4375 36.4332C30.4375 35.3017 30.4375 34.2268 30.4375 33.1519C30.4375 31.6622 30.4186 30.1913 30.4563 28.7015C30.4563 28.4563 30.5695 28.0981 30.7392 28.0038C33.0021 26.6649 35.2839 25.3637 37.6223 23.9871C37.6411 24.2322 37.6788 24.4019 37.6788 24.5717C37.6788 26.9666 37.6977 29.3615 37.66 31.7565C37.66 32.0205 37.528 32.3788 37.3394 32.4919C35.1708 33.7931 32.9644 35.0377 30.758 36.3012C30.6826 36.3955 30.5883 36.3955 30.4375 36.4332Z" fill="#FFC0CB"/>
<path d="M39.7343 24.006C42.0915 25.3637 44.3545 26.6838 46.6174 28.0038C46.7494 28.0793 46.8626 28.3433 46.8814 28.513C46.9003 31.1154 46.9003 33.7366 46.9003 36.4332C46.674 36.339 46.5043 36.2824 46.3534 36.207C44.279 35.0189 42.2047 33.812 40.1303 32.6051C39.9229 32.4731 39.6777 32.1714 39.6777 31.9451C39.64 29.3993 39.6589 26.8724 39.6589 24.3266C39.6589 24.2511 39.6966 24.1946 39.7343 24.006Z" fill="#FFC0CB"/>
<path d="M12.2587 49.0302C15.2571 46.0129 18.4817 43.4483 22.8379 42.826C25.7231 42.4111 28.382 43.1466 30.909 44.4855C31.3239 44.7118 31.833 44.8438 32.3045 44.8438C35.9252 44.8815 39.5458 44.8438 43.1665 44.8626C45.4672 44.8815 47.2587 46.409 47.6547 48.6719C47.8244 49.6148 47.5038 49.9919 46.5421 50.0108C42.4499 50.0108 38.3578 50.0108 34.2657 50.0108C34.0017 50.0108 33.7377 50.0108 33.4925 50.0296C32.9268 50.1051 32.5873 50.4257 32.6062 51.0102C32.625 51.5948 32.9645 51.8966 33.5491 51.9531C33.7565 51.972 33.9639 51.972 34.1902 51.972C38.2635 51.972 42.3368 51.9531 46.3912 51.9909C47.7867 52.0097 48.8616 51.5571 49.4839 50.2371C49.5782 50.0485 49.8045 49.9165 50.0119 49.8033C53.1989 48.2193 56.4047 46.6352 59.6105 45.0512C60.7608 44.4855 61.9677 44.278 63.2312 44.5609C64.4758 44.8438 65.249 45.6358 65.4375 46.8993C65.6073 48.0119 65.0981 48.9736 64.0232 49.5771C61.1757 51.1422 58.3282 52.6886 55.4807 54.2349C52.0674 56.1018 48.2393 56.8184 44.5809 58.0065C40.979 59.1568 37.3018 59.5905 33.5302 59.4774C30.9844 59.4019 28.4575 59.4397 25.9117 59.4774C25.1197 59.4962 24.3465 59.7225 23.5545 59.8357C23.3659 59.8545 23.0642 59.8545 22.951 59.7414C19.4058 56.1773 15.8605 52.6132 12.2587 49.0302Z" fill="#FFC0CB"/>
<path d="M23.3469 63.0603C23.2149 63.2678 23.1395 63.4563 22.9886 63.6072C21.6309 64.9838 20.2543 66.3416 18.9154 67.6993C18.5005 68.1142 18.1611 68.0576 17.7839 67.6616C13.2958 63.1735 8.80762 58.6853 4.31947 54.1972C3.92346 53.8012 3.92346 53.4429 4.31947 53.0469C5.65837 51.7268 6.97841 50.3879 8.29846 49.049C8.71333 48.6341 9.07162 48.6153 9.50535 49.0302C13.9746 53.4994 18.4439 57.9687 22.9132 62.4569C23.0641 62.6455 23.1772 62.8529 23.3469 63.0603ZM17.7462 60.9483C16.8976 60.9483 16.2187 61.6083 16.1999 62.438C16.181 63.3055 16.8599 64.0221 17.7273 64.0409C18.5759 64.0409 19.3114 63.3055 19.2925 62.4569C19.2737 61.6271 18.5948 60.9483 17.7462 60.9483Z" fill="#FFC0CB"/>
<path d="M17.7462 60.9482C18.5759 60.9482 19.2736 61.646 19.2925 62.4569C19.3114 63.3055 18.5759 64.0409 17.7273 64.0409C16.8787 64.0409 16.181 63.3055 16.1998 62.438C16.2376 61.6083 16.9164 60.9482 17.7462 60.9482Z" fill="white"/>
</g>
<defs>
<clipPath id="clip0_2004_1103">
<rect width="65.4553" height="70" fill="white" transform="translate(2)"/>
</clipPath>
</defs>
</svg>
