<svg width="70" height="70" viewBox="0 0 70 70" fill="none" xmlns="http://www.w3.org/2000/svg">
<g clip-path="url(#clip0_2032_95)">
<path d="M39.6035 70C37.9629 69.6035 36.8145 68.4961 35.666 67.334C26.0547 57.709 16.4297 48.0976 6.81839 38.4726C4.41214 36.0664 4.39847 33.0312 6.79105 30.625C9.85355 27.5625 12.9024 24.5 15.9785 21.4375C17.3731 20.043 19.0957 19.8105 20.6953 20.8906C25.4805 24.1445 30.6621 24.5683 36.1172 23.1465C37.3887 22.8183 38.6465 22.3808 39.8907 21.9433C41.4629 21.3965 42.8438 21.6562 44.0332 22.8457C50.418 29.2305 56.8028 35.6015 63.1739 41.9863C65.3203 44.1465 65.3477 47.2363 63.2149 49.3828C58.9903 53.6621 54.711 57.9004 50.459 62.1523C49.8985 62.7129 49.2832 62.7539 48.8457 62.3027C48.3946 61.8379 48.4356 61.2773 49.0235 60.6894C53.2207 56.4785 57.4317 52.2676 61.6426 48.0703C62.5586 47.1543 62.9825 46.1015 62.5723 44.8437C62.4082 44.3242 62.0801 43.8047 61.6973 43.4082C55.3535 37.0234 48.9825 30.666 42.625 24.2949C42.0235 23.6933 41.3672 23.5293 40.5743 23.8574C40.2325 23.9941 39.9043 24.1719 39.5489 24.2265C37.6621 24.5547 36.295 25.6621 35.0645 27.0566C34.0528 28.2051 32.9317 29.2305 31.8379 30.3105C30.252 31.8691 28.3379 31.8555 26.7657 30.2969C25.2891 28.834 23.7989 27.3984 22.3907 25.8808C21.8848 25.334 21.625 24.582 21.2696 23.9121C21.2422 23.8574 21.2422 23.7754 21.2149 23.7207C20.627 22.4492 18.2891 22.0117 17.3047 22.9961C14.2559 26.0449 11.2071 29.0801 8.17191 32.1289C6.69535 33.6055 6.68167 35.4101 8.15824 36.8867C18.125 46.8945 28.1055 56.8613 38.086 66.8281C39.5899 68.332 41.3672 68.332 42.8985 66.8281C43.6914 66.0488 44.4707 65.2422 45.2637 64.4629C45.8379 63.8887 46.4258 63.8476 46.877 64.3262C47.3008 64.7637 47.2461 65.3652 46.7266 65.8984C45.8516 66.7871 44.9492 67.6758 44.0742 68.5508C43.295 69.3301 42.2969 69.6992 41.2578 70C40.6973 70 40.1504 70 39.6035 70ZM24.6192 25.2109C25.918 26.5234 27.1895 27.8496 28.502 29.1348C29.0078 29.6269 29.7051 29.5312 30.2793 28.9844C31.045 28.2461 31.7969 27.4805 32.5489 26.7148C32.8086 26.4551 33.0684 26.1953 33.3282 25.9219C30.3477 26.168 27.4766 26.0039 24.6192 25.2109Z" fill="white"/>
<path d="M43.7051 0C44.9902 0.492187 45.8242 1.3125 45.7695 2.78906C45.7559 3.07617 45.7012 3.39063 45.5918 3.65039C43.7461 7.62891 41.3945 11.2109 37.7852 13.8359C35.3652 15.5996 32.6719 16.6797 29.7324 17.1582C28.2832 17.3906 26.9297 16.3789 26.752 14.9297C26.6973 14.4785 26.6973 14.0137 26.7246 13.5625C26.7656 12.9336 27.1484 12.5781 27.7227 12.5645C28.3242 12.5508 28.707 12.9336 28.748 13.6035C28.7754 13.877 28.748 14.1504 28.7617 14.4238C28.7891 14.957 29.0352 15.2305 29.5957 15.1211C29.9922 15.0391 30.3887 14.957 30.7852 14.875C30.7852 12.4277 30.7715 10.0215 30.7852 7.61523C30.7988 5.85156 31.7695 4.56641 33.3555 4.19727C33.6836 4.11523 34.0391 4.11523 34.3672 4.11523C36.377 4.10156 38.373 4.07422 40.3828 4.12891C41.1758 4.14258 41.9687 4.34766 42.9121 4.49805C43.1035 4.10156 43.4316 3.54102 43.6777 2.93945C43.8828 2.44727 43.6094 2.10547 43.0488 2.0918C42.2012 2.06445 41.3672 2.0918 40.5195 2.0918C37.7168 2.0918 34.9141 2.0918 32.1113 2.0918C30.0332 2.0918 28.7617 3.34961 28.748 5.45508C28.7344 6.52148 28.7617 7.60156 28.7344 8.66797C28.7207 9.40625 28.2969 9.87109 27.709 9.85742C27.1348 9.84375 26.7109 9.40625 26.6973 8.70898C26.6836 7.47852 26.6563 6.24805 26.7109 5.01758C26.834 2.57031 28.3242 0.792969 30.7031 0.164063C30.8125 0.136719 30.9082 0.0820313 31.0039 0.0273438C35.2285 0 39.4668 0 43.7051 0ZM32.8359 14.1914C36.7871 12.6328 39.5488 9.91211 41.8047 6.38477C41.4082 6.27539 41.1211 6.13867 40.8203 6.13867C38.5918 6.125 36.3633 6.125 34.1348 6.13867C33.3691 6.13867 32.8633 6.58984 32.8496 7.35547C32.8086 9.58398 32.8359 11.8125 32.8359 14.1914Z" fill="white"/>
<path d="M40.3828 64.9688C39.4941 64.9688 38.7422 64.627 38.1133 64.0117C36.5137 62.4258 34.9004 60.8399 33.3281 59.2266C31.9883 57.8457 31.9883 55.9043 33.3418 54.5098C34.9004 52.9102 36.4727 51.3379 38.0723 49.7793C39.4805 48.3985 41.4219 48.4121 42.8438 49.793C44.416 51.3379 45.9883 52.8965 47.5332 54.4824C48.9277 55.9043 48.9277 57.8731 47.5195 59.2949C45.9883 60.8535 44.4297 62.3985 42.8848 63.9297C42.1328 64.6953 41.3809 64.9824 40.3828 64.9688ZM46.6445 56.875C46.4258 56.5059 46.2891 56.1367 46.0293 55.877C44.5391 54.3457 43.0215 52.8418 41.5039 51.3242C40.8203 50.6543 40.1504 50.6406 39.4668 51.3106C37.9219 52.8281 36.4043 54.3594 34.8867 55.9043C34.2305 56.5606 34.2305 57.2168 34.8867 57.8731C36.4043 59.418 37.9356 60.9356 39.4668 62.4668C40.1231 63.1094 40.8066 63.1231 41.4492 62.4942C43.0078 60.9629 44.5527 59.418 46.084 57.8594C46.3164 57.5996 46.4395 57.2305 46.6445 56.875Z" fill="white"/>
<path d="M26.2324 34.5352C26.2461 35.4512 25.9316 36.2305 25.289 36.8731C23.6894 38.4864 22.0898 40.1133 20.4629 41.6993C19.1094 43.0118 17.1543 42.9981 15.8008 41.6719C14.1875 40.0997 12.5879 38.5001 11.0156 36.8868C9.67576 35.5059 9.70311 33.5372 11.043 32.17C12.6015 30.584 14.1875 28.9981 15.7734 27.4395C17.1406 26.0997 19.1094 26.0723 20.4902 27.4258C22.1035 28.9981 23.6894 30.6114 25.2754 32.211C25.918 32.8399 26.2461 33.6192 26.2324 34.5352ZM24.3183 34.5215C24.0859 34.1387 23.9355 33.7833 23.6894 33.5235C22.1992 31.9922 20.6816 30.4883 19.1504 28.9844C18.4805 28.3145 17.7969 28.3145 17.1269 28.9844C15.6094 30.4883 14.0918 32.0059 12.5879 33.5235C11.918 34.2071 11.9043 34.877 12.5742 35.5606C14.0918 37.1055 15.623 38.6231 17.168 40.1407C17.8242 40.7833 18.4805 40.7833 19.1504 40.1407C20.6953 38.6231 22.2265 37.0919 23.7305 35.5469C23.9629 35.2872 24.0996 34.918 24.3183 34.5215Z" fill="white"/>
<path d="M37.4161 45.7325C37.3887 46.6348 37.0743 47.4278 36.4317 48.0704C34.8458 49.67 33.2598 51.2833 31.6465 52.8555C30.293 54.1817 28.3516 54.1954 26.9844 52.8692C25.3438 51.2833 23.7305 49.67 22.1583 48.043C20.8458 46.6895 20.8594 44.7344 22.1856 43.3809C23.7579 41.7676 25.3575 40.168 26.9708 38.5958C28.3516 37.2559 30.3067 37.2696 31.6876 38.6231C33.2872 40.1817 34.8458 41.7813 36.4317 43.3536C37.0743 44.0098 37.4024 44.8028 37.4161 45.7325ZM35.4747 45.7188C35.2696 45.377 35.1465 44.9942 34.8868 44.7344C33.3692 43.1895 31.838 41.6583 30.3067 40.1407C29.6505 39.4844 28.9805 39.4708 28.3243 40.1133C26.7657 41.6446 25.2208 43.1895 23.6895 44.7481C23.0743 45.377 23.0743 46.0469 23.6895 46.6758C25.2208 48.2344 26.7657 49.7794 28.3243 51.3106C28.9532 51.9258 29.6368 51.9395 30.252 51.338C31.8243 49.793 33.3829 48.2208 34.9278 46.6485C35.1602 46.4161 35.2696 46.0743 35.4747 45.7188Z" fill="white"/>
<path d="M59.7285 45.7324C59.7285 46.6211 59.4278 47.3867 58.7989 48.0156C57.1856 49.6562 55.5723 51.2969 53.918 52.8965C52.6055 54.168 50.6641 54.168 49.3516 52.9101C47.6836 51.2969 46.043 49.6562 44.4297 47.9883C43.1992 46.7031 43.1856 44.7617 44.416 43.4766C46.043 41.7812 47.6973 40.1269 49.3926 38.5C50.6914 37.2559 52.6055 37.2832 53.9043 38.5273C55.5723 40.1406 57.1992 41.7949 58.8399 43.4492C59.4551 44.0781 59.7422 44.8574 59.7285 45.7324ZM51.6485 51.8711C51.9903 51.6797 52.3457 51.5566 52.5918 51.3105C54.1504 49.7793 55.6953 48.2344 57.2266 46.6758C57.8418 46.0469 57.8555 45.3633 57.2403 44.748C55.6953 43.1758 54.1367 41.6172 52.5508 40.0586C51.9492 39.4707 51.2793 39.4707 50.6778 40.0586C49.1055 41.6035 47.5469 43.1621 45.9883 44.748C45.4004 45.3359 45.4004 46.0469 45.9746 46.6211C47.5332 48.207 49.1192 49.793 50.7188 51.3516C50.9512 51.5976 51.3067 51.6933 51.6485 51.8711Z" fill="white"/>
<path d="M40.4649 42.6563C39.5899 42.6426 38.8106 42.3555 38.1817 41.7266C36.5274 40.0859 34.8731 38.4727 33.2598 36.791C32.0293 35.5059 32.0157 33.5645 33.2461 32.2793C34.8731 30.584 36.5274 28.9297 38.2227 27.3027C39.4942 26.0859 41.4082 26.0859 42.6797 27.3027C44.3887 28.9434 46.0703 30.6113 47.6973 32.334C48.8867 33.5781 48.8867 35.4922 47.711 36.7363C46.0703 38.4727 44.375 40.168 42.625 41.7949C42.0782 42.3008 41.2442 42.4922 40.5469 42.8203C40.5332 42.7793 40.4922 42.7246 40.4649 42.6563ZM40.4785 28.3828C40.1367 28.5742 39.7813 28.6699 39.5489 28.8887C37.9492 30.4473 36.377 32.0195 34.8184 33.6191C34.2305 34.2207 34.2442 34.8906 34.8457 35.4922C36.3907 37.0645 37.9629 38.623 39.5352 40.1816C40.1367 40.7695 40.8067 40.7695 41.4082 40.1816C42.9805 38.6367 44.5528 37.0781 46.0977 35.5059C46.6992 34.8906 46.6856 34.1934 46.0703 33.5781C44.5391 32.0195 42.9942 30.4746 41.4219 28.9434C41.1758 28.6973 40.8203 28.5879 40.4785 28.3828Z" fill="white"/>
<path d="M55.2305 7.24611C55.0118 7.71096 54.8614 8.21682 54.5606 8.6133C53.959 9.40627 53.2754 10.1446 52.5919 10.8828C51.4161 12.1543 49.5977 11.8262 48.9278 10.2266C48.5997 9.43361 48.2715 8.62697 47.9981 7.80666C47.4649 6.26174 48.4903 4.85354 50.1172 4.89455C51.1426 4.92189 52.168 4.97658 53.1797 5.05861C54.2872 5.16799 55.0938 6.084 55.2305 7.24611ZM49.8575 6.93166C50.2403 7.91604 50.5684 8.75002 50.9376 9.69338C51.7169 8.79104 52.3868 8.01174 53.1661 7.12307C51.9766 7.05471 50.9922 7.00002 49.8575 6.93166Z" fill="white"/>
<path d="M49.0508 16.2559C49.0371 17.0899 48.7363 17.6914 48.1211 18.0743C47.2324 18.6348 46.3438 19.1817 45.4141 19.6602C44.0605 20.3711 42.5293 19.5508 42.4063 18.0196C42.3242 17.0078 42.3242 15.9688 42.4063 14.9434C42.5293 13.4395 43.9785 12.6328 45.3594 13.2481C46.2344 13.6446 47.082 14.0821 47.9297 14.5196C48.6543 14.916 49.0234 15.5313 49.0508 16.2559ZM44.4707 17.8692C45.3594 17.3496 46.1523 16.8848 47.0137 16.3653C46.1113 15.9278 45.332 15.5313 44.4707 15.1075C44.4707 16.0645 44.4707 16.8848 44.4707 17.8692Z" fill="white"/>
<path d="M24.6191 25.2109C27.4766 25.9902 30.334 26.168 33.3281 25.9219C33.0684 26.1816 32.8086 26.4414 32.5488 26.7148C31.7969 27.4668 31.0449 28.2324 30.2793 28.9844C29.7051 29.5313 29.0078 29.627 28.502 29.1348C27.1895 27.8496 25.918 26.5234 24.6191 25.2109Z" fill="#FFC0CB"/>
<path d="M32.836 14.1914C32.836 11.8125 32.8086 9.58398 32.8496 7.35547C32.8633 6.58984 33.3692 6.13867 34.1348 6.13867C36.3633 6.125 38.5918 6.125 40.8203 6.13867C41.1074 6.13867 41.4082 6.27539 41.8047 6.38477C39.5488 9.92578 36.7871 12.6328 32.836 14.1914Z" fill="#FFC0CB"/>
<path d="M49.8574 6.93164C51.0059 7 51.9902 7.05469 53.1523 7.13672C52.3867 8.02539 51.7031 8.80469 50.9238 9.70703C50.5547 8.75 50.2402 7.90234 49.8574 6.93164Z" fill="#FFC0CB"/>
<path d="M44.4707 17.8691C44.4707 16.8848 44.4707 16.0645 44.4707 15.1211C45.332 15.5449 46.1113 15.9277 47.0137 16.3789C46.1523 16.8848 45.3594 17.3359 44.4707 17.8691Z" fill="#FFC0CB"/>
</g>
<defs>
<clipPath id="clip0_2032_95">
<rect width="59.7871" height="70" fill="white" transform="translate(5)"/>
</clipPath>
</defs>
</svg>
