<svg width="70" height="70" viewBox="0 0 70 70" fill="none" xmlns="http://www.w3.org/2000/svg">
<g clip-path="url(#clip0_2004_1045)">
<g clip-path="url(#clip1_2004_1045)">
<path d="M54.6778 0C54.9517 0 55.2257 0 55.4996 0C55.7918 0.21915 56.1023 0.401774 56.358 0.657449C60.7044 4.98565 65.0326 9.31386 69.3608 13.6603C70.2192 14.5187 70.2192 15.1944 69.3608 16.0527C67.5894 17.8242 65.8179 19.5956 64.0465 21.3671C63.8821 21.5314 63.6082 21.6228 63.316 21.7871C64.4482 22.6637 65.3248 23.3394 66.2014 24.0334C67.0232 24.6726 67.1511 25.0378 66.8589 26.0423C66.4936 27.3206 66.1466 28.5807 65.7631 29.8409C65.6353 30.2426 65.6718 30.5531 65.9275 30.9001C66.7128 31.9958 67.425 33.1281 68.2103 34.2238C68.7034 34.9178 68.7034 35.5387 68.2286 36.2327C67.4433 37.3467 66.6762 38.479 65.9457 39.6478C65.7814 39.9035 65.7266 40.287 65.7996 40.5792C66.1284 41.8576 66.5301 43.1177 66.8954 44.3778C67.2059 45.4553 67.0963 45.784 66.2014 46.4962C65.1787 47.2998 64.1378 48.0668 63.1516 48.9069C62.9142 49.1077 62.7133 49.4913 62.6768 49.8017C62.5855 51.0801 62.5855 52.3585 62.5307 53.6186C62.4759 54.897 62.3115 55.1344 61.1245 55.5544C59.9009 55.9927 58.6773 56.4127 57.472 56.8876C57.2163 56.9789 56.9606 57.2528 56.851 57.5085C56.358 58.7503 55.9014 60.0104 55.4814 61.2888C55.2074 62.1289 54.6778 62.5489 53.783 62.5672C52.4133 62.5854 51.0436 62.622 49.6922 62.7133C49.4182 62.7315 49.0895 62.9142 48.9069 63.1151C48.0668 64.1378 47.2633 65.197 46.4597 66.2197C45.7657 67.1145 45.4187 67.2241 44.3413 66.9137C43.0812 66.5484 41.821 66.1466 40.5427 65.8179C40.2687 65.7449 39.867 65.8179 39.6113 65.964C38.4608 66.6945 37.3467 67.4798 36.1962 68.2285C35.4109 68.7582 34.9909 68.7582 34.2056 68.2103C33.0916 67.4615 31.9776 66.7128 30.8818 65.9275C30.5348 65.6718 30.2244 65.6353 29.8226 65.7631C28.599 66.1466 27.3754 66.4753 26.1519 66.8223C25.0013 67.1511 24.6726 67.0415 23.9238 66.0736C23.2664 65.2152 22.6089 64.3569 21.915 63.462C19.9426 65.4344 18.0433 67.3337 16.144 69.233C15.1579 70.2192 14.5369 70.2192 13.5508 69.233C9.27734 64.9596 5.00393 60.7044 0.748774 56.431C0.456574 56.1388 0.237425 55.7918 -0.0182495 55.4813C-0.0182495 55.2074 -0.0182495 54.9335 -0.0182495 54.6595C0.328737 54.276 0.657461 53.8743 1.02271 53.509C2.44718 52.0663 3.88992 50.6418 5.31439 49.1991C5.51528 48.9799 5.67964 48.6147 5.6979 48.3225C5.75269 47.1719 5.75269 46.0031 5.73442 44.8343C5.73442 44.5239 5.58833 44.1769 5.38744 43.9395C4.47432 42.8985 3.5064 41.8941 2.55676 40.8714C1.93583 40.2139 1.88105 39.7756 2.26456 38.9538C2.84896 37.712 3.45162 36.5067 4.01775 35.2465C4.12733 34.9909 4.12733 34.5891 4.01775 34.3152C3.46988 33.055 2.86722 31.8315 2.30108 30.6079C1.91757 29.7861 1.99062 29.366 2.61154 28.6903C3.52467 27.7042 4.43779 26.718 5.38744 25.7683C5.6979 25.4579 5.77095 25.1474 5.71616 24.7274C5.51528 23.3759 5.36918 22.0245 5.18655 20.6731C5.09524 19.9243 5.36917 19.413 6.04489 19.066C7.25021 18.4268 8.45553 17.7876 9.62433 17.0937C9.89826 16.9293 10.1539 16.5823 10.2087 16.2901C10.5009 15.0117 10.7018 13.6968 10.9575 12.4002C11.1401 11.414 11.4688 11.0853 12.4733 10.9027C13.7699 10.6653 15.0665 10.4461 16.3632 10.1722C16.6554 10.1174 16.9658 9.87999 17.1119 9.62432C17.8059 8.45552 18.4451 7.2502 19.0843 6.04487C19.4495 5.3509 19.9609 5.04044 20.7462 5.15001C22.0611 5.31438 23.376 5.46048 24.6726 5.66136C25.1657 5.73441 25.5309 5.66136 25.8962 5.29611C26.8276 4.36473 27.7955 3.46987 28.7634 2.57501C29.4208 1.95408 29.8409 1.8993 30.6809 2.28281C31.9228 2.84894 33.1464 3.4516 34.3882 3.99948C34.6439 4.10905 35.0457 4.10905 35.3196 3.99948C36.4884 3.48813 37.6207 2.92199 38.7712 2.35586C39.867 1.82625 40.2139 1.88103 41.0905 2.68458C41.401 2.97678 41.7297 3.26898 42.0402 3.56118C42.8437 4.29168 43.556 5.27785 44.5056 5.66136C45.4553 6.04487 46.6606 5.7892 47.7563 5.86225C48.4321 5.91704 48.8886 5.69789 49.3634 5.22306C51.0984 3.46987 52.8881 1.7532 54.6778 0ZM15.0483 66.7676C15.1761 66.5667 15.2857 66.2927 15.4683 66.0918C22.2985 59.2617 29.1286 52.4315 35.9588 45.6014C36.1414 45.4187 36.2875 45.1813 36.5067 45.09C36.8902 44.9439 37.3467 44.743 37.712 44.8343C38.8443 45.0535 39.0817 46.3501 38.2051 47.2267C35.4109 50.0391 32.5985 52.8333 29.8043 55.6457C29.64 55.8101 29.4756 55.9927 29.293 56.1936C35.831 58.239 44.8709 56.9058 51.1714 50.1852C57.3624 43.5925 58.0198 34.79 56.1205 29.2017C55.6457 29.713 55.2257 30.1878 54.7874 30.6261C52.2489 33.1646 49.6922 35.7214 47.1354 38.2599C46.5145 38.8808 45.6744 38.899 45.1265 38.3512C44.5604 37.785 44.5787 36.9997 45.1813 36.3423C45.3092 36.2145 45.437 36.0866 45.5648 35.9588C52.4133 29.1104 59.2617 22.2619 66.1101 15.4318C66.2927 15.2492 66.5302 15.1578 66.658 15.0848C62.695 11.1218 58.8782 7.28672 55.1161 3.52465C37.9311 20.7096 20.6914 37.9677 3.46988 55.1892C7.21368 58.933 11.0123 62.7315 15.0483 66.7676ZM45.9849 8.61988C45.3274 8.58336 44.8891 8.52857 44.4326 8.54683C43.5925 8.58336 42.9533 8.29116 42.3689 7.70676C41.5836 6.90321 40.7253 6.19097 39.94 5.40569C39.6478 5.13175 39.4287 5.07696 39.0634 5.25959C37.9677 5.80746 36.8354 6.31881 35.7579 6.86668C35.137 7.17715 34.5708 7.17715 33.9317 6.86668C32.6716 6.24576 31.3932 5.67962 30.1148 5.07696C29.0556 6.0814 28.0146 7.04931 27.0102 8.01722C26.5536 8.45552 26.0423 8.63814 25.4031 8.52857C24.2343 8.34594 23.0472 8.23637 21.8784 8.05374C21.3671 7.98069 21.0566 8.07201 20.801 8.58336C20.2896 9.62432 19.6869 10.6105 19.1573 11.6514C18.8469 12.2724 18.4086 12.6194 17.6963 12.7472C16.5458 12.9298 15.4135 13.2038 14.2813 13.3681C13.7151 13.4412 13.4777 13.6786 13.3864 14.2265C13.2038 15.4135 12.9298 16.6006 12.7289 17.7876C12.6194 18.4086 12.2906 18.8103 11.761 19.1025C10.7018 19.6687 9.66085 20.2896 8.58337 20.8192C8.10854 21.0566 7.99897 21.3488 8.07202 21.8236C8.23638 22.9924 8.34596 24.1795 8.52858 25.3483C8.63815 26.024 8.45553 26.5354 7.99897 27.0284C7.12237 27.9233 6.2823 28.8547 5.4057 29.7495C5.15003 30.0235 5.09524 30.2244 5.2596 30.5714C5.80747 31.6854 6.31882 32.8359 6.8667 33.9682C7.1589 34.5708 7.1589 35.1187 6.8667 35.7214C6.24577 36.9815 5.64311 38.2599 5.04045 39.5565C6.02662 40.6157 7.04932 41.6384 7.96244 42.7342C8.25464 43.0811 8.41901 43.6108 8.47379 44.0673C8.56511 44.67 8.49206 45.3092 8.49206 46.1127C9.55128 45.0352 10.4644 44.0856 11.414 43.1725C11.7428 42.862 11.7793 42.5881 11.6515 42.1498C10.6835 38.8077 10.3548 35.3926 10.9027 31.9593C12.4367 22.3898 17.7511 15.7605 26.7545 12.2176C31.7584 10.2452 36.9267 10.2087 42.1132 11.6514C42.3689 11.7245 42.789 11.7245 42.9533 11.5784C43.9577 10.6653 44.8891 9.69737 45.9849 8.61988ZM40.3418 14.0804C33.4751 12.2176 24.1065 14.1534 18.0616 21.7689C13.0759 28.0511 12.6742 36.2145 14.1169 40.3052C22.8463 31.5758 31.5941 22.8281 40.3418 14.0804ZM61.5262 23.869C60.5948 24.8004 59.7183 25.7135 58.7869 26.6084C58.4764 26.9006 58.4399 27.1563 58.5677 27.5581C60.4853 33.5481 60.3209 39.5017 57.6546 45.1996C53.509 54.0751 46.4232 58.9147 36.6528 59.7365C33.5481 59.9922 30.5166 59.5356 27.5581 58.5677C27.3389 58.4947 26.9919 58.4399 26.8824 58.5494C25.8597 59.5174 24.8917 60.5218 23.8873 61.508C24.4534 62.2385 25.0013 62.8959 25.4761 63.5899C25.7501 63.9917 26.024 64.0099 26.4441 63.8821C27.5946 63.5351 28.7634 63.2246 29.9139 62.8594C30.5896 62.6402 31.1375 62.7498 31.7036 63.1516C32.7263 63.8821 33.7673 64.5578 34.79 65.2883C35.1005 65.5074 35.3196 65.5074 35.6301 65.2883C36.671 64.5578 37.7485 63.8638 38.7895 63.1333C39.3191 62.7681 39.8487 62.6768 40.4696 62.8776C41.6932 63.2429 42.9168 63.5716 44.1221 63.9734C44.4874 64.083 44.6882 64.0099 44.9074 63.7177C45.6927 62.6768 46.4597 61.6358 47.318 60.6679C47.6285 60.3209 48.1764 60.047 48.6329 59.9922C49.9296 59.8643 51.2262 59.8643 52.5228 59.8461C52.9246 59.8461 53.1255 59.7 53.2533 59.3165C53.6551 58.1111 54.1117 56.9241 54.5317 55.7188C54.7326 55.1344 55.0978 54.7691 55.6822 54.5682C56.8876 54.1482 58.0746 53.7099 59.28 53.2899C59.6635 53.162 59.8096 52.9611 59.8096 52.5594C59.8278 51.2627 59.8278 49.9661 59.9557 48.6695C59.9922 48.2129 60.2844 47.665 60.6314 47.3546C61.5993 46.4962 62.6585 45.7292 63.6812 44.9439C63.9734 44.7248 64.0647 44.5239 63.9369 44.1586C63.5534 42.9533 63.2246 41.7115 62.8411 40.5061C62.6585 39.8852 62.7316 39.3556 63.0968 38.826C63.8273 37.785 64.5213 36.7075 65.2518 35.6666C65.4709 35.3561 65.4709 35.137 65.2518 34.8265C64.5213 33.7855 63.8273 32.7081 63.0785 31.6854C62.7133 31.1558 62.622 30.6261 62.8046 30.0052C63.1699 28.8182 63.4986 27.5946 63.8456 26.4075C63.9551 26.0423 63.9551 25.7866 63.5899 25.5492C62.9507 25.0196 62.2933 24.4717 61.5262 23.869Z" fill="white"/>
<path d="M15.0482 66.7676C11.0122 62.7498 7.21365 58.9512 3.46985 55.1892C20.6913 37.9677 37.9494 20.7096 55.1343 3.52466C58.8781 7.28672 62.7133 11.1036 66.6762 15.0848C66.5484 15.1578 66.2927 15.2674 66.1283 15.4318C59.2799 22.2619 52.4315 29.1104 45.5831 35.9588C45.4552 36.0866 45.3274 36.2145 45.1996 36.3423C44.5969 36.9997 44.5604 37.785 45.1448 38.3512C45.6926 38.899 46.5327 38.8808 47.1536 38.2599C49.7104 35.7214 52.2489 33.1829 54.8056 30.6261C55.2439 30.1878 55.664 29.713 56.1388 29.2017C58.0198 34.7717 57.3806 43.5742 51.1896 50.1852C44.8891 56.9058 35.8309 58.239 29.3112 56.1936C29.4939 55.9927 29.6582 55.8101 29.8226 55.6457C32.6167 52.8333 35.4291 50.0391 38.2233 47.2267C39.0999 46.3319 38.8625 45.0535 37.7302 44.8343C37.365 44.7613 36.9084 44.9439 36.5249 45.09C36.3057 45.1813 36.1596 45.4187 35.977 45.6014C29.1103 52.4133 22.2802 59.2434 15.4683 66.0918C15.2674 66.2745 15.1761 66.5484 15.0482 66.7676ZM35.4474 36.7623C35.6483 37.4928 35.63 38.059 35.21 38.5521C34.5526 39.3739 33.6577 39.6843 32.6533 39.4652C31.6306 39.246 30.9731 38.5703 30.754 37.5476C30.4618 36.1779 31.1923 35.0091 32.5985 34.5526C33.6212 34.2238 34.0595 33.5116 33.749 32.6715C33.4751 31.941 32.7446 31.6488 31.7949 31.9228C28.0329 32.9637 26.6814 37.6389 29.293 40.5427C31.2653 42.7342 34.6621 42.8803 36.8354 40.8714C38.8442 39.0086 38.8077 36.0318 36.7623 33.8586C36.1231 33.1829 35.3926 33.0368 34.7717 33.5664C34.096 34.1508 33.4751 34.79 32.8907 35.4474C32.4158 35.977 32.5072 36.7623 33.0002 37.2554C33.4751 37.7302 34.2421 37.785 34.8082 37.3467C34.9909 37.1824 35.1735 36.9997 35.4474 36.7623ZM20.1252 55.3718C20.1252 52.4315 17.7511 50.0574 14.8291 50.0757C11.9254 50.0939 9.58777 52.468 9.56951 55.3535C9.56951 58.2755 11.9802 60.6679 14.8839 60.6496C17.7876 60.6314 20.1069 58.2938 20.1252 55.3718ZM44.6882 24.7822C43.0446 24.49 41.5288 24.1978 39.9948 23.9238C39.0816 23.7595 38.552 23.9969 38.2416 24.6178C37.9494 25.2205 38.0955 25.7683 38.6981 26.3893C39.2825 26.9737 39.8487 27.5581 40.4331 28.1242C41.6019 29.293 42.7707 30.48 43.976 31.6488C44.743 32.3976 45.857 32.1967 46.2405 31.2653C46.4962 30.6444 46.3136 30.1148 45.857 29.6582C45.1448 28.9643 44.4508 28.2703 43.5925 27.412C44.0308 27.4667 44.2499 27.485 44.4691 27.5215C45.6744 27.7407 46.8797 27.9598 48.1033 28.179C49.0347 28.3433 49.6556 28.1059 49.9843 27.4667C50.3131 26.8093 50.1487 26.1884 49.473 25.5127C47.7928 23.869 46.1309 22.2254 44.4508 20.5818C43.7386 19.8878 42.9168 19.833 42.3324 20.4174C41.748 21.0018 41.821 21.8236 42.515 22.5176C43.209 23.2481 43.9029 23.9603 44.6882 24.7822ZM24.2343 47.6833C24.2525 47.5737 24.2525 47.5007 24.2525 47.4276C24.5995 45.7292 24.0151 44.323 22.6454 43.5742C21.3123 42.8437 19.6869 43.0994 18.4999 44.2499C18.025 44.7065 17.5502 45.1631 17.0936 45.6561C16.4727 46.3136 16.4545 47.0258 17.0754 47.665C18.8834 49.4913 20.6913 51.3175 22.5359 53.1255C23.1568 53.7282 23.9238 53.7464 24.4899 53.1985C25.0561 52.6689 25.0378 51.8289 24.4534 51.1897C24.2525 50.9705 24.0516 50.7514 23.7229 50.4227C24.7639 50.4957 25.6039 50.5688 26.444 50.587C27.2841 50.6053 27.8685 50.0391 27.8868 49.2721C27.905 48.4868 27.3754 47.9207 26.5353 47.8659C25.8048 47.7746 25.0561 47.7381 24.2343 47.6833ZM51.1896 18.5181C52.8515 19.2669 54.3125 19.9426 55.7918 20.5818C56.5588 20.9105 57.3258 20.6001 57.6363 19.9243C57.9285 19.2486 57.6911 18.4633 56.9789 18.1346C54.4586 16.9658 51.9384 15.8336 49.3999 14.7013C48.7973 14.4273 48.1946 14.5552 47.7015 15.0483C47.245 15.5231 47.1354 16.1075 47.3911 16.6919C48.5051 19.2304 49.6373 21.7506 50.7879 24.2708C51.1349 25.0196 51.9384 25.257 52.6324 24.9283C53.3264 24.5813 53.5638 23.8325 53.1985 22.9924C52.5593 21.568 51.9201 20.1252 51.1896 18.5181ZM59.6086 14.3908C59.2799 14.0804 59.0973 13.916 58.9329 13.7516C57.618 12.4367 56.3031 11.1036 54.97 9.80694C54.3673 9.22255 53.5638 9.22255 53.0159 9.75216C52.468 10.2818 52.4498 11.1036 53.0342 11.7062C54.8604 13.5507 56.6866 15.3953 58.5312 17.2032C59.1338 17.8059 59.8461 17.7876 60.4852 17.2032C61.1427 16.5823 61.8001 15.9431 62.4211 15.2674C62.9507 14.7013 62.9324 13.8795 62.4211 13.3499C61.8914 12.802 61.0696 12.802 60.467 13.3681C60.1383 13.6603 59.9008 14.0256 59.6086 14.3908ZM22.9376 40.1774C23.1385 40.5974 23.2116 40.9444 23.4125 41.1636C25.2752 43.0629 27.1563 44.9439 29.0556 46.8067C29.4391 47.1902 29.9869 47.3546 30.4252 47.0441C30.7905 46.7884 31.2105 46.3501 31.2653 45.9301C31.3201 45.51 31.0279 44.9622 30.7174 44.6334C29.0556 42.8985 27.3206 41.2001 25.6222 39.5017C25.4761 39.3556 25.33 39.1365 25.1656 39.1182C24.6908 39.0634 24.143 38.9538 23.7594 39.1182C23.3759 39.3191 23.1933 39.8304 22.9376 40.1774ZM42.8254 34.0412C42.7159 33.8769 42.5698 33.4751 42.3141 33.2012C40.5792 31.4297 38.826 29.6765 37.0728 27.9416C36.3605 27.2293 35.5752 27.1928 34.9726 27.8137C34.4065 28.3981 34.4612 29.1834 35.1369 29.8591C36.0866 30.8088 37.0362 31.7584 37.9859 32.7081C38.826 33.5481 39.6478 34.3882 40.4879 35.21C40.9261 35.6483 41.474 35.7762 42.0584 35.5022C42.5698 35.2648 42.8254 34.8448 42.8254 34.0412ZM41.821 40.4513C41.0723 40.4513 40.4696 41.0175 40.4513 41.7662C40.4331 42.5333 41.0357 43.1725 41.7845 43.1725C42.5332 43.1725 43.1724 42.5333 43.1724 41.7845C43.1724 41.0723 42.5515 40.4696 41.821 40.4513Z" fill="#FFC0CB"/>
<path d="M45.9849 8.61989C44.8891 9.69738 43.9578 10.6653 42.9716 11.5602C42.8072 11.7063 42.3872 11.7063 42.1315 11.6332C36.945 10.1905 31.7767 10.227 26.7728 12.1993C17.7694 15.7423 12.455 22.3533 10.921 31.9411C10.3731 35.3927 10.7018 38.7895 11.6697 42.1315C11.7976 42.5515 11.7428 42.8437 11.4323 43.1542C10.4827 44.0673 9.56954 45.017 8.51032 46.0945C8.51032 45.2909 8.58337 44.6517 8.49206 44.0491C8.41901 43.5925 8.27291 43.0629 7.98071 42.7159C7.04932 41.6202 6.04489 40.5975 5.05872 39.5382C5.67964 38.2416 6.26404 36.9632 6.88496 35.7031C7.17716 35.1005 7.19542 34.5526 6.88496 33.9499C6.33709 32.8359 5.82574 31.6854 5.27787 30.5531C5.09524 30.2061 5.15003 30.0052 5.42396 29.7313C6.30056 28.8364 7.14064 27.9051 8.01723 27.0102C8.4738 26.5354 8.65642 26.0058 8.54684 25.33C8.36422 24.1612 8.25465 22.9742 8.09028 21.8054C8.01723 21.3123 8.12681 21.0201 8.60163 20.801C9.67912 20.2713 10.7201 19.6504 11.7793 19.0843C12.3089 18.7921 12.6376 18.3903 12.7472 17.7694C12.9481 16.5823 13.222 15.4135 13.4047 14.2082C13.496 13.6421 13.7334 13.4229 14.2995 13.3499C15.4501 13.1855 16.5823 12.9116 17.7146 12.7289C18.4086 12.6194 18.8469 12.2541 19.1756 11.6332C19.7052 10.6105 20.3079 9.60607 20.8192 8.56511C21.0749 8.05376 21.3671 7.94418 21.8967 8.0355C23.0655 8.21812 24.2526 8.30943 25.4214 8.51032C26.0788 8.61989 26.5719 8.43727 27.0285 7.99897C28.0512 7.0128 29.0738 6.06315 30.1331 5.05872C31.4114 5.66138 32.6898 6.22751 33.9499 6.84844C34.5708 7.1589 35.137 7.1589 35.7762 6.84844C36.8719 6.30056 38.0042 5.78921 39.0817 5.24134C39.4469 5.05872 39.6661 5.09524 39.9583 5.38744C40.7618 6.17273 41.6202 6.88496 42.3872 7.68851C42.9716 8.29117 43.6108 8.58337 44.4508 8.52858C44.8891 8.51032 45.3457 8.58337 45.9849 8.61989Z" fill="#FFC0CB"/>
<path d="M40.3418 14.0804C31.5941 22.8281 22.8463 31.5758 14.1352 40.287C12.6924 36.1962 13.0942 28.0329 18.0798 21.7506C24.1065 14.1534 33.4934 12.2176 40.3418 14.0804Z" fill="#FFC0CB"/>
<path d="M61.5262 23.869C62.2932 24.4534 62.9507 25.0196 63.6629 25.5126C64.0282 25.7683 64.0282 26.024 63.9186 26.371C63.5533 27.5763 63.2429 28.7816 62.8776 29.9687C62.6767 30.5896 62.768 31.1192 63.1516 31.6488C63.8821 32.6898 64.576 33.7673 65.3248 34.79C65.5439 35.1004 65.5439 35.3196 65.3248 35.63C64.5943 36.671 63.9003 37.7485 63.1698 38.7894C62.8046 39.3191 62.7133 39.8487 62.9142 40.4696C63.2794 41.6932 63.6081 42.9168 64.0099 44.1221C64.1377 44.4873 64.0464 44.6882 63.7542 44.9074C62.7133 45.6927 61.6723 46.4597 60.7044 47.318C60.3574 47.6285 60.0835 48.1763 60.0287 48.6329C59.9008 49.9295 59.9008 51.2262 59.8826 52.5228C59.8826 52.9246 59.7365 53.1255 59.353 53.2533C58.1476 53.6551 56.9606 54.1117 55.7553 54.5317C55.1709 54.7326 54.8056 55.0978 54.6047 55.6822C54.1847 56.8875 53.7281 58.0746 53.3264 59.2799C53.1985 59.6634 52.9976 59.8095 52.5959 59.8095C51.2992 59.8278 50.0026 59.8278 48.706 59.9556C48.2494 60.0104 47.7015 60.2844 47.3911 60.6313C46.5327 61.5993 45.7657 62.6585 44.9804 63.6812C44.7613 63.9916 44.5604 64.0647 44.1951 63.9369C42.9898 63.5533 41.748 63.2246 40.5426 62.8411C39.9217 62.6585 39.3921 62.7315 38.8625 63.0968C37.8215 63.8273 36.744 64.5212 35.7031 65.2517C35.3926 65.4709 35.1735 65.4709 34.863 65.2517C33.8403 64.5212 32.7811 63.8455 31.7767 63.115C31.2105 62.7133 30.6444 62.622 29.9869 62.8228C28.8364 63.1881 27.6676 63.4803 26.5171 63.8455C26.097 63.9734 25.8231 63.9551 25.5492 63.5533C25.0743 62.8594 24.5265 62.2019 23.9603 61.4714C24.9465 60.467 25.9327 59.4625 26.9554 58.5129C27.0832 58.4033 27.4302 58.4581 27.6311 58.5312C30.5896 59.4991 33.6212 59.9556 36.7258 59.7C46.4962 58.8782 53.582 54.0386 57.7276 45.163C60.3939 39.4652 60.5583 33.5116 58.6407 27.5215C58.5129 27.1197 58.5494 26.8641 58.8599 26.5719C59.7 25.7318 60.5948 24.8187 61.5262 23.869Z" fill="#FFC0CB"/>
<path d="M35.4475 36.7623C35.1735 36.9998 34.9909 37.1824 34.79 37.3285C34.2421 37.7485 33.4569 37.712 32.982 37.2372C32.4889 36.7441 32.4159 35.9588 32.8725 35.4292C33.4569 34.7717 34.096 34.1326 34.7535 33.5482C35.3744 33.0185 36.1049 33.1464 36.7441 33.8404C38.7895 36.0136 38.8078 39.0086 36.8171 40.8531C34.6439 42.862 31.2471 42.7159 29.2747 40.5244C26.6632 37.6207 28.0146 32.9455 31.7767 31.9045C32.7081 31.6489 33.4568 31.9411 33.7308 32.6533C34.0412 33.4934 33.6029 34.2056 32.5803 34.5343C31.174 34.9726 30.4435 36.1597 30.7357 37.5294C30.9549 38.5703 31.6306 39.2278 32.635 39.4469C33.6395 39.6661 34.5343 39.3739 35.1918 38.5338C35.6118 38.059 35.6301 37.4928 35.4475 36.7623Z" fill="white"/>
<path d="M20.1252 55.3718C20.1252 58.2938 17.8059 60.6314 14.8839 60.6496C11.9802 60.6679 9.56952 58.2755 9.56952 55.3535C9.56952 52.468 11.9254 50.0939 14.8291 50.0757C17.7511 50.0574 20.1252 52.4315 20.1252 55.3718ZM17.3859 55.3535C17.3859 53.9656 16.2901 52.8333 14.8839 52.815C13.4777 52.7968 12.3089 53.9473 12.3089 55.3535C12.3089 56.7232 13.4412 57.8737 14.8108 57.892C16.2171 57.9285 17.3859 56.778 17.3859 55.3535Z" fill="white"/>
<path d="M44.6883 24.7821C43.903 23.9786 43.209 23.2481 42.515 22.5358C41.8211 21.8236 41.748 21.0201 42.3324 20.4357C42.9168 19.8513 43.7203 19.8878 44.4508 20.6C46.131 22.2436 47.8111 23.8873 49.473 25.5309C50.1487 26.2066 50.3131 26.8275 49.9844 27.485C49.6739 28.1242 49.0347 28.3616 48.1033 28.1972C46.898 27.9781 45.6927 27.7589 44.4691 27.5398C44.25 27.5032 44.0308 27.485 43.5925 27.4302C44.4508 28.2703 45.1448 28.9825 45.8571 29.6765C46.3319 30.133 46.4962 30.6809 46.2406 31.2836C45.8753 32.2149 44.743 32.4158 43.976 31.6671C42.789 30.5165 41.6202 29.3295 40.4331 28.1424C39.8487 27.558 39.2643 26.9919 38.6982 26.4075C38.0772 25.7866 37.9494 25.2387 38.2416 24.636C38.5521 24.0151 39.0817 23.7777 39.9948 23.9421C41.5289 24.1977 43.0446 24.4717 44.6883 24.7821Z" fill="white"/>
<path d="M24.2343 47.6833C25.0561 47.7381 25.8049 47.7928 26.5536 47.8476C27.3937 47.9207 27.9233 48.4686 27.9051 49.2538C27.8868 50.0209 27.3024 50.587 26.4623 50.5687C25.6222 50.5505 24.7822 50.4774 23.7412 50.4044C24.0517 50.7331 24.2708 50.9522 24.4717 51.1714C25.0561 51.8106 25.0744 52.6507 24.5082 53.1803C23.9421 53.7099 23.1751 53.7099 22.5542 53.1072C20.7279 51.2992 18.9017 49.4912 17.0937 47.6467C16.4728 47.0258 16.5093 46.2953 17.1119 45.6379C17.5685 45.163 18.0251 44.6882 18.5182 44.2317C19.7052 43.0994 21.3306 42.8437 22.6637 43.5559C24.0334 44.3047 24.6178 45.6927 24.2708 47.4093C24.2526 47.5006 24.2526 47.5554 24.2343 47.6833ZM21.0384 47.7563C21.2575 47.1719 21.4584 46.7519 21.568 46.3136C21.5862 46.2223 21.2027 45.9301 21.1114 45.9666C20.7096 46.1127 20.3444 46.3684 19.9061 46.6058C20.3079 46.9893 20.5635 47.2632 21.0384 47.7563Z" fill="white"/>
<path d="M51.1897 18.5181C51.9019 20.1252 52.5593 21.5679 53.1985 23.0289C53.5638 23.869 53.3264 24.6177 52.6324 24.9647C51.9384 25.3117 51.1349 25.056 50.7879 24.3073C49.6373 21.7871 48.5051 19.2486 47.3911 16.7284C47.1354 16.144 47.245 15.5596 47.7015 15.0847C48.1764 14.5917 48.779 14.4638 49.3999 14.7378C51.9384 15.8518 54.4586 17.0023 56.9789 18.1711C57.6911 18.4998 57.9468 19.2851 57.6363 19.9608C57.3258 20.6548 56.5588 20.947 55.7918 20.6183C54.3125 19.9426 52.8515 19.2668 51.1897 18.5181Z" fill="white"/>
<path d="M59.6086 14.3909C59.9008 14.0256 60.1382 13.6604 60.4487 13.3682C61.0514 12.802 61.8732 12.8203 62.4028 13.3499C62.9141 13.8613 62.9324 14.6831 62.4028 15.2675C61.7819 15.9249 61.1427 16.5824 60.467 17.2033C59.846 17.7877 59.1155 17.8059 58.5129 17.2033C56.6684 15.377 54.8421 13.5508 53.0159 11.7063C52.4315 11.1219 52.4498 10.3001 52.9976 9.7522C53.5455 9.20433 54.349 9.20433 54.9517 9.80699C56.2849 11.1036 57.5998 12.4368 58.9147 13.7517C59.1155 13.916 59.2982 14.0804 59.6086 14.3909Z" fill="white"/>
<path d="M22.9376 40.1774C23.1933 39.8304 23.3942 39.3008 23.7412 39.1364C24.1247 38.9538 24.6726 39.0634 25.1474 39.1364C25.3117 39.1547 25.4578 39.3739 25.6039 39.52C27.3023 41.2184 29.0373 42.9168 30.6992 44.6517C31.0096 44.9804 31.2836 45.5283 31.247 45.9483C31.1923 46.3501 30.7905 46.8067 30.407 47.0624C29.9687 47.3545 29.4208 47.2084 29.0373 46.8249C27.138 44.9622 25.257 43.0811 23.3942 41.1818C23.1933 40.9627 23.1202 40.6157 22.9376 40.1774Z" fill="white"/>
<path d="M42.8255 34.0412C42.8255 34.8447 42.5698 35.283 42.0402 35.5205C41.4558 35.7944 40.9262 35.6483 40.4696 35.2283C39.6295 34.4064 38.7895 33.5664 37.9676 32.7263C37.018 31.7766 36.0684 30.827 35.1187 29.8774C34.4613 29.2016 34.3882 28.3981 34.9543 27.832C35.557 27.211 36.3423 27.2476 37.0545 27.9598C38.8077 29.713 40.5792 31.4479 42.2958 33.2194C42.5698 33.4751 42.7159 33.8586 42.8255 34.0412Z" fill="white"/>
<path d="M41.821 40.4513C42.5515 40.4513 43.1542 41.054 43.1725 41.7845C43.1907 42.5332 42.5333 43.1724 41.7845 43.1724C41.0358 43.1724 40.4148 42.515 40.4514 41.7662C40.4879 41.0174 41.0723 40.4513 41.821 40.4513Z" fill="white"/>
<path d="M17.3858 55.3535C17.3858 56.778 16.2353 57.9285 14.8291 57.892C13.4412 57.8737 12.3271 56.7232 12.3271 55.3535C12.3271 53.9473 13.4959 52.7968 14.9022 52.815C16.2718 52.8516 17.3676 53.9656 17.3858 55.3535Z" fill="#FFC0CB"/>
<path d="M21.0384 47.7563C20.5635 47.2632 20.2896 46.9892 19.8878 46.5875C20.3261 46.3501 20.6914 46.0944 21.0931 45.9483C21.2027 45.9118 21.5862 46.2222 21.5497 46.2953C21.4584 46.7518 21.2758 47.1719 21.0384 47.7563Z" fill="#FFC0CB"/>
</g>
</g>
<defs>
<clipPath id="clip0_2004_1045">
<rect width="70" height="70" fill="white"/>
</clipPath>
<clipPath id="clip1_2004_1045">
<rect width="70" height="70" fill="white"/>
</clipPath>
</defs>
</svg>
