<svg width="70" height="70" viewBox="0 0 70 70" fill="none" xmlns="http://www.w3.org/2000/svg">
<g clip-path="url(#clip0_2004_1008)">
<path d="M41.8984 47.4208C42.576 47.4208 43.2912 47.4208 44.0065 47.4208C47.1874 47.4585 49.6155 49.8899 49.672 53.0563C49.7096 54.941 49.559 56.807 50.0672 58.6729C50.7448 61.1984 52.0436 63.3282 54.0387 65.0245C54.2081 65.1753 54.3963 65.3261 54.5657 65.4957C55.3186 66.3061 55.5445 67.2674 55.1304 68.304C54.7163 69.3406 53.9258 69.8872 52.8153 70.0003C52.6459 70.0191 52.4953 70.0003 52.3259 70.0003C37.7951 70.0003 23.2455 70.0003 8.71471 70.0003C8.41355 70.0003 8.09357 70.0003 7.81124 69.9249C6.75719 69.6799 6.07959 69.0202 5.79726 67.9647C5.53375 66.9093 5.91019 66.0611 6.66308 65.2884C7.60419 64.3271 8.56413 63.4036 9.33584 62.3105C10.691 60.388 11.2934 58.164 11.3498 55.808C11.3875 54.5264 11.2934 53.2071 11.5004 51.9443C11.9145 49.381 14.192 47.4962 16.7895 47.4208C17.58 47.402 18.3705 47.4208 19.274 47.4208C19.1422 47.1758 19.0481 47.025 18.954 46.8743C14.4931 40.1457 11.7639 32.7763 10.6722 24.766C10.6158 24.3514 10.4652 24.1818 10.0699 24.031C5.1573 22.297 2.08927 18.7348 0.225867 14.0417C-0.075289 13.2501 0.0752891 12.2889 0 11.29C0.338801 11.29 0.58349 11.29 0.82818 11.29C3.83974 11.29 6.83248 11.29 9.84404 11.29C10.2393 11.29 10.4464 11.1958 10.6534 10.8188C11.2934 9.6314 12.3474 9.02828 13.7026 9.02828C16.6389 9.02828 19.5752 9.02828 22.5679 9.02828C22.5679 8.29322 22.5679 7.57702 22.5679 6.76657C21.9091 6.76657 21.2315 6.76657 20.5539 6.76657C18.9352 6.74772 17.9376 5.63571 18.1258 4.01482C18.3894 1.77195 20.2528 0.0191266 22.5114 0.000278963C27.8381 -0.0185686 33.1837 -0.0374162 38.5104 0.000278963C40.9196 0.0379742 42.8959 2.07352 42.9148 4.44831C42.9148 5.7488 41.9736 6.74772 40.6749 6.78542C39.9408 6.80426 39.2256 6.78542 38.4539 6.78542C38.4539 7.53932 38.4539 8.25553 38.4539 9.04713C38.7174 9.04713 38.9621 9.04713 39.2068 9.04713C41.8607 9.04713 44.5147 9.04713 47.1686 9.04713C48.6367 9.04713 49.7284 9.65025 50.4625 10.9507C50.5754 11.1392 50.933 11.29 51.1777 11.29C54.5281 11.3088 57.8973 11.4408 61.2476 11.2711C66.1226 11.0261 70.4329 14.6637 69.9624 20.4876C69.1906 29.8737 64.8427 36.9981 56.655 41.6912C53.3988 43.5571 49.8414 44.4618 46.1334 44.7445C46.0204 44.7445 45.8887 44.7822 45.7757 44.7633C43.7994 44.5749 42.4442 45.3665 41.8984 47.4208ZM30.5109 67.7386C37.701 67.7386 44.8723 67.7386 52.0624 67.7386C52.2694 67.7386 52.4953 67.7574 52.7023 67.7197C53.0411 67.6255 53.1729 67.3993 52.947 67.0977C52.8153 66.9281 52.6459 66.7962 52.4765 66.6643C50.1049 64.591 48.4485 62.0466 47.865 58.9556C47.5262 57.1274 47.5074 55.2238 47.4509 53.3578C47.3756 51.0961 46.0393 49.7014 43.7994 49.7014C41.0325 49.7014 38.2657 49.7014 35.48 49.7014C29.438 49.7014 23.4149 49.7014 17.3729 49.7014C14.9449 49.7014 13.6085 51.0584 13.5897 53.5086C13.5897 54.1683 13.5897 54.828 13.5897 55.4876C13.552 59.9734 11.8768 63.7052 8.54531 66.6831C8.41355 66.815 8.24415 66.9093 8.13122 67.0601C7.83006 67.4182 7.96182 67.6632 8.39473 67.7386C8.60177 67.7763 8.80882 67.7574 9.03469 67.7574C16.1871 67.7386 23.3396 67.7386 30.5109 67.7386ZM13.9849 30.0057C14.0038 30.1941 14.0038 30.3261 14.0414 30.458C15.6037 36.4515 18.1635 41.9739 21.7962 47.0062C21.9468 47.2135 22.3232 47.3831 22.5867 47.3831C27.8381 47.402 33.1084 47.402 38.3598 47.402C38.7927 47.402 39.0562 47.2889 39.2632 46.912C40.6937 44.4806 42.143 42.087 43.5547 39.6368C44.0253 38.8263 44.3453 37.9217 44.7405 37.0358C44.6088 37.017 44.5899 36.9981 44.5711 37.017C44.4205 37.0735 44.27 37.1301 44.1194 37.1866C39.2444 38.8829 34.5012 38.9394 29.965 36.1688C28.271 35.1322 26.6335 33.9637 24.9583 32.8893C23.4337 31.9281 21.9091 30.948 20.3092 30.1376C18.2764 29.1387 16.1683 29.0821 13.9849 30.0057ZM44.6841 42.6336C46.0393 42.4639 47.2815 42.3697 48.505 42.1624C59.4219 40.2965 67.5719 30.7219 67.7037 19.6206C67.7601 16.0207 65.3509 13.5706 61.7747 13.5517C58.3678 13.5517 54.961 13.5517 51.5542 13.5517C51.3283 13.5517 51.1024 13.5517 50.8389 13.5517C50.8389 15.0784 50.8389 16.5485 50.8389 18.0751C51.1024 18.0751 51.3471 18.0751 51.573 18.0751C54.2269 18.0751 56.8809 18.0563 59.5348 18.0751C61.8123 18.094 63.3181 19.9033 62.9605 22.1462C62.4711 25.2938 61.2665 28.1397 59.309 30.6653C56.335 34.5102 52.4576 36.8662 47.658 37.7143C47.338 37.7709 46.8863 37.884 46.7733 38.0913C46.0581 39.5614 45.4181 41.0315 44.6841 42.6336ZM13.4391 27.7628C15.0202 27.2539 16.5259 26.9712 18.107 27.1785C20.1586 27.4612 21.9656 28.3094 23.6972 29.3837C24.8266 30.0811 25.9183 30.835 27.0852 31.5889C27.0852 26.2927 27.0852 21.0907 27.0852 15.87C22.1914 15.87 17.3541 15.87 12.498 15.87C12.3662 19.8657 12.6297 23.786 13.4391 27.7628ZM33.9177 27.4612C38.5856 26.8204 43.0465 26.8581 47.1874 29.4779C48.2791 24.9922 48.6744 20.4688 48.5238 15.87C43.6112 15.87 38.7739 15.87 33.9177 15.87C33.9177 19.7714 33.9177 23.6352 33.9177 27.4612ZM50.8954 20.3368C50.5378 22.9378 50.2743 25.4822 49.8037 27.9513C49.3143 30.4392 48.5991 32.8705 47.9591 35.3772C48.392 35.2641 48.825 35.1699 49.239 35.038C50.0108 34.7741 50.8013 34.5291 51.5354 34.1521C56.6927 31.5889 59.7419 27.4424 60.7583 21.7881C60.9088 20.9965 60.4571 20.3557 59.723 20.3368C56.7491 20.318 53.794 20.3368 50.8954 20.3368ZM48.505 13.5329C48.6932 11.6104 48.4109 11.29 46.5663 11.29C35.7999 11.29 25.0148 11.29 14.2485 11.29C14.0226 11.29 13.7779 11.2711 13.552 11.3088C12.9309 11.3842 12.5545 11.7235 12.498 12.3455C12.4603 12.7224 12.498 13.1182 12.498 13.5329C24.5254 13.5329 36.4775 13.5329 48.505 13.5329ZM33.8801 35.4903C34.1436 35.5657 34.3506 35.6599 34.5765 35.7165C36.7034 36.3573 38.8492 36.1688 40.9761 35.7542C42.6512 35.4149 44.2511 34.906 45.5875 33.794C46.4533 33.059 46.5475 32.2108 45.7193 31.4381C45.1734 30.9292 44.477 30.4957 43.7806 30.2318C41.936 29.5345 39.9785 29.3648 38.021 29.4025C36.7975 29.4214 35.5553 29.6476 34.3318 29.8172C34.1624 29.836 33.8989 30.1187 33.8801 30.2884C33.8801 32.0035 33.8801 33.7375 33.8801 35.4903ZM40.6184 4.50486C40.5243 3.12898 39.6397 2.28084 38.3221 2.28084C35.5553 2.26199 32.7696 2.28084 30.0027 2.28084C27.5558 2.28084 25.1089 2.26199 22.6808 2.28084C21.3256 2.28084 20.3469 3.26091 20.441 4.50486C27.1417 4.50486 33.8613 4.50486 40.6184 4.50486ZM29.438 15.8511C29.4004 15.9454 29.3816 15.983 29.3816 16.0396C29.3816 21.6373 29.3816 27.2351 29.3816 32.8328C29.3816 33.0024 29.438 33.2474 29.5698 33.3228C30.2097 33.7375 30.8685 34.1144 31.6026 34.5479C31.6026 28.2528 31.6026 22.0897 31.6026 15.87C30.8685 15.8511 30.1721 15.8511 29.438 15.8511ZM10.2581 13.5894C7.58537 13.5894 5.04437 13.5894 2.40925 13.5894C4.10325 17.2835 6.49368 20.1672 10.2581 21.7504C10.2581 18.9987 10.2581 16.3223 10.2581 13.5894ZM24.883 8.99059C28.6663 8.99059 32.3743 8.99059 36.1011 8.99059C36.1011 8.23668 36.1011 7.52047 36.1011 6.82311C32.3366 6.82311 28.6098 6.82311 24.883 6.82311C24.883 7.57702 24.883 8.25553 24.883 8.99059Z" fill="white"/>
<path d="M30.5116 67.7386C23.3591 67.7386 16.1878 67.7386 9.03538 67.7386C8.82834 67.7386 8.60247 67.7575 8.39542 67.7198C7.96251 67.6444 7.83076 67.3994 8.13191 67.0413C8.24485 66.8905 8.41425 66.7962 8.546 66.6643C11.8964 63.6864 13.5527 59.9357 13.5904 55.4688C13.5904 54.8092 13.5904 54.1495 13.5904 53.4898C13.5904 51.0396 14.9456 49.6826 17.3736 49.6826C23.4156 49.6826 29.4387 49.6826 35.4807 49.6826C38.2475 49.6826 41.0144 49.6826 43.8001 49.6826C46.04 49.6826 47.3763 51.0962 47.4516 53.3391C47.5081 55.205 47.5269 57.1086 47.8657 58.9368C48.4492 62.0278 50.1244 64.5722 52.4772 66.6455C52.6277 66.7774 52.816 66.9093 52.9477 67.079C53.1736 67.3805 53.0607 67.6255 52.703 67.7009C52.496 67.7575 52.2889 67.7198 52.0631 67.7198C44.873 67.7386 37.7017 67.7386 30.5116 67.7386ZM22.6251 51.9443C18.8982 51.9443 15.8679 54.9788 15.849 58.7106C15.849 62.4424 18.8982 65.4769 22.6062 65.4958C26.333 65.4958 29.3634 62.4613 29.3823 58.7295C29.3823 54.9976 26.333 51.9443 22.6251 51.9443ZM36.1394 59.8603C36.1394 60.9346 36.1394 62.0278 36.1394 63.1021C36.1394 63.121 36.1394 63.1398 36.1394 63.1775C36.1771 64.5345 37.0994 65.4769 38.4734 65.4769C39.9227 65.4958 41.3909 65.4958 42.8402 65.4769C44.1954 65.4581 45.1553 64.5157 45.1553 63.1775C45.1741 60.9723 45.1741 58.7672 45.1553 56.5431C45.1553 55.1484 44.1954 54.206 42.8025 54.206C41.372 54.1872 39.9415 54.1872 38.511 54.206C37.1182 54.2249 36.1771 55.1484 36.1583 56.5431C36.1394 57.6552 36.1394 58.7483 36.1394 59.8603Z" fill="#FFC0CB"/>
<path d="M13.9844 30.0053C16.1678 29.0817 18.2759 29.1383 20.3087 30.156C21.9085 30.9665 23.4332 31.9466 24.9578 32.9078C26.6518 33.9633 28.2705 35.1318 29.9645 36.1873C34.5006 38.9579 39.2627 38.9013 44.1188 37.205C44.2694 37.1485 44.42 37.092 44.5706 37.0354C44.5894 37.0354 44.6082 37.0354 44.74 37.0543C44.3447 37.9401 44.0247 38.8448 43.5542 39.6552C42.1613 42.1054 40.6932 44.4991 39.2627 46.9304C39.0556 47.3074 38.7733 47.4204 38.3592 47.4204C33.1078 47.4016 27.8376 47.4204 22.5861 47.4016C22.3226 47.4016 21.9462 47.232 21.7956 47.0246C18.1817 41.9923 15.6219 36.47 14.0408 30.4764C14.022 30.3445 14.0032 30.1937 13.9844 30.0053Z" fill="#FFC0CB"/>
<path d="M44.6836 42.6333C45.4177 41.0313 46.0576 39.5612 46.7729 38.1099C46.8858 37.8837 47.3375 37.7895 47.6575 37.7329C52.4384 36.8848 56.3158 34.51 59.3085 30.6839C61.266 28.1584 62.4706 25.3124 62.96 22.1648C63.3176 19.9031 61.8119 18.0937 59.5344 18.0937C56.8804 18.0749 54.2265 18.0937 51.5725 18.0937C51.3467 18.0937 51.1208 18.0937 50.8385 18.0937C50.8385 16.5671 50.8385 15.1158 50.8385 13.5703C51.102 13.5703 51.3279 13.5703 51.5537 13.5703C54.9606 13.5703 58.3674 13.5703 61.7742 13.5703C65.3504 13.5703 67.7597 16.0205 67.7032 19.6392C67.5715 30.7405 59.4214 40.3151 48.5045 42.181C47.2811 42.3694 46.0388 42.4637 44.6836 42.6333Z" fill="#FFC0CB"/>
<path d="M13.439 27.763C12.6108 23.7861 12.3661 19.8658 12.479 15.8701C17.3352 15.8701 22.1913 15.8701 27.0663 15.8701C27.0663 21.0909 27.0663 26.3117 27.0663 31.589C25.8993 30.8351 24.8076 30.0812 23.6783 29.3838C21.9466 28.3095 20.1397 27.4614 18.0881 27.1787C16.5447 26.9714 15.02 27.2541 13.439 27.763Z" fill="#FFC0CB"/>
<path d="M33.918 27.4614C33.918 23.6353 33.918 19.7716 33.918 15.8701C38.7741 15.8701 43.6114 15.8701 48.524 15.8701C48.6746 20.4501 48.2794 24.9924 47.1877 29.4781C43.0468 26.8583 38.5859 26.8206 33.918 27.4614Z" fill="#FFC0CB"/>
<path d="M50.8965 20.3367C53.7951 20.3367 56.7502 20.3179 59.7053 20.3556C60.4582 20.3556 60.8911 21.0153 60.7405 21.8069C59.7241 27.4611 56.6749 31.6076 51.5176 34.1709C50.7836 34.529 49.993 34.774 49.2213 35.0567C48.8072 35.2075 48.3743 35.2829 47.9414 35.396C48.5625 32.9081 49.2966 30.4579 49.786 27.97C50.2754 25.4633 50.5201 22.9377 50.8965 20.3367Z" fill="#FFC0CB"/>
<path d="M48.5035 13.5329C36.4949 13.5329 24.5239 13.5329 12.4777 13.5329C12.4777 13.1183 12.44 12.7225 12.4777 12.3455C12.553 11.7235 12.9106 11.3843 13.5317 11.3089C13.7576 11.29 14.0023 11.29 14.2281 11.29C24.9945 11.29 35.7796 11.29 46.546 11.29C48.3905 11.29 48.6729 11.6104 48.5035 13.5329Z" fill="#FFC0CB"/>
<path d="M33.8797 35.49C33.8797 33.7371 33.8609 32.0032 33.8985 30.2692C33.8985 30.0996 34.162 29.8357 34.3503 29.798C35.5737 29.6284 36.816 29.4022 38.0394 29.3833C39.9969 29.3645 41.9545 29.5153 43.799 30.2126C44.4955 30.4765 45.1919 30.8912 45.7377 31.4189C46.5659 32.1916 46.4718 33.0586 45.606 33.7748C44.2696 34.8868 42.6697 35.4146 40.9945 35.735C38.8676 36.1685 36.7219 36.3381 34.595 35.6973C34.3691 35.6596 34.1432 35.5842 33.8797 35.49Z" fill="#FFC0CB"/>
<path d="M40.6183 4.50485C33.8611 4.50485 27.1416 4.50485 20.422 4.50485C20.3467 3.26091 21.3255 2.28084 22.6619 2.28084C25.1088 2.26199 27.5557 2.28084 29.9837 2.28084C32.7506 2.28084 35.5363 2.28084 38.3032 2.28084C39.6396 2.28084 40.5242 3.12898 40.6183 4.50485Z" fill="#FFC0CB"/>
<path d="M29.4386 15.8506C30.1726 15.8506 30.8691 15.8506 31.5843 15.8506C31.5843 22.0514 31.5843 28.2146 31.5843 34.5286C30.8502 34.0951 30.1915 33.7181 29.5515 33.3035C29.4386 33.2281 29.3633 32.9831 29.3633 32.8134C29.3633 27.2157 29.3633 21.618 29.3633 16.0202C29.3821 15.9825 29.4197 15.9448 29.4386 15.8506Z" fill="#FFC0CB"/>
<path d="M10.259 13.5889C10.259 16.3218 10.259 18.9981 10.259 21.7499C6.49459 20.1855 4.10416 17.3018 2.41016 13.5889C5.04527 13.5889 7.58628 13.5889 10.259 13.5889Z" fill="#FFC0CB"/>
<path d="M24.8828 8.99072C24.8828 8.23681 24.8828 7.5583 24.8828 6.82324C28.6096 6.82324 32.3176 6.82324 36.1009 6.82324C36.1009 7.5206 36.1009 8.21796 36.1009 8.99072C32.3741 8.99072 28.6661 8.99072 24.8828 8.99072Z" fill="#FFC0CB"/>
<path d="M22.6237 51.9443C26.3505 51.9443 29.3809 54.9976 29.3809 58.7295C29.3809 62.4613 26.3317 65.4958 22.6049 65.4958C18.8969 65.4958 15.8477 62.4425 15.8477 58.7106C15.8477 54.9788 18.8969 51.9443 22.6237 51.9443ZM21.4943 54.4511C19.4615 54.7526 17.8993 56.9955 18.1252 59.1818C18.3698 61.5755 20.4779 63.366 22.8872 63.234C25.2776 63.1021 27.1598 61.0666 27.1222 58.6541C27.1034 56.6185 25.4282 54.5642 23.7154 54.5076C23.7154 55.9023 23.7154 57.2971 23.7154 58.6918C22.9625 58.6918 22.2661 58.6918 21.5132 58.6918C21.4943 57.2405 21.4943 55.8458 21.4943 54.4511Z" fill="white"/>
<path d="M36.1399 59.8598C36.1399 58.7478 36.1211 57.6547 36.1399 56.5426C36.1587 55.1479 37.0999 54.2055 38.4927 54.2055C39.9232 54.1867 41.3537 54.1867 42.7842 54.2055C44.1958 54.2244 45.137 55.1479 45.137 56.5426C45.1558 58.7478 45.1558 60.953 45.137 63.177C45.1181 64.534 44.177 65.4764 42.8218 65.4764C41.3725 65.4953 39.9044 65.4953 38.4551 65.4764C37.0999 65.4576 36.1587 64.5152 36.1211 63.177C36.1211 63.1582 36.1211 63.1393 36.1211 63.1016C36.1399 62.0273 36.1399 60.9341 36.1399 59.8598ZM38.4174 58.6724C39.942 58.6724 41.4102 58.6724 42.8595 58.6724C42.8595 57.9185 42.8595 57.2023 42.8595 56.5049C41.3537 56.5049 39.8855 56.5049 38.4174 56.5049C38.4174 57.24 38.4174 57.9185 38.4174 58.6724ZM42.8783 61.0095C41.3913 61.0095 39.9232 61.0095 38.4551 61.0095C38.4551 61.7634 38.4551 62.4796 38.4551 63.177C39.9608 63.177 41.429 63.177 42.8783 63.177C42.8783 62.4231 42.8783 61.7257 42.8783 61.0095Z" fill="white"/>
<path d="M21.4955 54.4512C21.4955 55.8647 21.4955 57.2595 21.4955 58.6919C22.2484 58.6919 22.9448 58.6919 23.6977 58.6919C23.6977 57.2972 23.6977 55.9024 23.6977 54.5077C25.4293 54.5643 27.0857 56.6186 27.1045 58.6542C27.1421 61.0667 25.2411 63.1211 22.8695 63.2342C20.4602 63.3661 18.3521 61.5756 18.1075 59.1819C17.8816 56.9768 19.4627 54.7527 21.4955 54.4512Z" fill="#FFC0CB"/>
<path d="M38.418 58.6724C38.418 57.9185 38.418 57.2399 38.418 56.5049C39.8861 56.5049 41.3542 56.5049 42.86 56.5049C42.86 57.2022 42.86 57.9185 42.86 58.6724C41.3919 58.6724 39.9426 58.6724 38.418 58.6724Z" fill="#FFC0CB"/>
<path d="M42.8764 61.0098C42.8764 61.726 42.8764 62.4233 42.8764 63.1772C41.4082 63.1772 39.9589 63.1772 38.4531 63.1772C38.4531 62.4799 38.4531 61.7637 38.4531 61.0098C39.9213 61.0098 41.3706 61.0098 42.8764 61.0098Z" fill="#FFC0CB"/>
</g>
<defs>
<clipPath id="clip0_2004_1008">
<rect width="70" height="70" fill="white"/>
</clipPath>
</defs>
</svg>
