<svg width="81" height="81" viewBox="0 0 81 81" fill="none" xmlns="http://www.w3.org/2000/svg">
<rect width="81" height="81" rx="40.5" fill="#FFC0CB"/>
<g clip-path="url(#clip0_90_76)">
<path d="M41.9322 50.8516C41.6525 50.8516 41.4491 51.2553 41.3983 51.432L40.5847 54.3847C40.7686 54.3578 40.9481 54.3069 41.1186 54.2333L41.9322 51.3563C41.9322 51.3563 42.2118 50.8516 41.9322 50.8516Z" fill="white" stroke="white" stroke-width="0.24" stroke-miterlimit="10"/>
<path d="M41.7796 51.0536C45.4612 47.7893 48.0066 43.4515 49.0508 38.6624C49.391 36.4303 49.2083 34.1505 48.5169 31.9999C47.5022 29.4482 46.1145 27.0587 44.3983 24.9084C42.561 22.7242 41.4586 20.0238 41.2457 17.1861C41.275 16.9029 41.3804 16.6327 41.5508 16.4037C41.7033 16.2523 41.8305 16.4037 41.8305 16.4037C42.0286 19.0172 43.0416 21.5045 44.7288 23.5204C46.5029 25.7365 47.9497 28.1923 49.0254 30.8138C49.7276 33.1343 49.9321 35.5752 49.6256 37.9789C49.319 40.3827 48.5083 42.696 47.2457 44.7696C45.7381 47.3481 43.8914 49.716 41.7542 51.8107C41.6017 51.9621 41.4745 51.9368 41.4745 51.8107C41.4829 51.5304 41.591 51.2622 41.7796 51.0536Z" fill="white" stroke="white" stroke-width="0.24" stroke-miterlimit="10"/>
<path d="M41.1186 16.8579C40.7881 19.634 38.1948 21.552 37.1016 24.0504C36.5832 25.34 36.2247 26.6875 36.0338 28.063C35.8229 29.3157 35.6871 30.5798 35.6271 31.8485C35.5046 34.4725 35.6494 37.102 36.0593 39.6971C36.5065 42.3727 37.1783 45.0064 38.0677 47.5709C38.5311 48.6233 38.9053 49.7123 39.1864 50.8264C39.2116 51.1203 39.2116 51.4158 39.1864 51.7097C39.1659 52.4558 39.0808 53.1988 38.9321 53.9305C39.0592 54.0567 39.3898 53.9305 39.5423 53.9305C39.6949 53.9305 40.2033 53.8043 40.2288 53.6529C40.5076 52.5396 40.585 51.3861 40.4576 50.2459C40.3261 49.6771 40.1475 49.12 39.9237 48.5804C39.6186 47.8485 39.3644 47.1166 39.1101 46.3848C37.3779 41.331 36.6526 35.991 36.9745 30.6624C37.0758 29.366 37.254 28.0767 37.5084 26.8012C37.7325 25.4267 38.179 24.0973 38.8305 22.8643C40.0508 20.7696 42.1101 19.0031 42.4152 16.5551C42.4915 16.4037 41.144 16.5803 41.1186 16.8579Z" fill="white" stroke="white" stroke-width="0.24" stroke-miterlimit="10"/>
<path d="M41.322 48.2526C42.051 45.4546 42.6029 42.6142 42.9746 39.7479C43.3767 36.7102 43.3081 33.6293 42.7712 30.6122C42.4209 28.8195 41.8577 27.0744 41.0932 25.4135C40.8644 24.9087 42.2627 24.8078 42.4407 25.2116C43.7914 28.1564 44.5348 31.3399 44.6271 34.5743C44.7048 37.6165 44.4232 40.6572 43.7881 43.6343C43.483 45.2242 43.1017 46.8393 42.6949 48.4292C42.6949 48.833 41.1949 48.7573 41.322 48.2526Z" fill="white" stroke="white" stroke-width="0.24" stroke-miterlimit="10"/>
<path d="M41.5254 33.0093C42.2118 34.145 42.9746 35.2806 43.7881 36.3911C43.9661 36.6434 43.7881 36.9462 43.6102 37.1229C43.4322 37.2996 43.1271 37.5015 42.9491 37.2491C42.1356 36.1387 41.3983 35.0283 40.6864 33.8674C40.6329 33.7426 40.6213 33.6041 40.6534 33.4722C40.6854 33.3404 40.7594 33.2223 40.8644 33.1355C40.8644 33.1355 41.3729 32.7317 41.5254 33.1355" fill="white"/>
<path d="M41.5254 33.0093C42.2118 34.145 42.9746 35.2806 43.7881 36.3911C43.9661 36.6434 43.7881 36.9462 43.6102 37.1229C43.4322 37.2996 43.1271 37.5015 42.9491 37.2491C42.1356 36.1387 41.3983 35.0283 40.6864 33.8674C40.6329 33.7426 40.6213 33.6041 40.6534 33.4722C40.6854 33.3404 40.7594 33.2223 40.8644 33.1355C40.8644 33.1355 41.3729 32.7317 41.5254 33.1355" stroke="white" stroke-width="0.24" stroke-miterlimit="10"/>
<path d="M43.6101 40.8579L44.0169 40.555L44.1949 40.4036C44.4354 40.1671 44.6486 39.9047 44.8305 39.6213C44.8259 39.5541 44.8259 39.4866 44.8305 39.4194L45.0339 38.9904C45.1652 38.7092 45.2592 38.4123 45.3135 38.1071C45.3569 37.9512 45.4494 37.8132 45.5775 37.7133C45.7056 37.6134 45.8626 37.5568 46.0254 37.5519C46.0904 37.5401 46.1572 37.5433 46.2208 37.5612C46.2843 37.5791 46.3429 37.6112 46.392 37.6551C46.4411 37.6989 46.4794 37.7534 46.504 37.8142C46.5286 37.8751 46.5388 37.9408 46.5339 38.0062C46.1961 39.5202 45.2861 40.848 43.9915 41.7159C43.7881 41.8674 43.3813 42.0188 43.1271 41.7159C42.8729 41.4131 43.1271 41.1607 43.2542 41.0093" fill="white"/>
<path d="M43.6101 40.8579L44.0169 40.555L44.1949 40.4036C44.4354 40.1671 44.6486 39.9047 44.8305 39.6213C44.8259 39.5541 44.8259 39.4866 44.8305 39.4194L45.0339 38.9904C45.1652 38.7092 45.2592 38.4123 45.3135 38.1071C45.3569 37.9512 45.4494 37.8132 45.5775 37.7133C45.7056 37.6134 45.8626 37.5568 46.0254 37.5519C46.0904 37.5401 46.1572 37.5433 46.2208 37.5612C46.2843 37.5791 46.3429 37.6112 46.392 37.6551C46.4411 37.6989 46.4794 37.7534 46.504 37.8142C46.5286 37.8751 46.5388 37.9408 46.5339 38.0062C46.1961 39.5202 45.2861 40.848 43.9915 41.7159C43.7881 41.8674 43.3813 42.0188 43.1271 41.7159C42.8729 41.4131 43.1271 41.1607 43.2542 41.0093" stroke="white" stroke-width="0.24" stroke-miterlimit="10"/>
<path d="M43.839 33.8927C44.0118 33.6004 44.1647 33.2969 44.2966 32.9842V32.7823C44.3085 32.6143 44.3085 32.4456 44.2966 32.2776V31.7981V31.3691C44.2793 31.0299 44.2368 30.6925 44.1695 30.3596C44.1695 30.0568 44.4237 29.7791 44.7288 29.7034C45.0339 29.6277 45.339 29.7034 45.3898 29.981C45.6884 31.4279 45.425 32.9333 44.6525 34.1955C44.5728 34.3356 44.4529 34.4489 44.3079 34.5209C44.163 34.5928 43.9997 34.6201 43.839 34.5993C43.7738 34.5982 43.7101 34.5805 43.6538 34.548C43.5975 34.5154 43.5505 34.4691 43.5174 34.4134C43.4842 34.3577 43.466 34.2946 43.4645 34.2299C43.4629 34.1653 43.478 34.1013 43.5085 34.0441" fill="white"/>
<path d="M43.839 33.8927C44.0118 33.6004 44.1647 33.2969 44.2966 32.9842V32.7823C44.3085 32.6143 44.3085 32.4456 44.2966 32.2776V31.7981V31.3691C44.2793 31.0299 44.2368 30.6925 44.1695 30.3596C44.1695 30.0568 44.4237 29.7791 44.7288 29.7034C45.0339 29.6277 45.339 29.7034 45.3898 29.981C45.6884 31.4279 45.425 32.9333 44.6525 34.1955C44.5728 34.3356 44.4529 34.4489 44.3079 34.5209C44.163 34.5928 43.9997 34.6201 43.839 34.5993C43.7738 34.5982 43.7101 34.5805 43.6538 34.548C43.5975 34.5154 43.5505 34.4691 43.5174 34.4134C43.4842 34.3577 43.466 34.2946 43.4645 34.2299C43.4629 34.1653 43.478 34.1013 43.5085 34.0441" stroke="white" stroke-width="0.24" stroke-miterlimit="10"/>
<path d="M41.7288 44.7951C40.8521 43.6659 40.2437 42.3546 39.9492 40.9592C39.9272 40.8021 39.9681 40.6428 40.0632 40.5154C40.1583 40.388 40.2999 40.3027 40.4576 40.2778C40.6129 40.2346 40.7787 40.2492 40.9239 40.3189C41.069 40.3886 41.1835 40.5086 41.2457 40.6563C41.5176 41.9562 42.0923 43.1748 42.9237 44.2147C42.9616 44.2814 42.9845 44.3556 42.9907 44.432C42.997 44.5084 42.9864 44.5853 42.9598 44.6573C42.9333 44.7292 42.8912 44.7946 42.8367 44.8489C42.7822 44.9032 42.7165 44.9451 42.6441 44.9718C42.4944 45.0515 42.3215 45.0775 42.1547 45.0453C41.9879 45.0131 41.8375 44.9247 41.7288 44.7951Z" fill="white" stroke="white" stroke-width="0.24" stroke-miterlimit="10"/>
<path d="M44.2712 52.7695C44.3983 52.9462 44.2712 53.1986 44.0678 53.2743L42.0593 54.5866C41.997 54.4566 41.9459 54.3215 41.9067 54.1828L43.8644 52.8705C43.8644 52.8705 44.1186 52.5424 44.2712 52.7695Z" fill="white" stroke="white" stroke-width="0.24" stroke-miterlimit="10"/>
<path d="M44.1949 52.8959C44.6458 51.1451 45.4568 49.5059 46.5769 48.0814C47.697 46.6568 49.1019 45.4777 50.7033 44.6183C52.5001 43.8079 54.4501 43.3863 56.4237 43.3817C59.0882 43.5088 61.7309 43.9235 64.3051 44.6183C66.8631 45.4184 69.5846 45.5574 72.2118 45.0221C72.3177 44.9873 72.4152 44.9312 72.4982 44.8574C72.5813 44.7836 72.6483 44.6936 72.6949 44.5931C72.6949 44.4417 72.6949 44.3659 72.466 44.4164C70.0519 44.9192 67.548 44.7976 65.1949 44.0631C62.5455 43.3438 59.827 42.9039 57.0847 42.7508C55.0832 42.6924 53.0944 43.0844 51.2672 43.8973C49.4401 44.7102 47.8218 45.923 46.5339 47.4448C45.1766 49.1425 44.1505 51.0768 43.5084 53.1483C43.5084 53.2745 43.5084 53.3754 43.7118 53.3249C43.9214 53.2473 44.0939 53.0941 44.1949 52.8959Z" fill="white" stroke="white" stroke-width="0.24" stroke-miterlimit="10"/>
<path d="M72.5424 45.022C70.4322 45.9557 70.1526 48.2775 68.6526 49.6907C67.854 50.4442 66.9454 51.0738 65.9577 51.5583C65.0239 52.0415 64.0551 52.4549 63.0594 52.7949C60.8994 53.5488 58.6675 54.0815 56.3984 54.3847C53.932 54.7402 51.4411 54.9006 48.9492 54.8643C47.8832 54.7759 46.8117 54.7759 45.7458 54.8643C45.486 54.8963 45.2303 54.9555 44.9831 55.0409C44.3904 55.2233 43.8193 55.4687 43.2797 55.7728C43.1264 55.6574 43.0113 55.4992 42.9492 55.3185C42.9492 55.3185 42.6949 54.8138 42.9492 54.7633C43.7782 54.2721 44.692 53.9383 45.6441 53.7791C46.1852 53.7282 46.73 53.7282 47.2712 53.7791C48.0085 53.7791 48.7458 53.7791 49.4576 53.7791C54.2097 53.8577 58.9373 53.0884 63.4153 51.5078C64.4151 51.1183 65.3913 50.6717 66.339 50.1702C67.302 49.6978 68.165 49.0468 68.8814 48.2523C70 46.8643 70.4322 44.921 72.2882 44.1135C72.2373 43.9873 72.7712 44.9463 72.5424 45.022Z" fill="white" stroke="white" stroke-width="0.24" stroke-miterlimit="10"/>
<path d="M46.7118 52.568C48.6696 51.3254 50.7176 50.2288 52.839 49.2873C55.2604 48.2114 57.8319 47.5052 60.4661 47.1926C62.1569 47.0273 63.86 47.0273 65.5508 47.1926C66.0593 47.1926 65.5508 46.2084 65.0424 46.1831C62.0994 45.9184 59.1326 46.1574 56.2712 46.8897C53.8379 47.5588 51.4915 48.5074 49.2797 49.7163C48.1102 50.3472 46.9915 51.0033 45.8729 51.6595C45.5932 51.8361 46.3559 52.8456 46.7118 52.6437" fill="white"/>
<path d="M46.7118 52.568C48.6696 51.3254 50.7176 50.2288 52.839 49.2873C55.2604 48.2114 57.8319 47.5052 60.4661 47.1926C62.1569 47.0273 63.86 47.0273 65.5508 47.1926C66.0593 47.1926 65.5508 46.2084 65.0424 46.1831C62.0994 45.9184 59.1326 46.1574 56.2712 46.8897C53.8379 47.5588 51.4915 48.5074 49.2797 49.7163C48.1102 50.3472 46.9915 51.0033 45.8729 51.6595C45.5932 51.8361 46.3559 52.8456 46.7118 52.6437" stroke="white" stroke-width="0.24" stroke-miterlimit="10"/>
<path d="M59.1186 48.6813C57.822 48.4541 56.5762 48.2017 55.2033 47.8737C55.0928 47.8547 54.979 47.8746 54.8816 47.9299C54.7841 47.9852 54.7091 48.0724 54.6694 48.1765C54.6694 48.3027 54.6694 48.6308 54.8982 48.6813C56.2203 49.0093 57.4406 49.2617 58.8135 49.4888C58.9241 49.5077 59.0378 49.4879 59.1353 49.4326C59.2327 49.3774 59.3077 49.2902 59.3474 49.186C59.3474 49.186 59.3474 48.7317 59.1186 48.6813Z" fill="white" stroke="white" stroke-width="0.24" stroke-miterlimit="10"/>
<path d="M51.6186 49.0346C51.6064 48.9172 51.6064 48.7988 51.6186 48.6813C51.6186 48.6813 51.6186 48.6813 51.6186 48.5046C51.6942 48.2749 51.7966 48.0547 51.9237 47.8485V47.6971L52.1779 47.4447C52.3471 47.2766 52.5451 47.1399 52.7627 47.0409C52.8066 47.0008 52.8416 46.952 52.8656 46.8977C52.8896 46.8434 52.9019 46.7848 52.9019 46.7255C52.9019 46.6662 52.8896 46.6075 52.8656 46.5532C52.8416 46.4989 52.8066 46.4502 52.7627 46.41C52.7119 46.2924 52.618 46.1983 52.5 46.1467C52.382 46.0952 52.2487 46.0901 52.1271 46.1324C51.6296 46.4053 51.2058 46.7932 50.8916 47.2632C50.5773 47.7333 50.382 48.2717 50.322 48.8327C50.3094 48.9678 50.3394 49.1034 50.4077 49.221C50.476 49.3385 50.5793 49.432 50.7034 49.4889C50.7545 49.5134 50.8108 49.5255 50.8676 49.524C50.9244 49.5225 50.98 49.5075 51.0298 49.4803C51.0795 49.4532 51.122 49.4146 51.1537 49.3677C51.1854 49.3209 51.2053 49.2673 51.2118 49.2113" fill="white"/>
<path d="M51.6186 49.0346C51.6064 48.9172 51.6064 48.7988 51.6186 48.6813C51.6186 48.6813 51.6186 48.6813 51.6186 48.5046C51.6942 48.2749 51.7966 48.0547 51.9237 47.8485V47.6971L52.1779 47.4447C52.3471 47.2766 52.5451 47.1399 52.7627 47.0409C52.8066 47.0008 52.8416 46.952 52.8656 46.8977C52.8896 46.8434 52.9019 46.7848 52.9019 46.7255C52.9019 46.6662 52.8896 46.6075 52.8656 46.5532C52.8416 46.4989 52.8066 46.4502 52.7627 46.41C52.7119 46.2924 52.618 46.1983 52.5 46.1467C52.382 46.0952 52.2487 46.0901 52.1271 46.1324C51.6296 46.4053 51.2058 46.7932 50.8916 47.2632C50.5773 47.7333 50.382 48.2717 50.322 48.8327C50.3094 48.9678 50.3394 49.1034 50.4077 49.221C50.476 49.3385 50.5793 49.432 50.7034 49.4889C50.7545 49.5134 50.8108 49.5255 50.8676 49.524C50.9244 49.5225 50.98 49.5075 51.0298 49.4803C51.0795 49.4532 51.122 49.4146 51.1537 49.3677C51.1854 49.3209 51.2053 49.2673 51.2118 49.2113" stroke="white" stroke-width="0.24" stroke-miterlimit="10"/>
<path d="M57.1864 47.243C57.3271 47.0339 57.4984 46.8468 57.6949 46.6879H57.822L58.1779 46.486L58.5339 46.3093H58.7372H58.8898C59.1805 46.2242 59.4783 46.1651 59.7796 46.1327C59.8381 46.1204 59.8929 46.0947 59.9396 46.0576C59.9862 46.0204 60.0235 45.9729 60.0482 45.9189C60.0729 45.8648 60.0845 45.8058 60.082 45.7465C60.0795 45.6872 60.063 45.6293 60.0338 45.5775C60.0006 45.4552 59.9279 45.347 59.8269 45.2695C59.7259 45.1921 59.6021 45.1496 59.4745 45.1484C58.8779 45.1836 58.2955 45.3434 57.7654 45.6173C57.2353 45.8913 56.7694 46.2733 56.3983 46.7383C56.3176 46.8338 56.2733 46.9544 56.2733 47.079C56.2733 47.2036 56.3176 47.3243 56.3983 47.4197C56.6017 47.6216 56.9322 47.6721 57.0339 47.4197" fill="white"/>
<path d="M57.1864 47.243C57.3271 47.0339 57.4984 46.8468 57.6949 46.6879H57.822L58.1779 46.486L58.5339 46.3093H58.7372H58.8898C59.1805 46.2242 59.4783 46.1651 59.7796 46.1327C59.8381 46.1204 59.8929 46.0947 59.9396 46.0576C59.9862 46.0204 60.0235 45.9729 60.0482 45.9189C60.0729 45.8648 60.0845 45.8058 60.082 45.7465C60.0795 45.6872 60.063 45.6293 60.0338 45.5775C60.0006 45.4552 59.9279 45.347 59.8269 45.2695C59.7259 45.1921 59.6021 45.1496 59.4745 45.1484C58.8779 45.1836 58.2955 45.3434 57.7654 45.6173C57.2353 45.8913 56.7694 46.2733 56.3983 46.7383C56.3176 46.8338 56.2733 46.9544 56.2733 47.079C56.2733 47.2036 56.3176 47.3243 56.3983 47.4197C56.6017 47.6216 56.9322 47.6721 57.0339 47.4197" stroke="white" stroke-width="0.24" stroke-miterlimit="10"/>
<path d="M49.3306 51.4071C50.6454 51.7668 52.015 51.8865 53.3729 51.7604C53.4351 51.7598 53.4961 51.7431 53.5498 51.7119C53.6035 51.6806 53.648 51.636 53.6788 51.5824C53.7097 51.5287 53.7259 51.4681 53.7257 51.4063C53.7256 51.3446 53.7091 51.2839 53.678 51.2304C53.6207 51.0944 53.5259 50.9773 53.4044 50.8924C53.283 50.8076 53.1399 50.7585 52.9916 50.7509C51.7277 50.8757 50.4514 50.7645 49.2289 50.4229C48.8983 50.4229 48.6949 50.5743 48.7458 50.8014C48.7723 50.9483 48.8419 51.0842 48.9459 51.192C49.05 51.2997 49.1838 51.3746 49.3306 51.4071Z" fill="white" stroke="white" stroke-width="0.24" stroke-miterlimit="10"/>
<path d="M35.7543 52.7695C35.6271 52.9462 35.7543 53.1986 35.9577 53.2743L37.9662 54.5866L38.1187 54.1828L36.1611 52.8705C36.1611 52.8705 35.8814 52.5424 35.7543 52.7695Z" fill="white" stroke="white" stroke-width="0.24" stroke-miterlimit="10"/>
<path d="M35.8305 52.8957C35.3782 51.1421 34.5638 49.5009 33.4391 48.076C32.3143 46.6511 30.9038 45.4736 29.2967 44.6181C27.5006 43.8055 25.5502 43.3838 23.5763 43.3815C20.9204 43.5107 18.2863 43.9253 15.7204 44.6181C13.1621 45.4172 10.441 45.5561 7.81362 45.0219C7.70779 44.9871 7.61027 44.931 7.52717 44.8572C7.44408 44.7834 7.37717 44.6935 7.33057 44.5929C7.33057 44.4415 7.33057 44.3658 7.53396 44.4162C9.94813 44.919 12.452 44.7974 14.8051 44.0629C17.4636 43.3455 20.1902 42.9057 22.9407 42.7506C24.9417 42.6959 26.9293 43.0896 28.7559 43.9022C30.5825 44.7149 32.2012 45.9257 33.4916 47.4446C34.8396 49.1483 35.8647 51.0808 36.517 53.1481C36.517 53.2743 36.517 53.3752 36.3136 53.3248C36.2078 53.2899 36.1103 53.2339 36.0272 53.1601C35.9441 53.0863 35.8771 52.9963 35.8305 52.8957Z" fill="white" stroke="white" stroke-width="0.24" stroke-miterlimit="10"/>
<path d="M7.48299 45.022C9.59316 45.9558 9.89822 48.2775 11.3982 49.6908C12.2236 50.4002 13.1485 50.9868 14.144 51.4321C15.0885 51.9111 16.0655 52.3243 17.0677 52.6687C19.2198 53.4198 21.443 53.9525 23.7033 54.2586C26.1698 54.6124 28.6606 54.7727 31.1525 54.7381C32.2269 54.6497 33.3069 54.6497 34.3813 54.7381C34.6328 54.7701 34.88 54.8294 35.1186 54.9148C35.7095 55.1017 36.2801 55.3469 36.822 55.6466C36.9897 55.5404 37.1155 55.3799 37.1779 55.1924C37.1779 55.1924 37.4067 54.6876 37.1779 54.6371C36.3601 54.1417 35.4537 53.8075 34.5084 53.6529C33.9673 53.602 33.4225 53.602 32.8813 53.6529C32.144 53.6529 31.4067 53.6529 30.6694 53.6529C25.9256 53.7335 21.206 52.964 16.7372 51.3816C15.7354 50.997 14.7589 50.5503 13.8135 50.0441C12.8464 49.5783 11.9822 48.9264 11.2711 48.1261C10.1525 46.7381 9.72026 44.7949 7.86433 43.9873C7.78806 43.9873 7.25417 44.9463 7.48299 45.022Z" fill="white" stroke="white" stroke-width="0.24" stroke-miterlimit="10"/>
<path d="M33.3135 52.568C31.347 51.3254 29.2905 50.2288 27.161 49.2873C23.1821 47.4912 18.8039 46.7436 14.4491 47.1169C13.9407 47.1169 14.4491 46.1327 14.9576 46.1074C17.9005 45.8427 20.8674 46.0818 23.7288 46.8141C26.1604 47.4881 28.5062 48.4365 30.7203 49.6406C31.8898 50.2715 33.0085 50.9276 34.1017 51.5838C34.3813 51.7604 33.644 52.7699 33.2881 52.568" fill="white"/>
<path d="M33.3135 52.568C31.347 51.3254 29.2905 50.2288 27.161 49.2873C23.1821 47.4912 18.8039 46.7436 14.4491 47.1169C13.9407 47.1169 14.4491 46.1327 14.9576 46.1074C17.9005 45.8427 20.8674 46.0818 23.7288 46.8141C26.1604 47.4881 28.5062 48.4365 30.7203 49.6406C31.8898 50.2715 33.0085 50.9276 34.1017 51.5838C34.3813 51.7604 33.644 52.7699 33.2881 52.568" stroke="white" stroke-width="0.24" stroke-miterlimit="10"/>
<path d="M20.9068 48.6813C22.2034 48.4542 23.4492 48.2018 24.8221 47.8737C24.9297 47.8503 25.0423 47.8686 25.1368 47.9249C25.2313 47.9812 25.3007 48.0712 25.3305 48.1766C25.3305 48.3027 25.3305 48.6308 25.1017 48.6813C23.8051 49.0094 22.5593 49.2617 21.2119 49.4888C21.1009 49.5132 20.9847 49.4957 20.886 49.4397C20.7873 49.3837 20.7132 49.2933 20.678 49.186C20.678 49.186 20.678 48.7318 20.9068 48.6813Z" fill="white" stroke="white" stroke-width="0.24" stroke-miterlimit="10"/>
<path d="M28.4068 49.0348C28.4068 48.9086 28.4068 48.8076 28.4068 48.6814C28.4068 48.5553 28.4068 48.6814 28.4068 48.5048C28.3225 48.2741 28.2116 48.054 28.0763 47.8486L27.9492 47.6972L27.7204 47.4448C27.5422 47.2879 27.3459 47.1524 27.1356 47.0411C27.0917 47.0009 27.0567 46.9521 27.0327 46.8978C27.0087 46.8435 26.9963 46.7849 26.9963 46.7256C26.9963 46.6663 27.0087 46.6077 27.0327 46.5534C27.0567 46.4991 27.0917 46.4503 27.1356 46.4102C27.186 46.2982 27.2757 46.2083 27.388 46.1572C27.5003 46.1061 27.6275 46.0974 27.7458 46.1326C28.2504 46.3967 28.68 46.7823 28.9954 47.2541C29.3108 47.7259 29.5018 48.2687 29.5509 48.8329C29.5694 48.9656 29.5449 49.1007 29.4809 49.2187C29.417 49.3366 29.3168 49.4313 29.1949 49.489C29.1449 49.5207 29.0872 49.5385 29.0278 49.5404C28.9685 49.5424 28.9097 49.5284 28.8577 49.5C28.8057 49.4716 28.7623 49.4298 28.7322 49.3791C28.7021 49.3283 28.6862 49.2704 28.6865 49.2114" fill="white"/>
<path d="M28.4068 49.0348C28.4068 48.9086 28.4068 48.8076 28.4068 48.6814C28.4068 48.5553 28.4068 48.6814 28.4068 48.5048C28.3225 48.2741 28.2116 48.054 28.0763 47.8486L27.9492 47.6972L27.7204 47.4448C27.5422 47.2879 27.3459 47.1524 27.1356 47.0411C27.0917 47.0009 27.0567 46.9521 27.0327 46.8978C27.0087 46.8435 26.9963 46.7849 26.9963 46.7256C26.9963 46.6663 27.0087 46.6077 27.0327 46.5534C27.0567 46.4991 27.0917 46.4503 27.1356 46.4102C27.186 46.2982 27.2757 46.2083 27.388 46.1572C27.5003 46.1061 27.6275 46.0974 27.7458 46.1326C28.2504 46.3967 28.68 46.7823 28.9954 47.2541C29.3108 47.7259 29.5018 48.2687 29.5509 48.8329C29.5694 48.9656 29.5449 49.1007 29.4809 49.2187C29.417 49.3366 29.3168 49.4313 29.1949 49.489C29.1449 49.5207 29.0872 49.5385 29.0278 49.5404C28.9685 49.5424 28.9097 49.5284 28.8577 49.5C28.8057 49.4716 28.7623 49.4298 28.7322 49.3791C28.7021 49.3283 28.6862 49.2704 28.6865 49.2114" stroke="white" stroke-width="0.24" stroke-miterlimit="10"/>
<path d="M22.7373 47.243C22.5879 47.0408 22.4174 46.8548 22.2288 46.6879H22.0763L21.7458 46.486L21.3899 46.3093H21.1865H21.0339C20.7432 46.2242 20.4454 46.1651 20.1441 46.1327C20.0856 46.1204 20.0308 46.0947 19.9841 46.0576C19.9375 46.0204 19.9003 45.9729 19.8755 45.9189C19.8508 45.8648 19.8391 45.8058 19.8416 45.7465C19.8441 45.6872 19.8607 45.6293 19.8899 45.5775C19.9231 45.4552 19.9958 45.347 20.0968 45.2695C20.1978 45.1921 20.3216 45.1496 20.4492 45.1484C21.0451 45.1867 21.6264 45.3478 22.1561 45.6216C22.6858 45.8953 23.1521 46.2757 23.5254 46.7383C23.6112 46.8314 23.6588 46.9529 23.6588 47.079C23.6588 47.2051 23.6112 47.3267 23.5254 47.4197C23.322 47.6216 23.017 47.6721 22.9153 47.4197" fill="white"/>
<path d="M22.7373 47.243C22.5879 47.0408 22.4174 46.8548 22.2288 46.6879H22.0763L21.7458 46.486L21.3899 46.3093H21.1865H21.0339C20.7432 46.2242 20.4454 46.1651 20.1441 46.1327C20.0856 46.1204 20.0308 46.0947 19.9841 46.0576C19.9375 46.0204 19.9003 45.9729 19.8755 45.9189C19.8508 45.8648 19.8391 45.8058 19.8416 45.7465C19.8441 45.6872 19.8607 45.6293 19.8899 45.5775C19.9231 45.4552 19.9958 45.347 20.0968 45.2695C20.1978 45.1921 20.3216 45.1496 20.4492 45.1484C21.0451 45.1867 21.6264 45.3478 22.1561 45.6216C22.6858 45.8953 23.1521 46.2757 23.5254 46.7383C23.6112 46.8314 23.6588 46.9529 23.6588 47.079C23.6588 47.2051 23.6112 47.3267 23.5254 47.4197C23.322 47.6216 23.017 47.6721 22.9153 47.4197" stroke="white" stroke-width="0.24" stroke-miterlimit="10"/>
<path d="M30.6949 51.4071C29.3799 51.7657 28.0104 51.8854 26.6525 51.7604C26.5908 51.7574 26.5308 51.7395 26.4775 51.7084C26.4243 51.6772 26.3796 51.6337 26.347 51.5816C26.3145 51.5294 26.2952 51.4702 26.2909 51.409C26.2865 51.3479 26.2972 51.2866 26.322 51.2304C26.3881 51.0957 26.4887 50.9806 26.6136 50.8965C26.7384 50.8124 26.8833 50.7622 27.0338 50.7509C28.2977 50.8757 29.574 50.7645 30.7965 50.4229C31.1271 50.4229 31.3304 50.5743 31.2796 50.8014C31.2531 50.9483 31.1835 51.0842 31.0795 51.192C30.9754 51.2997 30.8416 51.3746 30.6949 51.4071Z" fill="white" stroke="white" stroke-width="0.24" stroke-miterlimit="10"/>
</g>
<defs>
<clipPath id="clip0_90_76">
<rect width="66" height="40" fill="white" transform="translate(7 16)"/>
</clipPath>
</defs>
</svg>
