<svg width="81" height="81" viewBox="0 0 81 81" fill="none" xmlns="http://www.w3.org/2000/svg">
<rect width="81" height="81" rx="40.5" fill="#FFC0CB"/>
<g clip-path="url(#clip0_90_28)">
<path d="M34.8954 38.6017C33.0783 38.0937 31.172 37.9787 29.306 38.2645C27.4399 38.5503 25.658 39.2302 24.0814 40.258C22.4571 41.2556 21.1698 42.7091 20.3837 44.4331C20.0532 45.3137 19.944 46.2606 20.0655 47.1923C20.1871 48.124 20.5357 49.0125 21.0814 49.7813C22.1784 51.3252 23.6813 52.543 25.4274 53.3032C27.1735 54.0634 29.0964 54.337 30.9883 54.0944C32.8905 53.7605 34.6817 52.9733 36.2073 51.801C37.7328 50.6287 38.9468 49.1065 39.7442 47.366H39.9883C40.4691 46.8502 40.793 46.2106 40.9226 45.5209C41.0522 44.8311 40.9823 44.1192 40.7209 43.4669C40.554 43.0442 40.3436 42.6395 40.093 42.2592C38.8063 40.5158 36.9825 39.2323 34.8954 38.6017ZM37.407 46.6414C36.2499 48.972 34.3155 50.8366 31.9302 51.9206C30.6787 52.5064 29.286 52.7328 27.9108 52.5742C26.5355 52.4156 25.2329 51.8783 24.1512 51.0235C23.4457 50.3971 22.8965 49.6176 22.5465 48.7462L22.3023 48.1251L22.9302 48.3321C23.832 48.61 24.7814 48.704 25.7209 48.6082C26.6093 48.5202 27.4432 48.1441 28.093 47.5385C28.4546 47.1193 28.7595 46.6554 29 46.1583C29.1633 45.7951 29.3619 45.4484 29.593 45.1232C30.1016 44.4607 30.7712 43.9362 31.5397 43.5984C32.3081 43.2606 33.1504 43.1204 33.9883 43.1909C34.9662 43.3131 35.8623 43.7932 36.5 44.5366C36.6477 44.7448 36.7489 44.9817 36.797 45.2315C36.8452 45.4814 36.839 45.7384 36.7791 45.9858C36.9075 46.1024 37.0634 46.1854 37.2326 46.2273H37.5814L37.407 46.6414ZM38.8023 43.95V44.226H38.3488C37.8983 43.8615 37.392 43.5703 36.8488 43.3634C34.8778 42.5693 32.7005 42.4241 30.6395 42.9494C29.8004 43.097 29.0063 43.4315 28.3173 43.9277C27.6283 44.4239 27.0625 45.0687 26.6628 45.8132V46.0203C26.486 46.3766 26.288 46.7223 26.0698 47.0554C25.824 47.3549 25.5292 47.6115 25.1977 47.8145H24.9883H24.814L24.5698 47.6075C24.4381 47.4411 24.3757 47.2313 24.3953 47.0209C23.9857 46.7447 23.4948 46.6111 23 46.6414H22.6511V46.2618C23.0157 44.9273 23.7677 43.7277 24.814 42.8113C26.9823 40.7639 29.8745 39.6369 32.8721 39.6714C34.4699 39.7021 36.0323 40.142 37.407 40.9481C37.8405 41.3228 38.1889 41.784 38.4293 42.3014C38.6698 42.8187 38.7969 43.3806 38.8023 43.95Z" fill="white"/>
<path d="M42.7093 51.9898C40.8228 52.1426 39.0196 52.8249 37.5117 53.9565C36.7971 54.5887 36.2513 55.3856 35.9227 56.2764C35.5942 57.1672 35.4929 58.1245 35.6279 59.0633C35.8827 60.9228 36.6438 62.6788 37.8297 64.1436C39.0155 65.6083 40.5817 66.7266 42.3605 67.3789C44.2076 67.9614 46.1704 68.0899 48.0789 67.7532C49.9875 67.4165 51.7843 66.6248 53.314 65.4466H53.6628C54.3477 65.2426 54.9527 64.8353 55.3957 64.2798C55.8387 63.7243 56.0984 63.0476 56.1396 62.3412C56.2096 61.8953 56.2096 61.4414 56.1396 60.9955C55.7376 58.8728 54.6331 56.9428 53 55.5093C51.6357 54.2336 50.0123 53.2598 48.238 52.653C46.4636 52.0461 44.5789 51.8201 42.7093 51.9898ZM51.7442 61.4441C51.7707 61.6981 51.744 61.9547 51.666 62.198C51.588 62.4414 51.4603 62.6663 51.2907 62.8588C51.3648 63.0171 51.4718 63.1582 51.6047 63.2729L51.8489 63.5489L51.5698 63.7559C49.446 65.2777 46.8641 66.0438 44.2442 65.9297C42.8568 65.872 41.5134 65.4309 40.3666 64.6563C39.2197 63.8818 38.3153 62.8048 37.7558 61.5476C37.4161 60.6688 37.2965 59.7217 37.407 58.7872V58.1316L37.8605 58.6147C38.54 59.2569 39.3319 59.7713 40.1977 60.1329C41.0448 60.4248 41.9668 60.4248 42.814 60.1329C43.3465 59.9575 43.8429 59.6887 44.2791 59.3393C44.5914 59.1125 44.9176 58.905 45.2559 58.7182C46.0159 58.3499 46.8601 58.1848 47.7046 58.2393C48.5492 58.2938 49.3646 58.5659 50.0698 59.0287C50.4993 59.2986 50.8691 59.6518 51.1569 60.0669C51.4447 60.482 51.6445 60.9505 51.7442 61.4441ZM54.2209 61.9617V62.2032H53.7326C53.4811 61.6831 53.1646 61.1962 52.7907 60.754C51.4154 59.1512 49.5572 58.0266 47.4884 57.5451C46.6724 57.2898 45.8081 57.2224 44.9617 57.3479C44.1153 57.4735 43.3091 57.7888 42.6047 58.2696H42.4302C42.0939 58.4966 41.7445 58.704 41.3838 58.8908C41.0427 59.0515 40.6774 59.1564 40.3023 59.2013H39.6744C39.6744 58.9943 39.6744 58.9252 39.6744 58.9252C39.5997 58.7248 39.5997 58.5046 39.6744 58.3042C39.4307 57.8946 39.0653 57.5693 38.6279 57.3725L38.314 57.2L38.5233 56.8895C39.4476 55.8592 40.6625 55.1262 42.0116 54.7847C43.4364 54.3625 44.9317 54.2245 46.4108 54.3785C47.8898 54.5325 49.3233 54.9755 50.6279 55.6818C52.063 56.4193 53.2687 57.5284 54.1163 58.8908C54.3393 59.37 54.4634 59.8885 54.4813 60.4158C54.4993 60.9431 54.4108 61.4686 54.2209 61.9617Z" fill="white"/>
<path d="M58.8953 47.9871C59.101 46.0838 58.8299 44.1596 58.106 42.3844C57.382 40.6092 56.2275 39.0376 54.7442 37.8082C54.7649 37.729 54.7649 37.6458 54.7442 37.5666C54.3846 36.9825 53.8679 36.5087 53.252 36.198C52.636 35.8873 51.945 35.7519 51.2558 35.8069C50.8043 35.8457 50.3592 35.9384 49.9302 36.0829C47.9199 36.9086 46.2489 38.3791 45.186 40.258C44.2353 41.791 43.6145 43.5016 43.3624 45.2827C43.1103 47.0638 43.2324 48.8771 43.7209 50.6094C44.3139 50.6094 45.1512 50.6094 46.0233 50.6094C44.9388 48.1948 44.7776 45.4728 45.5698 42.9494C46.0096 41.4342 46.853 40.0638 48.0116 38.9813C48.4755 38.5595 49.0318 38.2497 49.637 38.0761C50.2422 37.9025 50.8799 37.8698 51.5 37.9807H51.7442V38.4292C51.2669 38.7795 50.8335 39.185 50.4535 39.6369C49.174 41.3101 48.4545 43.3366 48.3953 45.4337C48.3172 46.2741 48.4337 47.121 48.7359 47.9102C49.0381 48.6994 49.5181 49.4101 50.1395 49.9884V50.1609C50.464 50.4129 50.7568 50.7026 51.0116 51.0235C51.228 51.3288 51.3929 51.6667 51.5 52.0241L52.3372 52.5417C52.4281 52.2596 52.4981 51.9713 52.5465 51.6791C52.6965 50.8056 52.5493 49.9076 52.1279 49.1258C51.8266 48.6647 51.4627 48.2468 51.0465 47.8836C50.7335 47.6432 50.4523 47.365 50.2093 47.0554C49.7037 46.3875 49.3751 45.6052 49.2532 44.7796C49.1314 43.954 49.2202 43.1113 49.5116 42.3283C49.8855 41.4304 50.5989 40.7124 51.5 40.327C51.7302 40.2241 51.9799 40.1709 52.2326 40.1709C52.4852 40.1709 52.7349 40.2241 52.9651 40.327C52.9651 40.327 53.1395 40.327 53.3488 39.9475L53.5232 39.6714L53.8023 39.913C55.752 41.6573 57.0437 44.0057 57.4651 46.5724C57.6898 47.9213 57.5278 49.3054 56.9975 50.5679C56.4672 51.8303 55.59 52.9206 54.4651 53.7149L54.186 53.8874C54.5403 54.2036 54.8779 54.5376 55.1976 54.888C57.2766 53.1398 58.5998 50.6703 58.8953 47.9871Z" fill="white"/>
<path d="M31.6512 21.2113L31.6163 21.1768L31.6512 21.2113Z" fill="white"/>
<path d="M29 25.8006C28.2642 26.1309 27.6672 26.7037 27.3109 27.4211C26.9546 28.1385 26.8611 28.9561 27.0465 29.7341C27.4274 30.8782 28.1042 31.9037 29.01 32.7088C29.9157 33.5139 31.0187 34.0705 32.2093 34.3232C33.2558 34.5303 33.1163 33.2191 32.8372 32.6325C32.3912 31.7191 31.6029 31.0136 30.6396 30.6657C30.7567 30.3883 30.9356 30.1407 31.1628 29.9411C31.7711 29.4744 32.4256 29.0697 33.1163 28.7334C33.478 28.4969 33.7649 28.1642 33.9439 27.7735C34.1228 27.3828 34.1867 26.9501 34.1279 26.5251C33.951 25.2969 33.3756 24.1586 32.4884 23.2817C32.1047 22.8676 31.686 22.5226 31.2674 22.143L30.8488 21.798C30.9443 21.5751 31.0871 21.375 31.2674 21.2114C31.9863 20.7617 32.8241 20.5335 33.6744 20.5558C34.0233 20.5558 34.1628 20.0728 34.1628 19.7622C34.1428 19.2585 33.9593 18.7745 33.6396 18.382C33.3851 17.9319 33.0164 17.5551 32.5698 17.2889C32.1233 17.0226 31.6143 16.8761 31.093 16.8638C29.5232 16.8638 27.6047 17.5194 27.3256 19.3481C27.0465 21.1769 28.9651 23.4197 30.5349 24.7309C30.3954 25.2484 29.5233 25.5245 29 25.8006ZM30.6744 24.5584C30.6744 24.5584 30.5 24.4894 30.5698 24.5584H30.6744Z" fill="white"/>
<path d="M49.4767 23.0056C48.7409 23.336 48.1438 23.9088 47.7876 24.6262C47.4313 25.3436 47.3378 26.1612 47.5232 26.9392C47.8868 28.1048 48.5671 29.1492 49.4898 29.9584C50.4126 30.7677 51.5423 31.3107 52.7558 31.5283C53.8023 31.7353 53.6627 30.3896 53.3837 29.8376C53.1675 29.382 52.8619 28.9735 52.4846 28.6358C52.1073 28.2982 51.6659 28.0381 51.186 27.8708C51.3173 27.5924 51.5077 27.3453 51.7442 27.1462C52.3349 26.6724 52.9786 26.2671 53.6627 25.9385C54.0276 25.705 54.3169 25.3727 54.4962 24.9812C54.6756 24.5897 54.7374 24.1555 54.6744 23.7302C54.5046 22.5069 53.9421 21.3699 53.0697 20.4867C52.6852 20.072 52.265 19.691 51.8139 19.3481L51.3953 19.0031C51.5181 18.7876 51.6708 18.5902 51.8488 18.4165C52.5505 17.9573 53.3803 17.728 54.2209 17.7609C54.6046 17.7609 54.7442 17.2433 54.7442 16.9672C54.6947 16.464 54.501 15.9852 54.186 15.5871C53.9346 15.1419 53.5713 14.7682 53.1314 14.5023C52.6914 14.2364 52.1896 14.0871 51.6744 14.0688C50.0697 14.0688 48.186 14.7245 47.8721 16.5187C47.5581 18.313 49.5465 20.6248 51.1162 21.9359C50.8721 22.4535 49.9651 22.7295 49.4767 23.0056ZM51.1511 21.7635C51.1511 21.7635 50.9418 21.6944 51.0116 21.7635H51.1511Z" fill="white"/>
<path d="M38.8023 28.1816C38.4367 28.3873 38.1258 28.676 37.8953 29.024C37.6649 29.372 37.5213 29.7692 37.4767 30.1829C37.2674 32.2877 39.6395 33.875 41.2093 34.8066C41.703 35.1457 42.2434 35.413 42.8139 35.6002C43.1879 35.7214 43.5911 35.7214 43.9651 35.6002C44.7325 35.2206 43.2674 34.1165 43.0233 33.944L42.2907 33.5989C42.1163 33.4264 42.2907 33.5989 42.1162 33.3919C41.9287 33.1102 41.8288 32.7803 41.8288 32.443C41.8288 32.1057 41.9287 31.7758 42.1162 31.4941C42.8837 30.3899 44.8023 30.1829 45.1163 28.6647C45.165 28.2335 45.1116 27.797 44.9602 27.3897C44.8088 26.9825 44.5637 26.6157 44.2442 26.3184C43.933 25.9812 43.5947 25.6696 43.2326 25.3867L42.7093 24.9727V24.7657C42.6946 24.605 42.6946 24.4433 42.7093 24.2826C42.7597 23.9191 42.9039 23.5745 43.1279 23.2819C43.6834 22.6873 44.3782 22.2371 45.1512 21.9708C45.9186 21.6258 44.4535 20.5216 44.2093 20.3491C43.7003 20.0147 43.149 19.7478 42.5698 19.5554C42.1954 19.4366 41.7929 19.4366 41.4186 19.5554C39.7791 20.28 37.9302 21.6257 38.8721 23.6615C39.4041 24.5167 40.1184 25.2469 40.9651 25.8008C40.9588 25.8927 40.9588 25.985 40.9651 26.0769C41.0083 26.2408 41.015 26.4121 40.9849 26.5788C40.9548 26.7456 40.8886 26.904 40.7907 27.043C40.2161 27.5565 39.5386 27.9444 38.8023 28.1816Z" fill="white"/>
</g>
<defs>
<clipPath id="clip0_90_28">
<rect width="39" height="54" fill="white" transform="translate(20 14)"/>
</clipPath>
</defs>
</svg>
