<svg width="81" height="81" viewBox="0 0 81 81" fill="none" xmlns="http://www.w3.org/2000/svg">
<rect width="81" height="81" rx="40.5" fill="#FFC0CB"/>
<g clip-path="url(#clip0_90_47)">
<path d="M35.0818 32.7241C34.9655 32.1176 34.7159 31.5442 34.3509 31.0453C33.959 30.4468 33.5006 29.8943 32.9844 29.3983C32.213 28.5957 31.3611 27.874 30.4422 27.2444C29.8299 26.8981 29.1436 26.7026 28.4402 26.6743C27.5985 26.6114 26.7521 26.6755 25.9297 26.8643C25.081 27.0537 24.3268 27.5362 23.8005 28.2263C23.6453 28.3807 23.5408 28.5786 23.5011 28.7936C23.4614 29.0086 23.4882 29.2305 23.5781 29.43C23.8786 29.8731 24.2077 30.2963 24.5632 30.6969L28.6626 36.0182C29.3299 36.8734 29.9655 37.7286 30.6646 38.5838C31.3638 39.439 32.0628 40.1358 32.762 40.9277C33.3964 41.6678 33.9307 42.4878 34.3509 43.3666C34.7399 44.2191 35.0691 45.0976 35.336 45.9956C35.6538 46.9141 35.9398 47.801 36.3212 48.6562C36.7154 49.5646 37.1941 50.4342 37.7512 51.2535C38.2833 52.0774 38.8897 52.8513 39.5625 53.5657C40.1981 54.1992 40.9608 54.7059 41.5328 55.3711C42.1286 56.0947 42.562 56.9372 42.8039 57.8417C43.0899 58.7286 43.3124 59.6472 43.6302 60.5657C43.7944 60.9891 43.9855 61.4017 44.2021 61.801C44.361 62.1178 45.505 61.801 45.3779 61.4842C44.4881 59.8689 44.2975 58.0001 43.5348 56.3213C43.1649 55.5615 42.6463 54.8831 42.0094 54.3259C41.3275 53.7518 40.6902 53.127 40.1028 52.4571C38.8541 50.999 37.8653 49.3385 37.1792 47.5476C36.6522 45.8197 36.0153 44.127 35.2725 42.4797C34.1905 40.8557 32.9677 39.3295 31.618 37.9186C30.2515 36.2716 28.9804 34.5612 27.6775 32.8508C27.0101 32.0273 26.3428 31.172 25.7072 30.3168L25.2305 29.715C25.0362 29.5133 24.8656 29.2901 24.7221 29.0498C24.5314 28.6381 24.7221 28.163 25.1034 27.8779C25.2283 27.7263 25.3789 27.5976 25.5483 27.4978H25.739H26.1839C26.8888 27.4334 27.5996 27.4978 28.2813 27.6879C28.6983 27.842 29.0854 28.067 29.4253 28.353C29.8702 28.7014 30.315 29.0499 30.7282 29.43C31.7715 30.3055 32.6256 31.3831 33.2387 32.5974C33.352 32.8514 33.4372 33.1169 33.4929 33.3892C33.4929 33.6743 34.7005 33.3892 34.6687 33.0725" fill="white"/>
<path d="M48.0791 43.2399C47.3379 43.5552 46.5307 43.6857 45.7275 43.62C44.9715 43.5932 44.218 43.5191 43.4713 43.3982C42.2478 43.1258 41.1382 42.4844 40.2935 41.5612C40.2236 41.4988 40.133 41.4644 40.0392 41.4644C39.9454 41.4644 39.8549 41.4988 39.785 41.5612C39.7495 41.5965 39.7212 41.6384 39.702 41.6846C39.6827 41.7308 39.6729 41.7803 39.6729 41.8304C39.6729 41.8804 39.6827 41.9299 39.702 41.9761C39.7212 42.0223 39.7495 42.0643 39.785 42.0996C40.7154 43.1629 41.944 43.9241 43.3124 44.2851C44.1623 44.4425 45.0226 44.5378 45.8864 44.5702C46.7945 44.6267 47.7021 44.4523 48.524 44.0634C48.9689 43.8417 48.524 43.1765 48.1427 43.3982" fill="white"/>
<path d="M55.3563 36.1448C55.4871 35.6563 55.5179 35.1465 55.4469 34.6459C55.3759 34.1453 55.2047 33.664 54.9432 33.2307C54.7846 32.8374 54.492 32.5122 54.117 32.3122C53.8202 32.1785 53.5118 32.0725 53.1954 31.9955L52.0196 31.6787C49.7393 31.1565 47.3906 30.9962 45.0602 31.2036L41.5646 31.3936C40.8337 31.3936 40.1028 31.3936 39.4037 31.647C38.7046 31.9004 37.5287 31.647 37.0838 32.5973C36.8525 33.2365 36.7447 33.9135 36.7661 34.5927C36.7026 35.3516 36.7026 36.1144 36.7661 36.8733C36.7661 37.285 36.7661 37.6968 36.9885 38.1086C37.211 38.5203 37.1792 38.8371 37.2745 39.2172C37.3402 39.704 37.4908 40.1757 37.7194 40.6108C37.8505 40.9043 38.0431 41.1664 38.2842 41.3795C38.5254 41.5926 38.8096 41.7517 39.1176 41.8461C39.4615 41.9783 39.8307 42.0324 40.1981 42.0045C40.3407 42.0099 40.4827 41.9843 40.6144 41.9296C40.7461 41.875 40.8643 41.7924 40.9608 41.6878C40.9608 41.466 40.9608 41.371 40.6748 41.371H40.357H40.071C39.8315 41.3039 39.6088 41.1875 39.4172 41.0292C39.2256 40.871 39.0695 40.6746 38.9588 40.4525C38.7153 40.0294 38.5435 39.5692 38.4503 39.0904C38.4503 38.552 38.1961 38.0769 38.1008 37.5701C37.8782 36.164 37.8782 34.7319 38.1008 33.3258C38.1427 33.0641 38.2174 32.8087 38.3232 32.5656V32.4072H38.5457H39.1176L41.1833 32.1855C41.3205 32.2012 41.4591 32.2012 41.5964 32.1855H42.4862H44.1386C46.2558 31.9549 48.3948 32.0189 50.4943 32.3755C51.1934 32.5339 51.9243 32.6923 52.6234 32.914C52.8948 32.9898 53.1603 33.0851 53.4178 33.199C53.5807 33.3339 53.7202 33.4944 53.831 33.6742C54.1136 34.1303 54.3077 34.6353 54.403 35.1629C54.5296 35.6403 54.5296 36.1424 54.403 36.6199C54.403 36.8733 54.7843 36.8416 54.9114 36.8416C55.0385 36.8416 55.4835 36.8416 55.5788 36.4615" fill="white"/>
<path d="M54.2123 32.3757C54.3477 32.0731 54.3986 31.7397 54.3594 31.4107C54.3203 31.0818 54.1926 30.7695 53.9899 30.5069C53.5469 29.9485 52.9508 29.5303 52.2739 29.3033C50.8121 28.6487 49.3185 28.0469 47.7931 27.4979C44.8432 26.3256 41.7179 25.6512 38.5457 25.5024C38.1462 25.4645 37.7433 25.5192 37.3685 25.662C36.9936 25.8049 36.657 26.032 36.3848 26.3259C36.0102 26.7185 35.6699 27.1424 35.3678 27.5929C34.8314 28.4817 34.455 29.4572 34.2556 30.4752C33.8746 32.3781 33.8746 34.3371 34.2556 36.2399C34.3217 36.8301 34.553 37.3898 34.9229 37.8553C35.6596 38.5503 36.5374 39.0796 37.497 39.4073H37.6876C37.8378 39.4453 37.9952 39.4448 38.1451 39.406C38.2951 39.3673 38.4329 39.2915 38.5457 39.1857C38.7363 38.9639 38.5457 38.7422 38.5457 38.6472C37.8927 38.4248 37.2728 38.1158 36.7025 37.7286C36.3864 37.5345 36.1155 37.2753 35.9081 36.9684C35.8943 36.9058 35.8943 36.841 35.9081 36.7784C35.8944 36.6521 35.8944 36.5246 35.9081 36.3983C35.5264 34.7573 35.4617 33.0589 35.7174 31.3938C35.8224 30.4681 36.0577 29.5617 36.4165 28.7015C36.5751 28.2585 36.8001 27.842 37.0838 27.4662C37.18 27.3035 37.2976 27.1544 37.4334 27.0227C37.6071 26.7969 37.7984 26.5851 38.0054 26.3892C38.2017 26.3263 38.4129 26.3263 38.6092 26.3892H39.785L42.0095 26.706C43.467 26.9747 44.9013 27.356 46.2996 27.8463C47.8885 28.3847 49.4774 28.9865 50.971 29.6517C51.6839 29.9014 52.3662 30.2308 53.0048 30.6336C53.2764 30.8162 53.4817 31.0812 53.5905 31.3893C53.6992 31.6973 53.7056 32.0321 53.6086 32.344C53.3225 32.9142 54.5301 32.8825 54.7208 32.344" fill="white"/>
<path d="M40.1663 31.3622L39.6897 29.9052C39.6897 29.6201 39.2448 29.5568 38.9588 29.6201C38.814 29.6745 38.6835 29.7612 38.5774 29.8735C38.5538 29.9286 38.5417 29.9878 38.5417 30.0477C38.5417 30.1076 38.5538 30.1669 38.5774 30.2219L39.0859 31.6789C39.1478 31.803 39.2529 31.9004 39.3815 31.9528C39.5102 32.0053 39.6536 32.0092 39.785 31.964C39.9429 31.9178 40.0856 31.8303 40.1981 31.7106C40.2288 31.6576 40.245 31.5975 40.245 31.5364C40.245 31.4752 40.2288 31.4152 40.1981 31.3622" fill="white"/>
<path d="M48.6829 27.8143C48.0615 26.4209 47.3171 25.0853 46.4584 23.8234C46.0453 23.1582 45.6639 22.493 45.2826 21.8279C44.9647 21.2299 44.5694 20.6762 44.1068 20.1809C43.6798 19.833 43.1804 19.5841 42.645 19.4523L40.9607 19.0406C40.3252 18.8822 39.7214 18.6288 39.0858 18.4388L36.9885 17.932C35.5902 17.6152 34.1284 17.3618 32.6984 17.0768C32.3983 16.9833 32.0896 16.9196 31.7768 16.8867C31.365 16.8962 30.9574 16.9711 30.5693 17.1085C30.2712 17.1961 29.9952 17.3459 29.7596 17.548C29.524 17.75 29.3342 17.9997 29.2028 18.2804C29.0454 18.7966 29.0454 19.3478 29.2028 19.8641C29.4094 20.3855 29.7625 20.8364 30.2197 21.1628C31.1663 21.9353 32.242 22.5357 33.3975 22.9365L35.3678 23.5066L37.3063 24.0768C37.6666 24.1542 38.0107 24.2935 38.3231 24.4885C38.8066 24.8608 39.1258 25.4061 39.213 26.0089C39.213 26.2623 40.4841 26.0089 40.4205 25.6921C40.3444 25.2424 40.1432 24.8229 39.8399 24.4814C39.5366 24.1398 39.1432 23.8899 38.7045 23.76C37.7512 23.4433 36.7978 23.1899 35.8127 22.9048C34.7068 22.6238 33.6396 22.209 32.6349 21.6695C32.1112 21.3871 31.6208 21.0471 31.173 20.656C30.9562 20.4715 30.7543 20.2703 30.5693 20.0541C30.441 19.8032 30.3449 19.5371 30.2832 19.2623C30.1107 18.7918 30.1107 18.2757 30.2832 17.8053C30.4041 17.6098 30.5813 17.4552 30.7917 17.3618H31.2366L35.336 18.1854C36.6811 18.4623 38.0078 18.8219 39.3083 19.2623C40.3989 19.4481 41.465 19.7563 42.4861 20.1809C43.0476 20.5504 43.4978 21.0649 43.789 21.6695C44.2021 22.398 44.6153 23.0949 45.0602 23.7917C45.9586 25.146 46.7552 26.5646 47.4435 28.0361C47.4435 28.2894 48.7146 28.036 48.6193 27.7193" fill="white"/>
<path d="M48.9371 43.8097C48.893 42.9889 48.7325 42.1785 48.4604 41.4025C48.4604 41.1808 47.8884 41.0224 47.666 40.8957L45.1873 39.5337C44.9192 39.8658 44.734 40.2566 44.647 40.674C45.7577 40.6869 46.8485 40.9696 47.8249 41.4975C48.7146 42.2577 48.81 43.4297 47.2211 44.0315L48.9371 43.8097Z" fill="white"/>
<path d="M49.5409 43.6514C49.5249 43.2025 49.4609 42.7565 49.3502 42.3211C49.3228 41.9577 49.2257 41.6028 49.0642 41.2758C48.9285 41.0614 48.7284 40.8951 48.4922 40.8008L47.666 40.3573L45.664 39.2804C45.4826 39.224 45.2891 39.2177 45.1044 39.2623C44.9197 39.307 44.7506 39.4008 44.6153 39.5338C44.3584 39.9077 44.1751 40.327 44.0751 40.7691C44.0751 40.9591 44.2975 40.9591 44.4246 40.9591H44.7424H45.1873L46.1089 41.1492C46.5743 41.2083 47.0143 41.3947 47.38 41.6876C47.5472 41.8186 47.6807 41.9876 47.7691 42.1805C47.8576 42.3733 47.8985 42.5844 47.8885 42.7962C47.8494 43.019 47.7482 43.2262 47.5964 43.3942C47.4447 43.5623 47.2485 43.6844 47.0304 43.7464C47.0304 43.7464 46.5855 43.9048 46.6491 44.0948C46.7127 44.2849 47.0305 44.0948 47.1576 44.0948L48.8418 43.8732C49.0325 43.8732 49.4774 43.8731 49.5409 43.493C49.6045 43.1129 49.1596 43.303 49.0325 43.303L47.3482 43.5247V43.9998C48.2062 43.6831 49.2867 42.9229 48.8736 41.846C48.6483 41.4356 48.3241 41.0875 47.9302 40.8332C47.5364 40.5788 47.0851 40.4262 46.6173 40.389C46.0076 40.2735 45.3925 40.1889 44.7742 40.1356L45.1238 40.3573C45.2024 39.9778 45.3653 39.6207 45.6004 39.3121L44.5517 39.5655L46.4902 40.6424L47.2847 41.0541C47.4753 41.0541 47.6978 41.2442 47.7613 41.4026C47.9197 41.7419 48.0166 42.1065 48.0474 42.4795C48.147 42.8947 48.2002 43.3196 48.2062 43.7464C48.2062 44.0632 49.4138 43.7465 49.4138 43.4297" fill="white"/>
<path d="M43.5666 43.4297C42.8264 43.1589 42.177 42.6871 41.6917 42.0677C41.2565 41.4682 40.973 40.7728 40.8654 40.0406C40.7372 39.1477 40.7372 38.2412 40.8654 37.3483C40.8654 36.9365 40.8654 36.5247 41.0243 36.0813C41.0683 35.7413 41.2121 35.4217 41.4375 35.1628C41.6357 35.0339 41.8682 34.9677 42.1048 34.9727C42.524 34.8888 42.9489 34.8358 43.3759 34.8143C44.2858 34.751 45.199 34.751 46.1089 34.8143C47.92 34.9423 49.7232 35.1643 51.5111 35.4795C52.297 35.5077 53.0582 35.7606 53.7039 36.208C54.2382 36.7084 54.6044 37.3611 54.7525 38.0768C55.2241 39.658 55.4281 41.3065 55.3563 42.9546C55.3563 46.2804 54.5301 49.5745 54.5301 52.932C54.4708 53.5908 54.5246 54.2549 54.689 54.8958C54.8949 55.3979 55.1732 55.8674 55.5152 56.2894C56.2143 57.2713 57.1041 58.1266 57.7397 59.1718C57.8643 59.362 57.9708 59.5635 58.0575 59.7736C58.0575 60.0904 59.3286 59.7736 59.2332 59.4569C59.027 58.9646 58.7486 58.5055 58.407 58.0948L57.1677 56.5745C56.7716 56.1012 56.4205 55.5922 56.119 55.0542C55.833 54.5311 55.7009 53.9383 55.7377 53.3437C55.7377 49.8279 56.4368 46.3437 56.5321 42.8596C56.6302 41.1398 56.4368 39.4158 55.9601 37.76C55.7768 37.0162 55.3921 36.3369 54.8479 35.7962C54.1718 35.3294 53.3807 35.0556 52.5598 35.0044C50.6773 34.6662 48.7787 34.4231 46.8715 34.2759C45.9182 34.2759 44.9331 34.2759 43.9797 34.2759C43.0526 34.2972 42.1329 34.4464 41.2468 34.7193C40.8539 34.829 40.5009 35.0489 40.2299 35.3528C40.0104 35.6605 39.8786 36.0217 39.8485 36.398C39.6695 37.3162 39.5844 38.2501 39.5943 39.1854C39.5421 39.9772 39.6858 40.7695 40.0127 41.493C40.3396 42.2165 40.8398 42.8489 41.4692 43.3347C41.8304 43.5626 42.2136 43.7536 42.6132 43.9048C42.881 43.9965 43.1717 43.9965 43.4395 43.9048C43.4395 43.9048 43.8208 43.6514 43.4395 43.5564" fill="white"/>
<path d="M23.3238 25.2173C22.8678 24.9712 22.5019 24.5869 22.2792 24.1201C22.0564 23.6532 21.9883 23.1279 22.0845 22.62C22.2059 22.1698 22.4254 21.7518 22.7276 21.3959C23.0297 21.04 23.4069 20.755 23.8323 20.5612C24.6805 20.1661 25.5982 19.9401 26.5334 19.896C26.9465 19.896 27.4232 19.896 27.6457 20.1811C27.7444 20.3084 27.8 20.4637 27.8045 20.6245C27.8045 21.4481 27.0737 22.1132 26.2474 22.3666C25.4212 22.62 24.595 22.62 23.8005 22.8734C23.5977 22.9347 23.4126 23.0433 23.2603 23.1901C23.1632 23.3322 23.0986 23.4938 23.0711 23.6634C23.0437 23.8331 23.054 24.0068 23.1014 24.172C23.2208 24.5093 23.2956 24.8607 23.3238 25.2173Z" fill="white"/>
<path d="M23.3874 25.1857C22.9431 24.9367 22.5879 24.5556 22.3714 24.0957C22.1549 23.6357 22.0879 23.1198 22.1798 22.6201C22.3457 22.0446 22.6631 21.5238 23.0989 21.1117C23.5347 20.6995 24.0732 20.4111 24.6585 20.2762C25.2956 20.0686 25.9589 19.9513 26.6288 19.9278C26.7793 19.8978 26.9347 19.9022 27.0833 19.9406C27.2319 19.979 27.3698 20.0504 27.4868 20.1495C27.5709 20.288 27.6154 20.4469 27.6154 20.6088C27.6154 20.7707 27.5709 20.9296 27.4868 21.0681C27.1054 22.4301 25.4212 22.4617 24.309 22.6834C23.8323 22.6834 23.1649 22.9052 22.9425 23.3803C22.72 23.8554 22.9425 24.6472 23.1014 25.249H23.292C23.292 24.6472 22.7518 23.792 23.292 23.2536C23.6541 22.9858 24.0826 22.8215 24.5314 22.7785L25.6436 22.6201C26.597 22.43 27.9952 21.7966 27.8363 20.5613C27.8363 19.9911 27.169 19.8644 26.6605 19.8961C25.995 19.9372 25.3351 20.0433 24.6903 20.2129C24.1083 20.3411 23.5642 20.6024 23.1009 20.9762C22.6377 21.35 22.2679 21.826 22.0209 22.3667C21.8233 22.9127 21.8302 23.5114 22.0404 24.0527C22.2506 24.594 22.65 25.0414 23.1649 25.3124C23.1649 25.3124 23.3874 25.3124 23.1649 25.3124" fill="white"/>
<path d="M24.1183 25.5022C24.2001 25.534 24.2908 25.534 24.3725 25.5022C25.2285 25.4812 26.0585 25.2054 26.7559 24.7104C27.3803 24.3363 27.8783 23.7848 28.186 23.1266C28.3507 22.8027 28.4365 22.4446 28.4365 22.0814C28.4365 21.7182 28.3507 21.3601 28.186 21.0361C28.0537 21.3774 27.853 21.6882 27.5962 21.9496C27.3394 22.211 27.0319 22.4176 26.6924 22.5565C26.0261 22.834 25.3343 23.0462 24.6268 23.19C24.4065 23.2275 24.2005 23.3236 24.0305 23.4682C23.8606 23.6129 23.733 23.8006 23.6614 24.0116C23.5897 24.2226 23.5766 24.449 23.6235 24.6668C23.6704 24.8846 23.7755 25.0857 23.9276 25.2488L24.0865 25.4388" fill="white"/>
<path d="M24.023 25.6607C24.2903 25.7549 24.5819 25.7549 24.8492 25.6607C25.1844 25.6665 25.518 25.6129 25.8344 25.5023C26.4573 25.2935 27.0306 24.9593 27.5186 24.5204C27.9888 24.158 28.3293 23.6541 28.4896 23.0836C28.6499 22.513 28.6214 21.9062 28.4084 21.353C28.4084 21.353 28.2177 21.353 28.186 21.353C28.0689 21.6667 27.8907 21.9541 27.6616 22.1988C27.4326 22.4434 27.1572 22.6404 26.8513 22.7784C26.1358 23.0477 25.4033 23.27 24.6586 23.4435C24.431 23.4929 24.2203 23.6007 24.0475 23.7562C23.8747 23.9118 23.7458 24.1098 23.6735 24.3304C23.6271 24.5861 23.6433 24.8492 23.7208 25.0974C23.7982 25.3455 23.9346 25.5713 24.1183 25.7557C24.1183 25.7557 24.3726 25.7557 24.309 25.7557C24.1034 25.5672 23.9576 25.3227 23.8899 25.0525C23.8221 24.7823 23.8352 24.4982 23.9276 24.2354C24.2136 23.6019 25.0081 23.5702 25.5801 23.4118C26.1813 23.3412 26.7551 23.1216 27.2491 22.773C27.7432 22.4244 28.1417 21.958 28.4084 21.4164H28.186C28.4602 21.937 28.5467 22.5357 28.431 23.1123C28.3153 23.6889 28.0044 24.2084 27.5504 24.5838C26.9282 25.1967 26.1468 25.6245 25.2941 25.8191C25.0081 25.8191 24.5314 26.0091 24.2772 25.8191C24.023 25.6291 24.0548 25.8191 24.2772 25.8191" fill="white"/>
<path d="M25.4212 18.6292C25.4212 17.774 25.4212 16.9504 25.4212 16.0952C25.4212 16.0952 25.4213 16.0952 25.2624 16.0952H24.9446C24.7857 16.0952 24.5314 16.0952 24.5314 16.412C24.5314 17.2355 24.5314 18.0907 24.5314 18.9142C24.6457 18.9468 24.7668 18.9468 24.881 18.9142C24.881 18.9142 25.2941 18.9142 25.2624 18.6292" fill="white"/>
<path d="M21.7032 19.801C21.2958 19.3888 20.8487 19.0175 20.3685 18.6924H20.1461H19.7965C19.7965 18.6924 19.4152 18.6923 19.5423 18.9457C20.0187 19.2631 20.456 19.6352 20.8452 20.0544H21.0676C21.1819 20.0869 21.303 20.0869 21.4172 20.0544C21.4172 20.0544 21.7985 20.0543 21.7032 19.801Z" fill="white"/>
<path d="M20.6227 23.0317C19.5741 23.0317 18.5572 23.0317 17.4449 23.0317C17.4449 23.0317 16.9682 23.0318 16.9365 23.3485C16.9047 23.6652 17.1907 23.6019 17.3496 23.5702C18.3029 23.5702 19.2563 23.5702 20.2096 23.5702C20.3228 23.5753 20.4358 23.5553 20.5402 23.5114C20.6447 23.4676 20.738 23.4011 20.8134 23.3168C20.8134 23.1267 20.8134 23.0317 20.5592 23.0317" fill="white"/>
<path d="M21.0676 26.3893L20.2414 27.4662C20.2414 27.4662 20.2414 27.4663 20.2414 27.688C20.249 27.7327 20.2724 27.7733 20.3073 27.8023C20.3423 27.8314 20.3865 27.847 20.4321 27.8464H20.7498C20.86 27.8264 20.9606 27.7707 21.0358 27.688L21.8621 26.6111C21.8816 26.5774 21.8919 26.5391 21.8919 26.5002C21.8919 26.4613 21.8816 26.423 21.8621 26.3893C21.8621 26.3473 21.8453 26.3071 21.8155 26.2774C21.7857 26.2477 21.7453 26.231 21.7032 26.231H21.3536C21.2434 26.2509 21.1428 26.3066 21.0676 26.3893Z" fill="white"/>
<path d="M40.2935 62.6244C40.7701 63.2262 42.2001 64.7149 42.2001 64.7149H63.4916V61.2307C62.0616 60.3755 60.6633 57.8099 59.3604 56.7646C57.3551 58.4366 54.8539 59.4049 52.2421 59.5203C49.6424 59.4005 47.0379 59.6026 44.4882 60.1221C43.0744 60.7795 41.6955 61.5089 40.357 62.3076C40.3209 62.3526 40.3012 62.4084 40.3012 62.466C40.3012 62.5236 40.3209 62.5795 40.357 62.6244" fill="white"/>
<path d="M39.8485 62.8146C40.2268 63.3088 40.641 63.7747 41.0879 64.2083L41.6281 64.7784C41.6706 64.8394 41.7278 64.8887 41.7944 64.9219C41.861 64.9551 41.935 64.9712 42.0094 64.9685H63.3008C63.5233 64.9685 63.9999 64.9685 63.9999 64.5884V61.1992C63.9999 60.9775 63.7139 60.8825 63.555 60.7558C62.881 60.1788 62.2831 59.5189 61.7755 58.792C61.2077 57.9883 60.5581 57.2453 59.837 56.5748C59.7077 56.4965 59.5593 56.4551 59.408 56.4551C59.2567 56.4551 59.1083 56.4965 58.979 56.5748C56.6953 58.4167 53.8095 59.353 50.8756 59.2038C49.2418 59.1405 47.6056 59.204 45.9817 59.3938C45.2903 59.4868 44.616 59.6788 43.9797 59.964L42.5179 60.6925L40.8336 61.611C40.5159 61.801 39.5625 62.1495 39.8167 62.6246C40.0709 63.0997 40.929 62.6246 40.8019 62.3395H41.0561L41.6599 61.9911L43.1534 61.1675L44.4564 60.5341C45.0358 60.2947 45.6451 60.1349 46.2677 60.059C47.8248 59.8689 49.4455 60.059 51.0344 60.059C52.5398 60.0027 54.0332 59.7688 55.4834 59.3621C57.0858 58.9394 58.5662 58.1474 59.8052 57.0499H58.9472C60.5361 58.3486 61.3306 60.4707 63.142 61.5477V65.0318L63.8411 64.6517H43.4394C43.1642 64.6359 42.8884 64.6359 42.6132 64.6517H42.8992C42.2147 64.0009 41.5775 63.3023 40.9925 62.5612C40.8019 62.3078 39.8485 62.5612 40.0709 62.9413" fill="white"/>
</g>
<defs>
<clipPath id="clip0_90_47">
<rect width="47" height="49" fill="white" transform="translate(17 16)"/>
</clipPath>
</defs>
</svg>
