<svg width="81" height="81" viewBox="0 0 81 81" fill="none" xmlns="http://www.w3.org/2000/svg">
<rect width="81" height="81" rx="40.5" fill="#FFC0CB"/>
<g clip-path="url(#clip0_90_109)">
<path d="M28.3139 62.3899C36.4113 62.7699 44.5227 62.7156 52.6146 62.2271L51.2616 59.8384L25.8202 61.8742C25.8202 61.8742 26.3242 63.0685 26.3508 63.15L26.8813 63.9915C26.8813 63.9915 27.067 64.2629 27.1732 64.2629C33.5932 65.041 40.0398 65.5749 46.5129 65.8644L45.1334 63.4757C41.6315 63.4757 38.1297 63.6386 34.5217 63.4757C34.6561 63.9182 34.8338 64.3457 35.0523 64.7515C35.2137 65.0332 35.3909 65.3051 35.5829 65.5659C35.5829 65.5659 35.7686 65.8644 35.8747 65.8644C39.3766 65.8644 42.9049 65.8644 46.4864 65.8644C46.3417 65.4216 46.1551 64.9943 45.9293 64.5887C45.7767 64.3014 45.5991 64.0289 45.3987 63.7743C45.3987 63.7743 45.2395 63.4757 45.1068 63.4757C38.6514 63.2043 32.2137 62.6704 25.7936 61.8742L27.1467 64.2629L52.5881 62.2271C52.5881 62.2271 52.084 61.0598 52.0309 60.9513C51.9779 60.8427 51.7126 60.4084 51.5269 60.137C51.3412 59.8655 51.3412 59.8384 51.2351 59.8384C43.1344 60.327 35.0141 60.3814 26.9079 60.0012C27.0688 60.4374 27.2548 60.8634 27.465 61.277L27.9956 62.0913C27.9956 62.0913 28.1547 62.3899 28.2874 62.3899" fill="white"/>
<path d="M48.6618 62.1184C41.664 62.589 34.6421 62.5436 27.6507 61.9827C27.4953 61.9551 27.336 61.9624 27.1837 62.0042C27.0314 62.0459 26.8898 62.121 26.7686 62.2243C26.6475 62.3275 26.5498 62.4565 26.4822 62.6023C26.4146 62.7481 26.3788 62.9071 26.3773 63.0684C26.4012 63.4229 26.5479 63.7571 26.7911 64.0109C27.0342 64.2646 27.3578 64.4213 27.7038 64.4528C34.9161 65.0273 42.1594 65.0726 49.3781 64.5885C49.5352 64.572 49.6867 64.5198 49.8216 64.4357C49.9564 64.3517 50.0713 64.2379 50.1577 64.1026C50.2441 63.9674 50.3 63.8141 50.3211 63.654C50.3423 63.4938 50.3283 63.3309 50.2801 63.177C50.1677 62.8389 49.9462 62.55 49.6522 62.3576C49.3581 62.1653 49.0089 62.0809 48.6618 62.1184Z" fill="white"/>
<path d="M29.8526 61.1954L49.9882 61.0596C50.4392 61.0596 50.6249 60.8153 50.5719 60.4081C50.3272 59.3207 49.854 58.3009 49.1851 57.4196C48.5162 56.5383 47.6677 55.8167 46.6986 55.305C45.6413 54.792 44.5281 54.4093 43.3825 54.1649C43.2484 54.1576 43.1193 54.1105 43.0111 54.0292C43.0111 54.0292 43.0111 54.0292 43.0111 53.8663C42.8121 53.3707 42.8121 52.8148 43.0111 52.3191C43.9131 50.039 46.4864 49.0618 47.919 47.2431C49.2425 45.3091 49.8962 42.9778 49.776 40.6199C49.7958 37.5269 49.3848 34.4467 48.5556 31.4722C48.3852 31.0683 48.0713 30.7456 47.6774 30.5693C47.2835 30.393 46.8389 30.3761 46.4333 30.5222C45.546 31.0734 44.6141 31.5457 43.6478 31.9336C42.6602 32.2978 41.6201 32.4905 40.5704 32.5037C38.3276 32.5622 36.0837 32.4443 33.8585 32.1508L32.3198 31.9336H31.9484C31.9484 31.9336 31.9484 31.5808 31.9484 31.7437C31.9812 31.5825 32.0544 31.4329 32.1607 31.3093C32.4702 30.9861 32.8864 30.7925 33.328 30.7665C34.4491 30.6714 35.576 30.6714 36.6971 30.7665C37.8379 30.7665 38.9787 30.7665 40.1194 30.9293C41.2602 31.0922 42.5601 31.1736 43.7804 31.3365C44.7727 31.3676 45.7481 31.6078 46.6455 32.0423C47.017 32.3137 47.7863 32.6666 48.2373 32.3137C48.6883 31.9608 48.2373 31.3637 47.8659 31.1194C46.7596 30.3782 45.4944 29.9218 44.1784 29.7893C42.8254 29.5721 41.5254 29.4092 40.0928 29.2735C38.6603 29.1378 37.2808 29.0564 35.8747 29.0292C34.5161 28.8933 33.1479 28.8933 31.7893 29.0292C30.7812 29.1921 29.5608 29.8707 29.6404 31.0651C29.72 32.2594 31.073 33.0738 32.1076 33.3723C33.3652 33.7165 34.6544 33.9257 35.9543 33.9967C37.3869 34.1324 38.7929 34.2138 40.2255 34.2409C41.6692 34.2955 43.1138 34.1587 44.5232 33.8338C45.912 33.3926 47.2403 32.7723 48.4761 31.988L46.3537 31.0379C47.1017 33.685 47.4857 36.4258 47.4945 39.1812C47.7119 41.5428 47.1313 43.9093 45.8497 45.8859C44.4171 47.786 41.9234 48.6003 40.9152 50.9347C40.6592 51.4465 40.5437 52.0198 40.581 52.5934C40.6184 53.1671 40.8073 53.7197 41.1275 54.1921C42.0267 55.1975 43.2524 55.8341 44.5763 55.9836C45.468 56.1477 46.2908 56.5828 46.9374 57.2323C47.6822 57.9565 48.1758 58.9095 48.3434 59.9467L48.9005 59.2681H28.7649C28.6573 59.2514 28.5472 59.269 28.4496 59.3185C28.3521 59.368 28.2717 59.4471 28.2196 59.5449C28.1675 59.6427 28.146 59.7546 28.1582 59.8653C28.1703 59.976 28.2154 60.0803 28.2874 60.1639C28.4741 60.4172 28.7141 60.6243 28.9897 60.77C29.2652 60.9156 29.5692 60.9961 29.8792 61.0053" fill="white"/>
<path d="M30.1709 60.7883C30.5431 59.9236 31.1629 59.1948 31.9484 58.6981C32.8746 58.2031 33.8423 57.7943 34.8401 57.4766C35.9004 57.107 36.8257 56.4158 37.493 55.4951C38.1035 54.61 38.3943 53.5353 38.3154 52.4549C38.1562 50.0119 35.9808 48.709 34.6544 47.0261C33.3801 45.2622 32.4769 43.2474 32.0015 41.1086C31.4097 38.2277 31.2398 35.2729 31.4974 32.3409C31.4974 30.8751 29.1363 30.468 29.0302 31.988C28.4671 37.0354 29.3909 42.1397 31.6831 46.646C32.2673 47.6158 32.9425 48.5249 33.6993 49.3605C34.482 50.0284 35.1696 50.805 35.742 51.6677C35.91 52.0087 35.9975 52.3852 35.9975 52.7671C35.9975 53.1489 35.91 53.5254 35.742 53.8664C35.2655 54.5999 34.5517 55.1381 33.7258 55.3865C32.5404 55.7576 31.401 56.2677 30.3301 56.9066C29.288 57.6545 28.463 58.6768 27.9425 59.8654C27.3588 61.2226 29.7199 62.1726 30.3036 60.7883" fill="white"/>
<path d="M48.1577 46.5916C49.3058 46.7723 50.4801 46.5625 51.5004 45.9944C52.4459 45.3816 53.2222 44.5312 53.7554 43.5243C54.9112 41.3962 55.4625 38.9799 55.3471 36.5482C55.3471 36.0324 54.1002 35.951 53.8084 35.9238C52.1901 35.9238 50.5453 35.9238 48.927 35.9238C48.6883 35.9238 47.8659 35.9239 47.9985 36.331C48.1312 36.7382 49.1924 36.8196 49.4842 36.8468C51.1024 36.8468 52.7472 36.8468 54.3655 36.8468L52.8533 36.2224C52.9669 38.355 52.5564 40.4828 51.6595 42.4113C51.2518 43.3364 50.6652 44.1674 49.9352 44.8544C49.6266 45.1541 49.2669 45.3933 48.874 45.5601L48.37 45.7501C47.972 45.7501 48.2373 45.7501 48.37 45.7501C48.1047 45.7501 47.1496 45.5873 47.07 45.9944C46.9904 46.4016 48.0781 46.5916 48.2638 46.5916" fill="white"/>
<path d="M31.8157 45.886H31.179H30.8342H30.7015H30.3301H30.0648L29.72 45.7503C28.7987 45.4301 27.9755 44.8685 27.3323 44.1216C25.8602 42.1185 25.2214 39.6013 25.5549 37.1184L24.8916 37.3898H31.0464C31.3382 37.3898 31.9484 37.227 31.577 36.8741C31.0631 36.5706 30.4699 36.4378 29.8791 36.4941H23.857C23.6978 36.4941 23.2203 36.4941 23.1938 36.7655C23.0064 38.2524 23.1422 39.7632 23.5917 41.19C23.9704 42.4659 24.6438 43.6297 25.5549 44.5831C26.5309 45.4515 27.6809 46.0908 28.9241 46.4561C30.2761 46.9078 31.6939 47.1189 33.1157 47.0804C33.4075 47.0804 34.0442 46.9175 33.6463 46.5647C33.1381 46.2465 32.54 46.1126 31.9484 46.1846" fill="white"/>
<path d="M40.7296 24.5776C40.7296 21.8632 40.7296 19.1487 40.9418 16.4343C40.9418 16.2171 40.5704 16.1085 40.4377 16.0814C40.0962 16.0119 39.7446 16.0119 39.4031 16.0814C38.9521 16.0814 38.0766 16.38 38.0766 16.9772L37.8379 25.1205C37.8379 25.3377 38.2358 25.4462 38.342 25.4734C38.6926 25.541 39.0525 25.541 39.4031 25.4734C39.8276 25.4734 40.703 25.1748 40.7296 24.5776Z" fill="white"/>
<path d="M28.6588 27.428C27.5251 25.9967 26.2344 24.7033 24.8121 23.5735C24.5982 23.438 24.3457 23.3806 24.0958 23.4106C23.7195 23.3886 23.3423 23.4345 22.9816 23.5463C22.8224 23.5463 21.6817 24.0349 22.1061 24.3607C23.523 25.5071 24.8129 26.8087 25.9528 28.2423C26.0855 28.4052 26.51 28.4052 26.6691 28.4052C27.0471 28.4196 27.4245 28.3645 27.7834 28.2423C28.0487 28.2423 29.0037 27.8623 28.6588 27.428Z" fill="white"/>
<path d="M54.8695 27.1837L57.6816 23.8721C57.788 23.7909 57.8728 23.6839 57.9284 23.5606C57.984 23.4373 58.0086 23.3018 58 23.1663C57.9595 23.035 57.8872 22.9164 57.7898 22.8214C57.6924 22.7265 57.573 22.6584 57.4429 22.6234C57.0974 22.5129 56.7271 22.5129 56.3817 22.6234C56.0268 22.6809 55.6955 22.841 55.4266 23.0849L52.6145 26.3694C52.5095 26.4578 52.426 26.5701 52.3707 26.6973C52.3155 26.8246 52.29 26.9632 52.2962 27.1023C52.3362 27.2293 52.4052 27.3448 52.4975 27.4392C52.5897 27.5336 52.7026 27.6042 52.8268 27.6452C53.1727 27.7524 53.542 27.7524 53.888 27.6452C54.2526 27.5943 54.5943 27.4336 54.8695 27.1837Z" fill="white"/>
</g>
<defs>
<clipPath id="clip0_90_109">
<rect width="36" height="50" fill="white" transform="translate(22 16)"/>
</clipPath>
</defs>
</svg>
