<svg width="22" height="22" viewBox="0 0 22 22" fill="none" xmlns="http://www.w3.org/2000/svg">
<g clip-path="url(#clip0_153_160)">
<path d="M7.57749 2.75C7.70298 2.75005 7.82712 2.77587 7.94222 2.82585C8.05733 2.87584 8.16095 2.94892 8.24665 3.04058L8.31632 3.12492L12.2342 8.46725L17.6847 3.01858C17.8496 2.85418 18.071 2.75873 18.3038 2.75162C18.5365 2.74452 18.7633 2.82628 18.938 2.98031C19.1127 3.13434 19.2222 3.34909 19.2443 3.58094C19.2664 3.81278 19.1994 4.04434 19.0569 4.22858L18.9808 4.31475L13.3314 9.96325L19.0716 17.7916C19.1666 17.9213 19.2259 18.0738 19.2434 18.2336C19.2609 18.3935 19.236 18.5551 19.1713 18.7024C19.1065 18.8496 19.0042 18.9772 18.8745 19.0723C18.7449 19.1675 18.5925 19.2269 18.4327 19.2445L18.3327 19.25H14.4213C14.2958 19.2499 14.1717 19.2241 14.0566 19.1741C13.9415 19.1242 13.8379 19.0511 13.7522 18.9594L13.6825 18.8751L9.76282 13.5318L4.31415 18.9814C4.14919 19.1458 3.92784 19.2413 3.69505 19.2484C3.46227 19.2555 3.2355 19.1737 3.06082 19.0197C2.88613 18.8657 2.77662 18.6509 2.75454 18.4191C2.73245 18.1872 2.79944 17.9557 2.9419 17.7714L3.01799 17.6852L8.66557 12.0358L2.92724 4.20842C2.83219 4.07869 2.77294 3.92624 2.75544 3.76638C2.73794 3.60651 2.76281 3.44485 2.82755 3.29764C2.89229 3.15042 2.99462 3.02283 3.12426 2.92767C3.25391 2.83251 3.4063 2.77313 3.56615 2.7555L3.66607 2.75H7.57749Z" fill="white"/>
</g>
<defs>
<clipPath id="clip0_153_160">
<rect width="22" height="22" fill="white"/>
</clipPath>
</defs>
</svg>
